<svg width="40" height="40" viewBox="0 0 40 40" fill="none" xmlns="http://www.w3.org/2000/svg">
<rect width="40" height="40" rx="20" fill="#FF66C8"/>
<path fill-rule="evenodd" clip-rule="evenodd" d="M26.7064 15.2928C26.8939 15.4803 26.9992 15.7346 26.9992 15.9998C26.9992 16.265 26.8939 16.5193 26.7064 16.7068L18.7064 24.7068C18.5189 24.8943 18.2646 24.9996 17.9994 24.9996C17.7343 24.9996 17.48 24.8943 17.2924 24.7068L13.2924 20.7068C13.1103 20.5182 13.0095 20.2656 13.0118 20.0034C13.014 19.7412 13.1192 19.4904 13.3046 19.305C13.49 19.1196 13.7408 19.0144 14.003 19.0121C14.2652 19.0098 14.5178 19.1106 14.7064 19.2928L17.9994 22.5858L25.2924 15.2928C25.48 15.1053 25.7343 15 25.9994 15C26.2646 15 26.5189 15.1053 26.7064 15.2928Z" fill="black"/>
</svg>
