<svg xmlns="http://www.w3.org/2000/svg" xmlns:xlink="http://www.w3.org/1999/xlink" viewBox="0 0 250 250" width="250" height="250" preserveAspectRatio="xMidYMid meet" style="width: 100%; height: 100%; transform: translate3d(0px, 0px, 0px); content-visibility: visible;"><defs><clipPath id="__lottie_element_359"><rect width="250" height="250" x="0" y="0"></rect></clipPath></defs><g clip-path="url(#__lottie_element_359)"><g transform="matrix(0.2040625661611557,0,0,0.2040625661611557,-43.64250183105469,-49.10231018066406)" opacity="1" style="display: block;"><g opacity="1" transform="matrix(0.9977216124534607,0.06746529787778854,-0.06746529787778854,0.9977216124534607,1000.1664428710938,1037.5611572265625)"><g opacity="1" transform="matrix(1,0,0,1,-999.9999389648438,-1000)"><g opacity="1" transform="matrix(1,0,0,1,1244.8299560546875,776.0700073242188)"><path stroke-linecap="round" stroke-linejoin="round" fill-opacity="0" stroke="rgb(2,2,2)" stroke-opacity="1" stroke-width="4" d=" M-133.8800048828125,-185.07000732421875 C-111.94000244140625,-161.25 -88.26000213623047,-129.2100067138672 -64.9800033569336,-95.5199966430664 C-46.52000045776367,-68.79000091552734 -28.309999465942383,-41.040000915527344 -11.449999809265137,-15.539999961853027 C5.090000152587891,9.449999809265137 20.350000381469727,32.2599983215332 33.29999923706055,49.79999923706055 C37.310001373291016,55.22999954223633 41.810001373291016,61.279998779296875 46.68000030517578,67.80999755859375 C63.25,90.02999877929688 84.16000366210938,117.8499984741211 105.16999816894531,146.14999389648438 C114.86000061035156,159.19000244140625 124.56999969482422,172.3300018310547 133.8800048828125,185.07000732421875"></path></g><g opacity="1" transform="matrix(1,0,0,1,1296.93994140625,696.8800048828125)"><path stroke-linecap="round" stroke-linejoin="round" fill-opacity="0" stroke="rgb(2,2,2)" stroke-opacity="1" stroke-width="4" d=" M-114.0999984741211,-149.25 C-94.27999877929688,-126.75 -72.51000213623047,-98.2300033569336 -50.849998474121094,-68.33999633789062 C-31.799999237060547,-42.04999923706055 -12.829999923706055,-14.699999809265137 4.670000076293945,10.569999694824219 C22.93000030517578,36.93000030517578 39.58000183105469,61.0099983215332 53.040000915527344,79.23999786376953 C56.58000183105469,84.04000091552734 60.65999984741211,89.18000030517578 65.16000366210938,94.5999984741211 C78.62999725341797,110.83000183105469 95.91000366210938,129.5800018310547 114.0999984741211,149.25"></path></g><g opacity="1" transform="matrix(1,0,0,1,1169.75,840.2750244140625)"><path stroke-linecap="round" stroke-linejoin="round" fill-opacity="0" stroke="rgb(2,2,2)" stroke-opacity="1" stroke-width="4" d=" M-138.6300048828125,-191.5850067138672 C-116.83000183105469,-167.9149932861328 -93.30000305175781,-136.11500549316406 -70.16999816894531,-102.65499877929688 C-51.54999923706055,-75.74500274658203 -33.20000076293945,-47.755001068115234 -16.200000762939453,-22.065000534057617 C0.3400000035762787,2.924999952316284 15.600000381469727,25.7450008392334 28.549999237060547,43.28499984741211 C32.31999969482422,48.3849983215332 36.5099983215332,54.025001525878906 41.040000915527344,60.10499954223633 C57.56999969482422,82.2750015258789 78.58000183105469,110.2249984741211 99.73999786376953,138.71499633789062 C113,156.55499267578125 126.31999969482422,174.61500549316406 138.6300048828125,191.5850067138672"></path></g><g opacity="1" transform="matrix(1,0,0,1,1089.1099853515625,895.7349853515625)"><path stroke-linecap="round" stroke-linejoin="round" fill-opacity="0" stroke="rgb(2,2,2)" stroke-opacity="1" stroke-width="4" d=" M128.82000732421875,179.2550048828125 C119.23999786376953,166.15499877929688 109.26000213623047,152.64500427246094 99.31999969482422,139.28500366210938 C77.97000122070312,110.55500030517578 56.86000061035156,82.4749984741211 40.439998626708984,60.435001373291016 C36.45000076293945,55.07500076293945 32.7400016784668,50.07500076293945 29.360000610351562,45.505001068115234 C16.229999542236328,27.735000610351562 0.7400000095367432,4.534999847412109 -16.06999969482422,-20.864999771118164 C-33.2599983215332,-46.845001220703125 -51.81999969482422,-75.13500213623047 -70.61000061035156,-102.24500274658203 C-90.19000244140625,-130.48500061035156 -110.0199966430664,-157.46499633789062 -128.82000732421875,-179.2449951171875 C-128.82000732421875,-179.2449951171875 -128.82000732421875,-179.2550048828125 -128.82000732421875,-179.2550048828125"></path></g><g opacity="1" transform="matrix(1,0,0,1,1015.3250122070312,960.2100219726562)"><path stroke-linecap="round" stroke-linejoin="round" fill-opacity="0" stroke="rgb(2,2,2)" stroke-opacity="1" stroke-width="4" d=" M111.56500244140625,157.2100067138672 C105.36499786376953,148.7899932861328 99.06500244140625,140.3000030517578 92.79499816894531,131.86000061035156 C71.3550033569336,103.01000213623047 50.19499969482422,74.87000274658203 33.80500030517578,52.880001068115234 C30.03499984741211,47.810001373291016 26.514999389648438,43.06999969482422 23.30500030517578,38.720001220703125 C10.114999771118164,20.8700008392334 -5.454999923706055,-2.4600000381469727 -22.344999313354492,-27.979999542236328 C-39.64500045776367,-54.13999938964844 -58.32500076293945,-82.61000061035156 -77.23500061035156,-109.86000061035156 C-88.67500305175781,-126.3499984741211 -100.20500183105469,-142.39999389648438 -111.56500244140625,-157.2100067138672"></path></g><g opacity="1" transform="matrix(1,0,0,1,957.0650024414062,1047.35498046875)"><path stroke-linecap="round" stroke-linejoin="round" fill-opacity="0" stroke="rgb(2,2,2)" stroke-opacity="1" stroke-width="4" d=" M105.34500122070312,148.6750030517578 C94.44499969482422,133.72500610351562 82.92500305175781,118.13500213623047 71.4749984741211,102.73500061035156 C49.875,73.67500305175781 28.53499984741211,45.29499816894531 12.074999809265137,23.184999465942383 C8.354999542236328,18.204999923706055 4.894999980926514,13.53499984741211 1.7350000143051147,9.255000114440918 C-11.395000457763672,-8.515000343322754 -26.885000228881836,-31.71500015258789 -43.67499923706055,-57.095001220703125 C-60.974998474121094,-83.24500274658203 -79.65499877929688,-111.70500183105469 -98.56500244140625,-138.96499633789062 C-100.82499694824219,-142.22500610351562 -103.08499908447266,-145.46499633789062 -105.34500122070312,-148.6750030517578"></path></g><g opacity="1" transform="matrix(1,0,0,1,894.5399780273438,1130.510009765625)"><path stroke-linecap="round" stroke-linejoin="round" fill-opacity="0" stroke="rgb(2,2,2)" stroke-opacity="1" stroke-width="4" d=" M86.43000030517578,121 C76.01000213623047,106.7300033569336 65.05999755859375,91.91999816894531 54.189998626708984,77.29000091552734 C32.400001525878906,47.97999954223633 10.880000114440918,19.3700008392334 -5.639999866485596,-2.8299999237060547 C-9.199999809265137,-7.610000133514404 -12.520000457763672,-12.09000015258789 -15.569999694824219,-16.209999084472656 C-28.690000534057617,-33.97999954223633 -44.16999816894531,-57.15999984741211 -60.959999084472656,-82.52999877929688 C-69.18000030517578,-94.95999908447266 -77.70999908447266,-107.9000015258789 -86.43000030517578,-121"></path></g></g><g opacity="1" transform="matrix(1,0,0,1,0,0)"><g opacity="1" transform="matrix(1,0,0,1,153.625,61.27001953125)"><path stroke-linecap="round" stroke-linejoin="round" fill-opacity="0" stroke="rgb(2,2,2)" stroke-opacity="1" stroke-width="4" d=" M253.77499389648438,-181.52000427246094 C236.8249969482422,-168.47999572753906 217.23500061035156,-154.05999755859375 196.375,-139.0500030517578 C170.63499450683594,-120.5199966430664 142.94500732421875,-101.0999984741211 115.86499786376953,-82.27999877929688 C87.17500305175781,-62.349998474121094 59.154998779296875,-43.08000183105469 34.80500030517578,-26.25 C8.045000076293945,-7.760000228881836 -14.265000343322754,7.78000020980835 -28.155000686645508,18.040000915527344 C-32.814998626708984,21.479999542236328 -38.67499923706055,25.790000915527344 -45.505001068115234,30.799999237060547 C-65.67500305175781,45.59000015258789 -94.25499725341797,66.43000030517578 -125.08499908447266,88.81999969482422 C-151.3350067138672,107.87000274658203 -179.2050018310547,128.0399932861328 -204.89500427246094,146.52999877929688 C-222.65499877929688,159.30999755859375 -239.375,171.27999877929688 -253.77499389648438,181.52000427246094"></path></g><g opacity="1" transform="matrix(1,0,0,1,104.1650390625,-27.29498291015625)"><path stroke-linecap="round" stroke-linejoin="round" fill-opacity="0" stroke="rgb(2,2,2)" stroke-opacity="1" stroke-width="4" d=" M288.32501220703125,-206.6649932861328 C280.4049987792969,-199.36500549316406 270.06500244140625,-190.76499938964844 257.93499755859375,-181.22500610351562 C238.21499633789062,-165.7050018310547 213.78500366210938,-147.71499633789062 187.34500122070312,-128.8249969482422 C161.4949951171875,-110.3550033569336 133.7449951171875,-91.03500366210938 106.625,-72.32499694824219 C77.81500244140625,-52.44499969482422 49.71500015258789,-33.255001068115234 25.385000228881836,-16.53499984741211 C-0.8550000190734863,1.4950000047683716 -22.71500015258789,16.674999237060547 -36.3849983215332,26.764999389648438 C-41.14500045776367,30.28499984741211 -47.474998474121094,34.904998779296875 -55.03499984741211,40.3849983215332 C-75.01499938964844,54.875 -103.65499877929688,75.42500305175781 -135.02499389648438,97.83499908447266 C-161.01499938964844,116.40499877929688 -188.875,136.2449951171875 -215.26499938964844,154.97500610351562 C-242.4149932861328,174.2550048828125 -267.9949951171875,192.35499572753906 -288.32501220703125,206.6649932861328"></path></g><g opacity="1" transform="matrix(1,0,0,1,55.344970703125,-114.655029296875)"><path stroke-linecap="round" stroke-linejoin="round" fill-opacity="0" stroke="rgb(2,2,2)" stroke-opacity="1" stroke-width="4" d=" M260.6050109863281,-190.47500610351562 C256.3949890136719,-186.59500122070312 251.5850067138672,-182.38499450683594 246.26499938964844,-177.89500427246094 C228.2949981689453,-162.7449951171875 204.48500061035156,-144.4149932861328 178.03500366210938,-124.81500244140625 C152.89500427246094,-106.18499755859375 125.375,-86.41500091552734 98.20500183105469,-67.13500213623047 C69.95500183105469,-47.095001220703125 42.084999084472656,-27.594999313354492 17.69499969482422,-10.475000381469727 C-8.614999771118164,7.994999885559082 -30.885000228881836,23.684999465942383 -45.244998931884766,34.29499816894531 C-49.85499954223633,37.69499969482422 -55.6349983215332,41.94499969482422 -62.3650016784668,46.8849983215332 C-82.49500274658203,61.64500045776367 -111.09500122070312,82.50499725341797 -141.9550018310547,104.91500091552734 C-168.19500732421875,123.9749984741211 -196.0749969482422,144.14500427246094 -221.76499938964844,162.63499450683594 C-235.53500366210938,172.5449981689453 -248.6750030517578,181.96499633789062 -260.6050109863281,190.47500610351562"></path></g><g opacity="1" transform="matrix(1,0,0,1,46.4949951171875,-227.79998779296875)"><path stroke-linecap="round" stroke-linejoin="round" fill-opacity="0" stroke="rgb(2,2,2)" stroke-opacity="1" stroke-width="4" d=" M205.0850067138672,-148.60000610351562 C203.34500122070312,-147 201.51499938964844,-145.35000610351562 199.59500122070312,-143.66000366210938 C183.02499389648438,-129.05999755859375 159.77499389648438,-111.06999969482422 133.35499572753906,-91.6500015258789 C108.43499755859375,-73.33999633789062 80.69499969482422,-53.7599983215332 53.084999084472656,-34.58000183105469 C24.875,-14.970000267028809 -3.194999933242798,4.239999771118164 -27.9950008392334,21.290000915527344 C-55.48500061035156,40.189998626708984 -78.94499969482422,56.43000030517578 -94.08499908447266,67.61000061035156 C-98.00499725341797,70.5 -102.82499694824219,74.05000305175781 -108.40499877929688,78.1500015258789 C-127.8949966430664,92.44000244140625 -156.5850067138672,113.37999725341797 -187.9949951171875,136.19000244140625 C-193.61500549316406,140.27000427246094 -199.3249969482422,144.4199981689453 -205.0850067138672,148.60000610351562"></path></g></g></g><g opacity="1" transform="matrix(0.9988583326339722,-0.04777015000581741,0.04146966710686684,0.8671173453330994,686.5819702148438,822.0570678710938)"><path fill="rgb(2,2,2)" fill-opacity="1" d=" M-0.0010000000474974513,347.8169860839844 C-190.0590057373047,347.8169860839844 -344.6830139160156,191.78799438476562 -344.6830139160156,0 C-344.6830139160156,-191.78799438476562 -190.0590057373047,-347.8169860839844 -0.0010000000474974513,-347.8169860839844 C190.05999755859375,-347.8169860839844 344.6830139160156,-191.78799438476562 344.6830139160156,0 C344.6830139160156,191.78799438476562 190.05999755859375,347.8169860839844 -0.0010000000474974513,347.8169860839844 C-0.0010000000474974513,347.8169860839844 -0.0010000000474974513,347.8169860839844 -0.0010000000474974513,347.8169860839844z"></path></g><g opacity="1" transform="matrix(0.998759388923645,-0.04979650303721428,0.042785078287124634,0.8581324815750122,-32.34112548828125,151.15692138671875)"><g opacity="1" transform="matrix(1,0,0,1,0,35.200439453125)"><g opacity="1" transform="matrix(1,0,0,1,646.5819702148438,774.64599609375)"><path fill="rgb(255,255,255)" fill-opacity="1" d=" M-0.0010000000474974513,339.9750061035156 C-187.46200561523438,339.9750061035156 -339.9739990234375,187.46400451660156 -339.9739990234375,0 C-339.9739990234375,-187.46400451660156 -187.46200561523438,-339.9750061035156 -0.0010000000474974513,-339.9750061035156 C187.46299743652344,-339.9750061035156 339.9739990234375,-187.46400451660156 339.9739990234375,0 C339.9739990234375,187.46400451660156 187.46299743652344,339.9750061035156 -0.0010000000474974513,339.9750061035156 C-0.0010000000474974513,339.9750061035156 -0.0010000000474974513,339.9750061035156 -0.0010000000474974513,339.9750061035156z"></path><path stroke-linecap="round" stroke-linejoin="round" fill-opacity="0" stroke="rgb(2,2,2)" stroke-opacity="1" stroke-width="4" d=" M-0.0010000000474974513,339.9750061035156 C-187.46200561523438,339.9750061035156 -339.9739990234375,187.46400451660156 -339.9739990234375,0 C-339.9739990234375,-187.46400451660156 -187.46200561523438,-339.9750061035156 -0.0010000000474974513,-339.9750061035156 C187.46299743652344,-339.9750061035156 339.9739990234375,-187.46400451660156 339.9739990234375,0 C339.9739990234375,187.46400451660156 187.46299743652344,339.9750061035156 -0.0010000000474974513,339.9750061035156 C-0.0010000000474974513,339.9750061035156 -0.0010000000474974513,339.9750061035156 -0.0010000000474974513,339.9750061035156z"></path></g></g><g opacity="1" transform="matrix(1,0,0,1,646.5819702148438,774.64599609375)"><path fill="rgb(76,137,255)" fill-opacity="1" d=" M295.8590087890625,0 C295.8590087890625,163.3979949951172 163.3979949951172,295.8590087890625 0,295.8590087890625 C-163.3979949951172,295.8590087890625 -295.8590087890625,163.3979949951172 -295.8590087890625,0 C-295.8590087890625,-163.3979949951172 -163.3979949951172,-295.8590087890625 0,-295.8590087890625 C163.3979949951172,-295.8590087890625 295.8590087890625,-163.3979949951172 295.8590087890625,0 C295.8590087890625,0 295.8590087890625,0 295.8590087890625,0z"></path></g><g opacity="1" transform="matrix(1,0,0,1,646.5819702148438,774.64599609375)"><path fill="rgb(255,255,255)" fill-opacity="1" d=" M-0.0010000000474974513,339.9750061035156 C-187.46200561523438,339.9750061035156 -339.9739990234375,187.46400451660156 -339.9739990234375,0 C-339.9739990234375,-187.46400451660156 -187.46200561523438,-339.9750061035156 -0.0010000000474974513,-339.9750061035156 C187.46299743652344,-339.9750061035156 339.9739990234375,-187.46400451660156 339.9739990234375,0 C339.9739990234375,187.46400451660156 187.46299743652344,339.9750061035156 -0.0010000000474974513,339.9750061035156 C-0.0010000000474974513,339.9750061035156 -0.0010000000474974513,339.9750061035156 -0.0010000000474974513,339.9750061035156z M-0.0010000000474974513,-262.5199890136719 C-144.75399780273438,-262.5199890136719 -262.5190124511719,-144.7550048828125 -262.5190124511719,0 C-262.5190124511719,144.7550048828125 -144.75399780273438,262.5199890136719 -0.0010000000474974513,262.5199890136719 C144.75399780273438,262.5199890136719 262.5190124511719,144.7550048828125 262.5190124511719,0 C262.5190124511719,-144.7550048828125 144.75399780273438,-262.5199890136719 -0.0010000000474974513,-262.5199890136719 C-0.0010000000474974513,-262.5199890136719 -0.0010000000474974513,-262.5199890136719 -0.0010000000474974513,-262.5199890136719z"></path><path stroke-linecap="round" stroke-linejoin="round" fill-opacity="0" stroke="rgb(2,2,2)" stroke-opacity="1" stroke-width="4" d=" M-0.0010000000474974513,339.9750061035156 C-187.46200561523438,339.9750061035156 -339.9739990234375,187.46400451660156 -339.9739990234375,0 C-339.9739990234375,-187.46400451660156 -187.46200561523438,-339.9750061035156 -0.0010000000474974513,-339.9750061035156 C187.46299743652344,-339.9750061035156 339.9739990234375,-187.46400451660156 339.9739990234375,0 C339.9739990234375,187.46400451660156 187.46299743652344,339.9750061035156 -0.0010000000474974513,339.9750061035156 C-0.0010000000474974513,339.9750061035156 -0.0010000000474974513,339.9750061035156 -0.0010000000474974513,339.9750061035156z M-0.0010000000474974513,-262.5199890136719 C-144.75399780273438,-262.5199890136719 -262.5190124511719,-144.7550048828125 -262.5190124511719,0 C-262.5190124511719,144.7550048828125 -144.75399780273438,262.5199890136719 -0.0010000000474974513,262.5199890136719 C144.75399780273438,262.5199890136719 262.5190124511719,144.7550048828125 262.5190124511719,0 C262.5190124511719,-144.7550048828125 144.75399780273438,-262.5199890136719 -0.0010000000474974513,-262.5199890136719 C-0.0010000000474974513,-262.5199890136719 -0.0010000000474974513,-262.5199890136719 -0.0010000000474974513,-262.5199890136719z"></path><g opacity="1" transform="matrix(1,0,0,1,0,0)"></g><g opacity="1" transform="matrix(1,0,0,1,0,0)"></g></g><g opacity="1" transform="matrix(1,0,0,1,643.833984375,584.5349731445312)"><path fill="rgb(2,2,2)" fill-opacity="1" d=" M16.819000244140625,0 C16.819000244140625,9.288999557495117 9.288999557495117,16.819000244140625 0,16.819000244140625 C-9.288999557495117,16.819000244140625 -16.819000244140625,9.288999557495117 -16.819000244140625,0 C-16.819000244140625,-9.288999557495117 -9.288999557495117,-16.819000244140625 0,-16.819000244140625 C9.288999557495117,-16.819000244140625 16.819000244140625,-9.288999557495117 16.819000244140625,0 C16.819000244140625,0 16.819000244140625,0 16.819000244140625,0z"></path></g><g opacity="1" transform="matrix(1,0,0,1,643.833984375,964.7570190429688)"><path fill="rgb(2,2,2)" fill-opacity="1" d=" M16.819000244140625,0 C16.819000244140625,9.288999557495117 9.288999557495117,16.819000244140625 0,16.819000244140625 C-9.288999557495117,16.819000244140625 -16.819000244140625,9.288999557495117 -16.819000244140625,0 C-16.819000244140625,-9.288999557495117 -9.288999557495117,-16.819000244140625 0,-16.819000244140625 C9.288999557495117,-16.819000244140625 16.819000244140625,-9.288999557495117 16.819000244140625,0 C16.819000244140625,0 16.819000244140625,0 16.819000244140625,0z"></path></g><g opacity="1" transform="matrix(1,0,0,1,833.9450073242188,774.64599609375)"><path fill="rgb(2,2,2)" fill-opacity="1" d=" M0,16.819000244140625 C-9.288999557495117,16.819000244140625 -16.819000244140625,9.288999557495117 -16.819000244140625,0 C-16.819000244140625,-9.288999557495117 -9.288999557495117,-16.819000244140625 0,-16.819000244140625 C9.288999557495117,-16.819000244140625 16.819000244140625,-9.288999557495117 16.819000244140625,0 C16.819000244140625,9.288999557495117 9.288999557495117,16.819000244140625 0,16.819000244140625 C0,16.819000244140625 0,16.819000244140625 0,16.819000244140625z"></path></g><g opacity="1" transform="matrix(1,0,0,1,453.7229919433594,774.64599609375)"><path fill="rgb(2,2,2)" fill-opacity="1" d=" M0,16.819000244140625 C-9.288999557495117,16.819000244140625 -16.819000244140625,9.288999557495117 -16.819000244140625,0 C-16.819000244140625,-9.288999557495117 -9.288999557495117,-16.819000244140625 0,-16.819000244140625 C9.288999557495117,-16.819000244140625 16.819000244140625,-9.288999557495117 16.819000244140625,0 C16.819000244140625,9.288999557495117 9.288999557495117,16.819000244140625 0,16.819000244140625 C0,16.819000244140625 0,16.819000244140625 0,16.819000244140625z"></path></g><g opacity="1" transform="matrix(0,1,-1,0,680.6790161132812,824.9710083007812)"><path fill="rgb(255,255,255)" fill-opacity="1" d=" M-76.21700286865234,66.1989974975586 C-82.93000030517578,60.27799987792969 -88.21499633789062,48.763999938964844 -88.21499633789062,38.17499923706055 C-88.21499633789062,38.17499923706055 -88.21499633789062,-132.572998046875 -88.21499633789062,-132.572998046875 C-88.21499633789062,-153.96099853515625 -70.8759994506836,-171.3000030517578 -49.487998962402344,-171.3000030517578 C-28.100000381469727,-171.3000030517578 -10.76099967956543,-153.96099853515625 -10.76099967956543,-132.572998046875 C-10.76099967956543,-132.572998046875 -10.718000411987305,11.28600025177002 -10.76099967956543,21.594999313354492 C-10.803999900817871,31.90399932861328 -6.553999900817871,54.40399932861328 -27.6299991607666,69.8010025024414 C-50.80400085449219,84.65399932861328 -69.50399780273438,72.12000274658203 -76.21700286865234,66.1989974975586 C-76.21700286865234,66.1989974975586 -76.21700286865234,66.1989974975586 -76.21700286865234,66.1989974975586z"></path></g><g opacity="1" transform="matrix(-0.6881772875785828,0.7255425453186035,-0.7255425453186035,-0.6881772875785828,613.4290161132812,813.7210083007812)"><path fill="rgb(255,255,255)" fill-opacity="1" d=" M-76.55699920654297,33.0989990234375 C-83.2699966430664,27.17799949645996 -88.55599975585938,15.663999557495117 -88.55599975585938,5.074999809265137 C-88.55599975585938,5.074999809265137 -88.21499633789062,-132.572998046875 -88.21499633789062,-132.572998046875 C-88.21499633789062,-153.96099853515625 -70.8759994506836,-171.3000030517578 -49.487998962402344,-171.3000030517578 C-28.100000381469727,-171.3000030517578 -10.76099967956543,-153.96099853515625 -10.76099967956543,-132.572998046875 C-10.76099967956543,-132.572998046875 -11.059000015258789,-21.81399917602539 -11.10200023651123,-11.505000114440918 C-11.145000457763672,-1.1959999799728394 -6.894999980926514,21.304000854492188 -27.97100067138672,36.70100021362305 C-51.14500045776367,51.55400085449219 -69.84400177001953,39.02000045776367 -76.55699920654297,33.0989990234375 C-76.55699920654297,33.0989990234375 -76.55699920654297,33.0989990234375 -76.55699920654297,33.0989990234375z"></path></g><g opacity="1" transform="matrix(1,0,0,1,865.5490112304688,984.5709838867188)"><path stroke-linecap="round" stroke-linejoin="round" fill-opacity="0" stroke="rgb(2,2,2)" stroke-opacity="1" stroke-width="4" d=" M-27.715999603271484,28.878999710083008 C-15.86400032043457,21.768999099731445 -5.923999786376953,13.91100025177002 0.13300000131130219,7.96999979019165 C10.944000244140625,-2.634999990463257 17.82699966430664,-12.239999771118164 27.715999603271484,-28.878999710083008"></path></g></g><g opacity="1" transform="matrix(1,0,0,1,404.1214904785156,1194.650634765625)"><path fill="rgb(76,137,255)" fill-opacity="1" d=" M57.242000579833984,-5.289999961853027 C36.731998443603516,-13.907999992370605 17.368999481201172,-27.74799919128418 4.256999969482422,-45.86399841308594 C-0.9520000219345093,-53.06100082397461 -5.427000045776367,-59.77899932861328 -14.982999801635742,-59.487998962402344 C-30.023000717163086,-59.02899932861328 -47.301998138427734,-55.00400161743164 -59.54100036621094,-45.89799880981445 C-73.56999969482422,-35.459999084472656 -68.22899627685547,-19.604000091552734 -60.632999420166016,-6.285999774932861 C-40.145999908447266,29.631999969482422 25.195999145507812,91.91500091552734 59.49599838256836,39.0880012512207 C67.45700073242188,26.826000213623047 75.39299774169922,2.3369998931884766 57.242000579833984,-5.289999961853027 C57.242000579833984,-5.289999961853027 57.242000579833984,-5.289999961853027 57.242000579833984,-5.289999961853027z"></path></g><g opacity="1" transform="matrix(0,0,0,0,47.154998779296875,648.2890014648438)"><path fill="rgb(76,137,255)" fill-opacity="1" d=" M68.322998046875,28.18400001525879 C52.65299987792969,40.11199951171875 -49.810001373291016,21.44099998474121 -66.02200317382812,4.50600004196167 C-82.12200164794922,-12.315999984741211 -61.5260009765625,-34.209999084472656 -42.941001892089844,-31.770000457763672 C-1.7489999532699585,-26.36199951171875 90.91799926757812,10.984999656677246 68.322998046875,28.18400001525879 C68.322998046875,28.18400001525879 68.322998046875,28.18400001525879 68.322998046875,28.18400001525879z"></path></g><g opacity="1" transform="matrix(0,0,0,0,324.989990234375,175.7100067138672)"><path fill="rgb(76,137,255)" fill-opacity="1" d=" M42.32099914550781,61.07400131225586 C22.628000259399414,61.1150016784668 -47.75199890136719,-15.657999992370605 -50.44300079345703,-38.946998596191406 C-53.11199951171875,-62.077999114990234 -23.474000930786133,-67.08599853515625 -10.13700008392334,-53.915000915527344 C19.423999786376953,-24.722999572753906 70.71700286865234,61.01499938964844 42.32099914550781,61.07400131225586 C42.32099914550781,61.07400131225586 42.32099914550781,61.07400131225586 42.32099914550781,61.07400131225586z"></path></g><g opacity="1" transform="matrix(0,0,0,0,595.1799926757812,193.8419952392578)"><path fill="rgb(76,137,255)" fill-opacity="1" d=" M-16.167999267578125,70.91400146484375 C-30.39699935913086,57.29999923706055 -27.964000701904297,-46.821998596191406 -13.770000457763672,-65.48100280761719 C0.33000001311302185,-84.01100158691406 25.17300033569336,-67.08899688720703 25.666000366210938,-48.35100173950195 C26.760000228881836,-6.820000171661377 4.349999904632568,90.54399871826172 -16.167999267578125,70.91400146484375 C-16.167999267578125,70.91400146484375 -16.167999267578125,70.91400146484375 -16.167999267578125,70.91400146484375z"></path></g></g></g></svg>