<svg xmlns="http://www.w3.org/2000/svg" xmlns:xlink="http://www.w3.org/1999/xlink" viewBox="0 0 247 245" width="247" height="245" preserveAspectRatio="xMidYMid meet" style="width: 100%; height: 100%; transform: translate3d(0px, 0px, 0px); content-visibility: visible;"><defs><clipPath id="__lottie_element_543"><rect width="247" height="245" x="0" y="0"></rect></clipPath><clipPath id="__lottie_element_576"><path d="M0,0 L106,0 L106,106 L0,106z"></path></clipPath><clipPath id="__lottie_element_584"><path d="M0,0 L80,0 L80,92 L0,92z"></path></clipPath><clipPath id="__lottie_element_600"><path d="M0,0 L106,0 L106,106 L0,106z"></path></clipPath><g id="__lottie_element_603"><g transform="matrix(1,0,0,1,0.5009994506835938,0.4529991149902344)" opacity="1" style="display: block;"><g opacity="1" transform="matrix(1,0,0,1,53.24800109863281,52.797000885009766)"><path fill="rgb(255,255,255)" fill-opacity="1" d=" M52,0 C52,-28.7189998626709 28.7189998626709,-52 0,-52 C-28.7189998626709,-52 -52,-28.7189998626709 -52,0 C-52,28.7189998626709 -28.7189998626709,52 0,52 C28.7189998626709,52 52,28.7189998626709 52,0 C52,0 52,0 52,0 C52,0 52,0 52,0 C52,0 52,0 52,0z"></path></g><g opacity="1" transform="matrix(1,0,0,1,52.755001068115234,52.79999923706055)"><path fill="rgb(19,19,19)" fill-opacity="1" d=" M52.49300003051758,-0.003000000026077032 C52.457000732421875,-6.810999870300293 51.095001220703125,-13.604999542236328 48.46500015258789,-19.874000549316406 C45.845001220703125,-26.145000457763672 41.9739990234375,-31.884000778198242 37.15999984741211,-36.66999816894531 C32.33700180053711,-41.45100021362305 26.54199981689453,-45.21900177001953 20.27199935913086,-47.75299835205078 C13.99899959564209,-50.29100036621094 7.236999988555908,-51.55500030517578 0.49300000071525574,-51.505001068115234 C-6.251999855041504,-51.43199920654297 -12.96399974822998,-50.04499816894531 -19.143999099731445,-47.4109992980957 C-25.33099937438965,-44.79199981689453 -30.958999633789062,-40.92300033569336 -35.67300033569336,-36.16899871826172 C-40.38800048828125,-31.413999557495117 -44.15800094604492,-25.732999801635742 -46.691001892089844,-19.547000885009766 C-49.233001708984375,-13.36299991607666 -50.520999908447266,-6.683000087738037 -50.50899887084961,-0.003000000026077032 C-50.51300048828125,6.677000045776367 -49.23099899291992,13.355999946594238 -46.6879997253418,19.540000915527344 C-44.154998779296875,25.72599983215332 -40.38600158691406,31.4060001373291 -35.67100143432617,36.1609992980957 C-30.95199966430664,40.90800094604492 -25.329999923706055,44.78099822998047 -19.142000198364258,47.39899826049805 C-12.963000297546387,50.03300094604492 -6.250999927520752,51.41999816894531 0.49300000071525574,51.494998931884766 C7.236000061035156,51.54499816894531 13.998000144958496,50.28099822998047 20.270000457763672,47.74399948120117 C26.540000915527344,45.209999084472656 32.33399963378906,41.441001892089844 37.159000396728516,36.66400146484375 C41.972999572753906,31.87700080871582 45.84400177001953,26.138999938964844 48.46500015258789,19.868000030517578 C51.095001220703125,13.598999977111816 52.457000732421875,6.804999828338623 52.49300003051758,-0.003000000026077032 C52.49300003051758,-0.003000000026077032 52.49300003051758,-0.003000000026077032 52.49300003051758,-0.003000000026077032 C52.49300003051758,-0.003000000026077032 52.49300003051758,-0.003000000026077032 52.49300003051758,-0.003000000026077032 C52.49300003051758,-0.003000000026077032 52.49300003051758,-0.003000000026077032 52.49300003051758,-0.003000000026077032z M52.49300003051758,-0.003000000026077032 C52.50600051879883,6.804999828338623 51.191001892089844,13.619000434875488 48.5989990234375,19.923999786376953 C46.01599884033203,26.231000900268555 42.17300033569336,32.02199935913086 37.36600112915039,36.869998931884766 C32.55799865722656,41.7130012512207 26.82200050354004,45.65800094604492 20.51300048828125,48.327999114990234 C14.211999893188477,51.012001037597656 7.366000175476074,52.42499923706055 0.49300000071525574,52.499000549316406 C-6.380000114440918,52.54999923706055 -13.274999618530273,51.26100158691406 -19.670000076293945,48.672000885009766 C-26.06100082397461,46.08700180053711 -31.968000411987305,42.24700164794922 -36.88199996948242,37.37200164794922 C-41.78900146484375,32.49399948120117 -45.733001708984375,26.645000457763672 -48.40399932861328,20.250999450683594 C-51.08300018310547,13.861000061035156 -52.47700119018555,6.934000015258789 -52.505001068115234,-0.003000000026077032 C-52.46900177001953,-6.940000057220459 -51.08100128173828,-13.866000175476074 -48.4010009765625,-20.256000518798828 C-45.72999954223633,-26.64900016784668 -41.7859992980957,-32.49800109863281 -36.880001068115234,-37.375999450683594 C-31.961000442504883,-42.24399948120117 -26.05900001525879,-46.0890007019043 -19.66699981689453,-48.672000885009766 C-13.27400016784668,-51.26100158691406 -6.379000186920166,-52.54999923706055 0.49300000071525574,-52.500999450683594 C7.364999771118164,-52.426998138427734 14.211000442504883,-51.013999938964844 20.511999130249023,-48.33000183105469 C26.820999145507812,-45.6609992980957 32.555999755859375,-41.715999603271484 37.3650016784668,-36.875 C42.172000885009766,-32.02799987792969 46.01499938964844,-26.23699951171875 48.597999572753906,-19.929000854492188 C51.191001892089844,-13.625 52.505001068115234,-6.810999870300293 52.49300003051758,-0.003000000026077032 C52.49300003051758,-0.003000000026077032 52.49300003051758,-0.003000000026077032 52.49300003051758,-0.003000000026077032 C52.49300003051758,-0.003000000026077032 52.49300003051758,-0.003000000026077032 52.49300003051758,-0.003000000026077032 C52.49300003051758,-0.003000000026077032 52.49300003051758,-0.003000000026077032 52.49300003051758,-0.003000000026077032z"></path><g opacity="1" transform="matrix(1,0,0,1,0,0)"></g><g opacity="1" transform="matrix(1,0,0,1,0,0)"></g></g></g></g><mask id="__lottie_element_603_1" mask-type="alpha"><use xlink:href="#__lottie_element_603"></use></mask><clipPath id="__lottie_element_611"><path d="M0,0 L108,0 L108,108 L0,108z"></path></clipPath><clipPath id="__lottie_element_615"><path d="M0,0 L108,0 L108,108 L0,108z"></path></clipPath><g id="__lottie_element_618"><g transform="matrix(1,0,0,1,54,54)" opacity="1" style="display: block;"><path fill="rgb(0,0,0)" fill-opacity="1" d=" M61,-61 C61,-61 61,61 61,61 C61,61 -61,61 -61,61 C-61,61 -61,-61 -61,-61 C-61,-61 61,-61 61,-61z"></path></g></g><mask id="__lottie_element_618_1" mask-type="alpha"><use xlink:href="#__lottie_element_618"></use></mask><clipPath id="__lottie_element_629"><path d="M0,0 L107,0 L107,108 L0,108z"></path></clipPath><clipPath id="__lottie_element_633"><path d="M0,0 L107,0 L107,108 L0,108z"></path></clipPath><g id="__lottie_element_636"><g transform="matrix(1,0,0,1,54,54)" opacity="1" style="display: block;"><g opacity="1" transform="matrix(1,0,0,1,0,0)"><path fill="rgb(0,0,0)" fill-opacity="1" d=" M53,-53 C53,-53 53,53 53,53 C53,53 -53,53 -53,53 C-53,53 -53,-53 -53,-53 C-53,-53 53,-53 53,-53z"></path></g></g></g><mask id="__lottie_element_636_1" mask-type="alpha"><use xlink:href="#__lottie_element_636"></use></mask><clipPath id="__lottie_element_644"><path d="M0,0 L110,0 L110,111 L0,111z"></path></clipPath><clipPath id="__lottie_element_648"><path d="M0,0 L110,0 L110,111 L0,111z"></path></clipPath><g id="__lottie_element_651"><g transform="matrix(1,0,0,1,56,56.5)" opacity="1" style="display: block;"><path fill="rgb(0,0,0)" fill-opacity="1" d=" M62,-61.5 C62,-61.5 62,61.5 62,61.5 C62,61.5 -62,61.5 -62,61.5 C-62,61.5 -62,-61.5 -62,-61.5 C-62,-61.5 62,-61.5 62,-61.5z"></path></g></g><mask id="__lottie_element_651_1" mask-type="alpha"><use xlink:href="#__lottie_element_651"></use></mask><clipPath id="__lottie_element_667"><path d="M0,0 L80,0 L80,92 L0,92z"></path></clipPath><g id="__lottie_element_670"><g transform="matrix(1,0,0,1,0.5009994506835938,0.4369964599609375)" opacity="1" style="display: block;"><g opacity="1" transform="matrix(1,0,0,1,40.24800109863281,45.81399917602539)"><path fill="rgb(255,255,255)" fill-opacity="1" d=" M39,0 C39,-24.85300064086914 21.538999557495117,-45 0,-45 C-21.538999557495117,-45 -39,-24.85300064086914 -39,0 C-39,24.85300064086914 -21.538999557495117,45 0,45 C21.538999557495117,45 39,24.85300064086914 39,0 C39,0 39,0 39,0 C39,0 39,0 39,0 C39,0 39,0 39,0z"></path></g><g opacity="1" transform="matrix(1,0,0,1,39.75699996948242,45.81700134277344)"><path fill="rgb(19,19,19)" fill-opacity="1" d=" M39.49100112915039,-0.003000000026077032 C39.4109992980957,-10.993000030517578 35.8380012512207,-22.030000686645508 28.884000778198242,-30.552000045776367 C25.42300033569336,-34.801998138427734 21.094999313354492,-38.345001220703125 16.224000930786133,-40.80099868774414 C11.357000350952148,-43.26100158691406 5.921999931335449,-44.56999969482422 0.4909999966621399,-44.50400161743164 C-4.940999984741211,-44.44599914550781 -10.312999725341797,-43.016998291015625 -15.071999549865723,-40.472999572753906 C-19.849000930786133,-37.941001892089844 -23.993999481201172,-34.32099914550781 -27.35099983215332,-30.107999801635742 C-34.11600112915039,-21.663999557495117 -37.527000427246094,-10.78499984741211 -37.51100158691406,-0.003000000026077032 C-37.52000045776367,10.777999877929688 -34.1150016784668,21.656999588012695 -27.349000930786133,30.10099983215332 C-23.98699951171875,34.30699920654297 -19.847000122070312,37.930999755859375 -15.069999694824219,40.46200180053711 C-10.310999870300293,43.005001068115234 -4.940000057220459,44.43600082397461 0.4909999966621399,44.49599838256836 C5.921000003814697,44.56100082397461 11.355999946594238,43.25299835205078 16.222000122070312,40.792999267578125 C21.0939998626709,38.3380012512207 25.420000076293945,34.79499816894531 28.882999420166016,30.54800033569336 C35.83700180053711,22.025999069213867 39.4109992980957,10.987000465393066 39.49100112915039,-0.003000000026077032 C39.49100112915039,-0.003000000026077032 39.49100112915039,-0.003000000026077032 39.49100112915039,-0.003000000026077032 C39.49100112915039,-0.003000000026077032 39.49100112915039,-0.003000000026077032 39.49100112915039,-0.003000000026077032 C39.49100112915039,-0.003000000026077032 39.49100112915039,-0.003000000026077032 39.49100112915039,-0.003000000026077032z M39.49100112915039,-0.003000000026077032 C39.50699996948242,10.987000465393066 36.034000396728516,22.089000701904297 29.110000610351562,30.729999542236328 C25.67300033569336,35.03900146484375 21.42300033569336,38.75400161743164 16.511999130249023,41.35499954223633 C11.619000434875488,43.96900177001953 6.083000183105469,45.441001892089844 0.4909999966621399,45.499000549316406 C-5.099999904632568,45.566001892089844 -10.699000358581543,44.215999603271484 -15.699999809265137,41.68600082397461 C-20.70599937438965,39.1609992980957 -25.142000198364258,35.527000427246094 -28.68000030517578,31.17799949645996 C-35.79100036621094,22.457000732421875 -39.433998107910156,11.196000099182129 -39.50699996948242,-0.003000000026077032 C-39.426998138427734,-11.201000213623047 -35.790000915527344,-22.461000442504883 -28.67799949645996,-31.180999755859375 C-25.134000778198242,-35.52399826049805 -20.70400047302246,-39.1619987487793 -15.696999549865723,-41.68600082397461 C-10.697999954223633,-44.21500015258789 -5.098999977111816,-45.566001892089844 0.4909999966621399,-45.5 C6.081999778747559,-45.44200134277344 11.616999626159668,-43.97100067138672 16.51099967956543,-41.358001708984375 C21.422000885009766,-38.757999420166016 25.66900062561035,-35.04199981689453 29.108999252319336,-30.733999252319336 C36.03300094604492,-22.093000411987305 39.50699996948242,-10.993000030517578 39.49100112915039,-0.003000000026077032 C39.49100112915039,-0.003000000026077032 39.49100112915039,-0.003000000026077032 39.49100112915039,-0.003000000026077032 C39.49100112915039,-0.003000000026077032 39.49100112915039,-0.003000000026077032 39.49100112915039,-0.003000000026077032 C39.49100112915039,-0.003000000026077032 39.49100112915039,-0.003000000026077032 39.49100112915039,-0.003000000026077032z"></path><g opacity="1" transform="matrix(1,0,0,1,0,0)"></g><g opacity="1" transform="matrix(1,0,0,1,0,0)"></g></g></g></g><mask id="__lottie_element_670_1" mask-type="alpha"><use xlink:href="#__lottie_element_670"></use></mask><clipPath id="__lottie_element_678"><path d="M0,0 L83,0 L83,94 L0,94z"></path></clipPath><clipPath id="__lottie_element_682"><path d="M0,0 L83,0 L83,94 L0,94z"></path></clipPath><g id="__lottie_element_685"><g transform="matrix(1,0,0,1,42,48)" opacity="1" style="display: block;"><path fill="rgb(0,0,0)" fill-opacity="1" d=" M48,-54 C48,-54 48,54 48,54 C48,54 -48,54 -48,54 C-48,54 -48,-54 -48,-54 C-48,-54 48,-54 48,-54z"></path></g></g><mask id="__lottie_element_685_1" mask-type="alpha"><use xlink:href="#__lottie_element_685"></use></mask><clipPath id="__lottie_element_696"><path d="M0,0 L80,0 L80,94 L0,94z"></path></clipPath><clipPath id="__lottie_element_700"><path d="M0,0 L80,0 L80,94 L0,94z"></path></clipPath><g id="__lottie_element_703"><g transform="matrix(1,0,0,1,40,47)" opacity="1" style="display: block;"><g opacity="1" transform="matrix(1,0,0,1,0,0)"><path fill="rgb(0,0,0)" fill-opacity="1" d=" M40,-46 C40,-46 40,46 40,46 C40,46 -40,46 -40,46 C-40,46 -40,-46 -40,-46 C-40,-46 40,-46 40,-46z"></path></g></g></g><mask id="__lottie_element_703_1" mask-type="alpha"><use xlink:href="#__lottie_element_703"></use></mask><clipPath id="__lottie_element_711"><path d="M0,0 L82,0 L82,97 L0,97z"></path></clipPath><clipPath id="__lottie_element_715"><path d="M0,0 L82,0 L82,97 L0,97z"></path></clipPath><g id="__lottie_element_718"><g transform="matrix(1,0,0,1,42,49)" opacity="1" style="display: block;"><path fill="rgb(0,0,0)" fill-opacity="1" d=" M48,-54 C48,-54 48,54 48,54 C48,54 -48,54 -48,54 C-48,54 -48,-54 -48,-54 C-48,-54 48,-54 48,-54z"></path></g></g><mask id="__lottie_element_718_1" mask-type="alpha"><use xlink:href="#__lottie_element_718"></use></mask></defs><g clip-path="url(#__lottie_element_543)"><g transform="matrix(0.8750510215759277,0,0,0.8700421452522278,3.209658622741699,35.25815963745117)" opacity="1" style="display: block;"><path stroke-linecap="butt" stroke-linejoin="miter" fill-opacity="0" stroke-miterlimit="4" stroke="rgb(0,0,0)" stroke-opacity="1" stroke-width="4" d=" M159.56,135.37 C159.56,135.37 36.76,135.37 36.76,135.37 C36.76,135.37 36.76,192.65 36.76,192.65 C36.76,192.65 159.56,192.65 159.56,192.65 C159.56,192.65 159.56,135.37 159.56,135.37 C159.56,135.37 159.56,135.37 159.56,135.37 C159.56,135.37 159.56,135.37 159.56,135.37 C159.56,135.37 159.56,135.37 159.56,135.37z M98,186.75 C98,186.75 98,186.75 98,186.75 C64.21,186.75 36.57,161.78 36.57,131.26 C36.57,131.26 36.57,64.68 36.57,64.68 C36.57,34.16 64.21,9.19 98,9.19 C131.78,9.19 159.42,34.16 159.42,64.68 C159.42,64.68 159.42,131.26 159.42,131.26 C159.42,161.78 131.78,186.75 98,186.75 C98,186.75 98,186.75 98,186.75 C98,186.75 98,186.75 98,186.75 C98,186.75 98,186.75 98,186.75z M55.19,184.82 C55.19,184.82 55.19,184.82 55.19,184.82 C46.35,184.82 39.13,177.6 39.13,168.77 C39.13,168.77 39.13,142.72 39.13,142.72 C39.13,133.89 46.35,126.67 55.19,126.67 C64.02,126.67 71.24,133.89 71.24,142.72 C71.24,142.72 71.24,168.77 71.24,168.77 C71.24,177.6 64.02,184.82 55.19,184.82 C55.19,184.82 55.19,184.82 55.19,184.82 C55.19,184.82 55.19,184.82 55.19,184.82 C55.19,184.82 55.19,184.82 55.19,184.82z M55.06,159.46 C55.06,159.46 55.06,159.46 55.06,159.46 C46.23,159.46 39,152.23 39,143.4 C39,143.4 39,117.36 39,117.36 C39,108.52 46.23,101.3 55.06,101.3 C63.89,101.3 71.12,108.52 71.12,117.36 C71.12,117.36 71.12,143.4 71.12,143.4 C71.12,152.23 63.89,159.46 55.06,159.46 C55.06,159.46 55.06,159.46 55.06,159.46 C55.06,159.46 55.06,159.46 55.06,159.46 C55.06,159.46 55.06,159.46 55.06,159.46z M139.99,186.75 C139.99,186.75 139.99,186.75 139.99,186.75 C131.16,186.75 123.94,179.52 123.94,170.69 C123.94,170.69 123.94,144.65 123.94,144.65 C123.94,135.81 131.16,128.59 139.99,128.59 C148.83,128.59 156.05,135.81 156.05,144.65 C156.05,144.65 156.05,170.69 156.05,170.69 C156.05,179.52 148.83,186.75 139.99,186.75 C139.99,186.75 139.99,186.75 139.99,186.75 C139.99,186.75 139.99,186.75 139.99,186.75 C139.99,186.75 139.99,186.75 139.99,186.75z M140.05,160.58 C140.05,160.58 140.05,160.58 140.05,160.58 C131.22,160.58 123.99,153.35 123.99,144.52 C123.99,144.52 123.99,118.48 123.99,118.48 C123.99,109.65 131.22,102.42 140.05,102.42 C148.89,102.42 156.11,109.65 156.11,118.48 C156.11,118.48 156.11,144.52 156.11,144.52 C156.11,153.35 148.89,160.58 140.05,160.58 C140.05,160.58 140.05,160.58 140.05,160.58 C140.05,160.58 140.05,160.58 140.05,160.58 C140.05,160.58 140.05,160.58 140.05,160.58z M70.31,64.71 C71.48,66.05 72.76,67.27 74.13,68.37 C75.48,69.48 76.93,70.45 78.43,71.29 C81.45,72.96 84.74,74.06 88.14,74.37 C88.56,74.43 88.99,74.43 89.41,74.45 C89.41,74.45 90.05,74.49 90.05,74.49 C90.26,74.49 90.48,74.48 90.69,74.48 C91.12,74.46 91.55,74.48 91.97,74.45 C91.97,74.45 93.25,74.34 93.25,74.34 C94.96,74.14 96.66,73.85 98.33,73.38 C101.68,72.47 104.93,71.08 108.13,69.5 C105.35,71.74 102.19,73.55 98.77,74.77 C98.34,74.92 97.91,75.08 97.48,75.22 C97.48,75.22 96.16,75.57 96.16,75.57 C95.72,75.7 95.27,75.79 94.82,75.87 C94.37,75.95 93.92,76.06 93.47,76.1 C91.65,76.37 89.79,76.39 87.96,76.23 C84.27,75.9 80.7,74.56 77.67,72.54 C76.14,71.53 74.75,70.35 73.51,69.04 C72.27,67.72 71.15,66.29 70.31,64.71 C70.31,64.71 70.31,64.71 70.31,64.71 C70.31,64.71 70.31,64.71 70.31,64.71 C70.31,64.71 70.31,64.71 70.31,64.71z M108.26,45.14 C108.26,39.33 103.2,34.62 96.96,34.62 C90.72,34.62 85.65,39.33 85.65,45.14 C85.65,50.94 90.72,55.65 96.96,55.65 C103.2,55.65 108.26,50.94 108.26,45.14 C108.26,45.14 108.26,45.14 108.26,45.14 C108.26,45.14 108.26,45.14 108.26,45.14 C108.26,45.14 108.26,45.14 108.26,45.14z M108.26,45.14 C108.26,43.76 107.96,42.38 107.39,41.12 C106.82,39.85 105.98,38.69 104.93,37.72 C103.88,36.75 102.62,35.99 101.26,35.48 C99.9,34.97 98.43,34.71 96.96,34.72 C95.49,34.74 94.03,35.02 92.69,35.55 C91.35,36.08 90.12,36.86 89.1,37.82 C88.07,38.78 87.25,39.93 86.7,41.18 C86.15,42.43 85.87,43.78 85.87,45.14 C85.87,46.49 86.15,47.84 86.7,49.09 C87.25,50.34 88.07,51.49 89.1,52.45 C90.12,53.41 91.35,54.19 92.69,54.72 C94.03,55.25 95.49,55.53 96.96,55.55 C98.43,55.56 99.9,55.3 101.26,54.79 C102.62,54.28 103.88,53.51 104.93,52.55 C105.98,51.58 106.82,50.42 107.39,49.15 C107.96,47.89 108.26,46.51 108.26,45.14 C108.26,45.14 108.26,45.14 108.26,45.14 C108.26,45.14 108.26,45.14 108.26,45.14 C108.26,45.14 108.26,45.14 108.26,45.14z M108.26,45.14 C108.27,46.51 107.98,47.89 107.42,49.16 C106.86,50.44 106.02,51.61 104.98,52.59 C103.93,53.57 102.68,54.37 101.31,54.91 C99.94,55.45 98.45,55.74 96.96,55.75 C95.47,55.76 93.97,55.5 92.58,54.98 C91.19,54.45 89.9,53.68 88.83,52.69 C87.77,51.71 86.91,50.52 86.33,49.23 C85.75,47.94 85.44,46.54 85.44,45.14 C85.45,43.73 85.75,42.33 86.33,41.04 C86.91,39.75 87.77,38.57 88.83,37.58 C89.9,36.59 91.19,35.82 92.58,35.29 C93.97,34.77 95.47,34.51 96.96,34.52 C98.45,34.54 99.94,34.82 101.31,35.36 C102.68,35.9 103.93,36.7 104.98,37.68 C106.02,38.66 106.86,39.83 107.42,41.11 C107.98,42.38 108.27,43.76 108.26,45.14 C108.26,45.14 108.26,45.14 108.26,45.14 C108.26,45.14 108.26,45.14 108.26,45.14 C108.26,45.14 108.26,45.14 108.26,45.14z M139.51,45.51 C139.51,40.48 135.71,36.41 131.03,36.41 C126.35,36.41 122.55,40.48 122.55,45.51 C122.55,50.53 126.35,54.61 131.03,54.61 C135.71,54.61 139.51,50.53 139.51,45.51 C139.51,45.51 139.51,45.51 139.51,45.51 C139.51,45.51 139.51,45.51 139.51,45.51 C139.51,45.51 139.51,45.51 139.51,45.51z M139.51,45.51 C139.49,43.29 138.72,41.06 137.2,39.33 C136.45,38.47 135.51,37.76 134.45,37.26 C133.39,36.76 132.21,36.5 131.03,36.51 C129.85,36.52 128.68,36.81 127.65,37.33 C126.61,37.84 125.71,38.57 124.98,39.42 C123.51,41.13 122.77,43.33 122.77,45.51 C122.77,47.69 123.51,49.89 124.98,51.6 C125.71,52.45 126.61,53.18 127.65,53.69 C128.68,54.21 129.85,54.49 131.03,54.51 C132.21,54.52 133.39,54.26 134.45,53.76 C135.51,53.26 136.45,52.55 137.2,51.69 C138.72,49.96 139.49,47.73 139.51,45.51 C139.51,45.51 139.51,45.51 139.51,45.51 C139.51,45.51 139.51,45.51 139.51,45.51 C139.51,45.51 139.51,45.51 139.51,45.51z M139.51,45.51 C139.51,47.73 138.76,49.98 137.25,51.72 C136.51,52.59 135.58,53.35 134.51,53.87 C133.45,54.4 132.25,54.7 131.03,54.71 C129.82,54.72 128.6,54.45 127.51,53.94 C126.42,53.43 125.46,52.69 124.69,51.81 C123.14,50.05 122.35,47.77 122.34,45.51 C122.35,43.25 123.14,40.97 124.69,39.21 C125.46,38.33 126.42,37.59 127.51,37.08 C128.6,36.57 129.82,36.3 131.03,36.31 C132.25,36.32 133.45,36.62 134.51,37.15 C135.58,37.67 136.51,38.43 137.25,39.3 C138.76,41.04 139.51,43.29 139.51,45.51 C139.51,45.51 139.51,45.51 139.51,45.51 C139.51,45.51 139.51,45.51 139.51,45.51 C139.51,45.51 139.51,45.51 139.51,45.51z M108.08,69.43 C108.08,69.43 107.65,71.93 105.86,74.76 C105.85,74.78 105.84,74.8 105.82,74.83 C102.53,80.01 94.72,86.22 76.82,80.21 C76.46,80.08 76.12,79.94 75.79,79.78 C67.03,75.68 70.5,65.11 70.5,65.11 C70.5,65.11 72.51,67.55 76.9,69.64 C82.76,72.42 92.86,74.57 108.08,69.43 C108.08,69.43 108.08,69.43 108.08,69.43 C108.08,69.43 108.08,69.43 108.08,69.43 C108.08,69.43 108.08,69.43 108.08,69.43z M108.08,69.43 C108.08,69.43 107.65,71.93 105.86,74.76 C100.03,75.73 86.48,77.57 77.52,75.39 C77.52,75.39 76.41,72.74 76.9,69.64 C82.76,72.42 92.86,74.57 108.08,69.43 C108.08,69.43 108.08,69.43 108.08,69.43 C108.08,69.43 108.08,69.43 108.08,69.43 C108.08,69.43 108.08,69.43 108.08,69.43z M105.32,75.46 C102.03,80.63 94.72,86.22 76.82,80.21 C76.46,80.08 76.12,79.94 75.79,79.78 C75.79,79.78 77.2,76.29 77.2,76.29 C90.06,78.92 102.69,76.25 105.32,75.46 C105.32,75.46 105.32,75.46 105.32,75.46 C105.32,75.46 105.32,75.46 105.32,75.46 C105.32,75.46 105.32,75.46 105.32,75.46z M38.18,28.53 C38.18,28.53 38.13,34.05 38.13,34.05 C38.13,34.05 67,33.44 67,33.44 C67,33.44 75.64,66.2 96.99,64.57 C112.81,62.9 117.1,45 117.1,45 C117.1,45 123.1,63.94 140.52,62.6 C157.93,61.26 163.72,28.2 163.72,28.2 C163.72,28.2 38.18,28.53 38.18,28.53 C38.18,28.53 38.18,28.53 38.18,28.53 C38.18,28.53 38.18,28.53 38.18,28.53 C38.18,28.53 38.18,28.53 38.18,28.53z M105.33,56.4 C102.65,59.45 99.08,61.48 94.36,61.26 C93.49,61.22 92.64,61.11 91.83,60.94 C76.94,57.83 72.94,34.13 72.94,34.13 C72.94,34.13 85.58,34 85.58,34 C85.58,34 99.05,33.87 99.05,33.87 C99.05,33.87 113.38,33.72 113.38,33.72 C113.38,33.72 112.31,48.49 105.33,56.4 C105.33,56.4 105.33,56.4 105.33,56.4 C105.33,56.4 105.33,56.4 105.33,56.4 C105.33,56.4 105.33,56.4 105.33,56.4z M145.19,57.44 C143.22,58.71 140.97,59.46 138.42,59.4 C136.96,59.36 135.61,59.1 134.35,58.65 C122.38,54.37 119,33.24 119,33.24 C119,33.24 131.18,33.17 131.18,33.17 C131.18,33.17 142.37,33.11 142.37,33.11 C142.37,33.11 157.74,33.03 157.74,33.03 C157.74,33.03 154.68,51.34 145.19,57.44 C145.19,57.44 145.19,57.44 145.19,57.44 C145.19,57.44 145.19,57.44 145.19,57.44 C145.19,57.44 145.19,57.44 145.19,57.44z M105.33,56.4 C102.65,59.45 99.08,61.48 94.36,61.26 C93.49,61.22 92.64,61.11 91.83,60.94 C94.67,55.88 96.43,50 88.51,50.92 C75.14,50.06 83.32,37.21 85.58,34 C85.58,34 99.05,33.87 99.05,33.87 C95.61,37.54 84.79,50.05 97.75,48.98 C104.42,48.43 105.84,52.1 105.33,56.4 C105.33,56.4 105.33,56.4 105.33,56.4 C105.33,56.4 105.33,56.4 105.33,56.4 C105.33,56.4 105.33,56.4 105.33,56.4z M145.19,57.44 C143.22,58.71 140.97,59.46 138.42,59.4 C136.96,59.36 135.61,59.1 134.35,58.65 C137.22,53.74 139.22,48.07 132.59,48.79 C122.66,47.72 128.34,37.46 131.18,33.17 C131.18,33.17 142.37,33.11 142.37,33.11 C138.54,37.45 130.39,47.78 140.48,47.1 C147.3,46.64 146.97,52.19 145.19,57.44 C145.19,57.44 145.19,57.44 145.19,57.44 C145.19,57.44 145.19,57.44 145.19,57.44 C145.19,57.44 145.19,57.44 145.19,57.44z M158.91,96.7 C158.91,96.7 184.99,93.86 191.99,91.89 C198.99,89.93 198.14,88.49 195.4,86.79 C192.67,85.1 191.1,78.44 196.66,77.33 C202.21,76.21 202.97,87.79 202.97,87.79 C202.97,87.79 222.87,93.62 204.25,107.22 C185.63,120.83 159.18,123.69 159.18,123.69 M201.35,91.65 C201.35,91.65 193.26,94.06 198.43,104.23 M99.6,98.59 C99.6,98.59 152.77,100.1 169.25,94.87 C169.25,94.87 174.11,93.74 168.12,90 C162.13,86.25 169.62,78.77 172.99,82.51 C176.36,86.26 176.73,92.62 176.73,92.62 C176.73,92.62 192.08,98.24 181.6,107.97 C171.11,117.71 143.78,127.81 117.19,129.67"></path><g opacity="1" transform="matrix(0.3744184076786041,0,0,0.3744184076786041,-69.76666259765625,-59.88977813720703)"><g opacity="1" transform="matrix(1,0,0,1,283.7509765625,184.25)"><g opacity="1" transform="matrix(1,0,0,1,164.74899291992188,413.7392883300781)"></g><g opacity="1" transform="matrix(1,0,0,1,164.3114776611328,237.35897827148438)"></g><g opacity="1" transform="matrix(1,0,0,1,49.972999572753906,391.66900634765625)"></g><g opacity="1" transform="matrix(1,0,0,1,49.63999938964844,323.9179992675781)"></g><g opacity="1" transform="matrix(1,0,0,1,276.48101806640625,396.802001953125)"></g><g opacity="1" transform="matrix(1,0,0,1,276.6400146484375,326.9179992675781)"></g><g opacity="0" transform="matrix(0.8571673035621643,-0.5150380730628967,0.5150380730628967,0.8571673035621643,89.80398559570312,148.58045959472656)"><g opacity="1" transform="matrix(1,0,0,1,40.375999450683594,32.395999908447266)"></g></g><g opacity="1" transform="matrix(0.5806499719619751,0,0,0.5400000214576721,130.62423706054688,67.74099731445312)"><g opacity="1" transform="matrix(1,0,0,1,53.24800109863281,52.797000885009766)"></g><g opacity="1" transform="matrix(1,0,0,1,52.755001068115234,52.79999923706055)"><g opacity="1" transform="matrix(1,0,0,1,0,0)"></g><g opacity="1" transform="matrix(1,0,0,1,0,0)"></g></g></g><g opacity="1" transform="matrix(0.5806499719619751,0,0,0.5400000214576721,229.173095703125,72.51235961914062)"><g opacity="1" transform="matrix(1,0,0,1,40.24800109863281,45.81399917602539)"></g><g opacity="1" transform="matrix(1,0,0,1,39.75699996948242,45.81700134277344)"><g opacity="1" transform="matrix(1,0,0,1,0,0)"></g><g opacity="1" transform="matrix(1,0,0,1,0,0)"></g></g></g></g><g opacity="1" transform="matrix(0.9896338582038879,0.1436135321855545,-0.1436135321855545,0.9896338582038879,361.53564453125,318.8047790527344)"><g opacity="1" transform="matrix(1,0,0,1,63.05500030517578,34.7599983215332)"></g><g opacity="1" transform="matrix(1,0,0,1,74.87999725341797,24.899999618530273)"></g><g opacity="1" transform="matrix(1,0,0,1,72.91999816894531,43.2599983215332)"></g></g><g opacity="1" transform="matrix(0.9986295104026794,-0.0523359552025795,0.0523359552025795,0.9986295104026794,287.1424865722656,235.96926879882812)"><g opacity="1" transform="matrix(1,0,0,1,168.14599609375,53.40399932861328)"></g><g opacity="1" transform="matrix(1,0,0,1,147.02999877929688,58.33100128173828)"></g><g opacity="1" transform="matrix(1,0,0,1,267.7359924316406,60.59400177001953)"></g><g opacity="1" transform="matrix(1,0,0,1,137.51499938964844,59.04600143432617)"></g><g opacity="1" transform="matrix(1,0,0,1,256.7239990234375,61.361000061035156)"></g></g><g opacity="1" transform="matrix(0.9978447556495667,-0.06561904400587082,0.06561904400587082,0.9978447556495667,601.0107421875,369.2431640625)"><g opacity="1" transform="matrix(1,0,0,1,90,62)"></g><g opacity="1" transform="matrix(1,0,0,1,109.5,60)"></g></g><g opacity="1" transform="matrix(1,0.00023590003547724336,-0.00023590003547724336,1,449.8669128417969,367.7779235839844)"><g opacity="1" transform="matrix(1,0,0,1,126,70.5)"></g></g></g></g><g transform="matrix(0.3276351988315582,0,0,0.32575979828834534,89.10465240478516,177.952392578125)" opacity="1" style="display: block;"><path fill="rgb(216,232,78)" fill-opacity="1" d=" M164,-76.49019622802734 C164,-76.49019622802734 -164,-76.49019622802734 -164,-76.49019622802734 C-164,-76.49019622802734 -164,76.49019622802734 -164,76.49019622802734 C-164,76.49019622802734 164,76.49019622802734 164,76.49019622802734 C164,76.49019622802734 164,-76.49019622802734 164,-76.49019622802734 C164,-76.49019622802734 164,-76.49019622802734 164,-76.49019622802734 C164,-76.49019622802734 164,-76.49019622802734 164,-76.49019622802734 C164,-76.49019622802734 164,-76.49019622802734 164,-76.49019622802734z"></path></g><g transform="matrix(0.3276351988315582,0,0,0.32575979828834534,88.9613037109375,120.49478149414062)" opacity="1" style="display: block;"><path fill="rgb(216,232,78)" fill-opacity="1" d=" M0,237.10906982421875 C0,237.10906982421875 0,237.10906982421875 0,237.10906982421875 C-90.23400115966797,237.10906982421875 -164.06199645996094,170.42225646972656 -164.06199645996094,88.91635131835938 C-164.06199645996094,88.91635131835938 -164.06199645996094,-88.91545104980469 -164.06199645996094,-88.91545104980469 C-164.06199645996094,-170.42225646972656 -90.23400115966797,-237.10906982421875 0,-237.10906982421875 C90.23400115966797,-237.10906982421875 164.06199645996094,-170.42225646972656 164.06199645996094,-88.91545104980469 C164.06199645996094,-88.91545104980469 164.06199645996094,88.91635131835938 164.06199645996094,88.91635131835938 C164.06199645996094,170.42225646972656 90.23400115966797,237.10906982421875 0,237.10906982421875 C0,237.10906982421875 0,237.10906982421875 0,237.10906982421875 C0,237.10906982421875 0,237.10906982421875 0,237.10906982421875 C0,237.10906982421875 0,237.10906982421875 0,237.10906982421875z"></path></g><g transform="matrix(0.3276351988315582,0,0,0.32575979828834534,51.49999237060547,170.76278686523438)" opacity="1" style="display: block;"><path fill="rgb(216,232,78)" fill-opacity="1" d=" M0,77.66600036621094 C0,77.66600036621094 0,77.66600036621094 0,77.66600036621094 C-23.59000015258789,77.66600036621094 -42.89099884033203,58.3650016784668 -42.89099884033203,34.775001525878906 C-42.89099884033203,34.775001525878906 -42.89099884033203,-34.775001525878906 -42.89099884033203,-34.775001525878906 C-42.89099884033203,-58.36600112915039 -23.59000015258789,-77.66600036621094 0,-77.66600036621094 C23.59000015258789,-77.66600036621094 42.89099884033203,-58.36600112915039 42.89099884033203,-34.775001525878906 C42.89099884033203,-34.775001525878906 42.89099884033203,34.775001525878906 42.89099884033203,34.775001525878906 C42.89099884033203,58.3650016784668 23.59000015258789,77.66600036621094 0,77.66600036621094 C0,77.66600036621094 0,77.66600036621094 0,77.66600036621094 C0,77.66600036621094 0,77.66600036621094 0,77.66600036621094 C0,77.66600036621094 0,77.66600036621094 0,77.66600036621094z"></path></g><g transform="matrix(0.3276351988315582,0,0,0.32575979828834534,51.39089584350586,148.69223022460938)" opacity="1" style="display: block;"><path fill="rgb(216,232,78)" fill-opacity="1" d=" M0,77.66600036621094 C0,77.66600036621094 0,77.66600036621094 0,77.66600036621094 C-23.59000015258789,77.66600036621094 -42.89099884033203,58.36600112915039 -42.89099884033203,34.777000427246094 C-42.89099884033203,34.777000427246094 -42.89099884033203,-34.775001525878906 -42.89099884033203,-34.775001525878906 C-42.89099884033203,-58.3650016784668 -23.59000015258789,-77.66600036621094 0,-77.66600036621094 C23.59000015258789,-77.66600036621094 42.89099884033203,-58.3650016784668 42.89099884033203,-34.775001525878906 C42.89099884033203,-34.775001525878906 42.89099884033203,34.777000427246094 42.89099884033203,34.777000427246094 C42.89099884033203,58.36600112915039 23.59000015258789,77.66600036621094 0,77.66600036621094 C0,77.66600036621094 0,77.66600036621094 0,77.66600036621094 C0,77.66600036621094 0,77.66600036621094 0,77.66600036621094 C0,77.66600036621094 0,77.66600036621094 0,77.66600036621094z"></path></g><g transform="matrix(0.3276351988315582,0,0,0.32575979828834534,125.71199798583984,172.43492126464844)" opacity="1" style="display: block;"><path fill="rgb(216,232,78)" fill-opacity="1" d=" M0,77.66600036621094 C0,77.66600036621094 0,77.66600036621094 0,77.66600036621094 C-23.59000015258789,77.66600036621094 -42.89099884033203,58.3650016784668 -42.89099884033203,34.775001525878906 C-42.89099884033203,34.775001525878906 -42.89099884033203,-34.775001525878906 -42.89099884033203,-34.775001525878906 C-42.89099884033203,-58.36600112915039 -23.59000015258789,-77.66600036621094 0,-77.66600036621094 C23.59000015258789,-77.66600036621094 42.89099884033203,-58.36600112915039 42.89099884033203,-34.775001525878906 C42.89099884033203,-34.775001525878906 42.89099884033203,34.775001525878906 42.89099884033203,34.775001525878906 C42.89099884033203,58.3650016784668 23.59000015258789,77.66600036621094 0,77.66600036621094 C0,77.66600036621094 0,77.66600036621094 0,77.66600036621094 C0,77.66600036621094 0,77.66600036621094 0,77.66600036621094 C0,77.66600036621094 0,77.66600036621094 0,77.66600036621094z"></path></g><g transform="matrix(0.3276351988315582,0,0,0.32575979828834534,125.76409149169922,149.6695098876953)" opacity="1" style="display: block;"><path fill="rgb(216,232,78)" fill-opacity="1" d=" M0,77.66600036621094 C0,77.66600036621094 0,77.66600036621094 0,77.66600036621094 C-23.59000015258789,77.66600036621094 -42.89099884033203,58.36600112915039 -42.89099884033203,34.777000427246094 C-42.89099884033203,34.777000427246094 -42.89099884033203,-34.775001525878906 -42.89099884033203,-34.775001525878906 C-42.89099884033203,-58.3650016784668 -23.59000015258789,-77.66600036621094 0,-77.66600036621094 C23.59000015258789,-77.66600036621094 42.89099884033203,-58.3650016784668 42.89099884033203,-34.775001525878906 C42.89099884033203,-34.775001525878906 42.89099884033203,34.777000427246094 42.89099884033203,34.777000427246094 C42.89099884033203,58.36600112915039 23.59000015258789,77.66600036621094 0,77.66600036621094 C0,77.66600036621094 0,77.66600036621094 0,77.66600036621094 C0,77.66600036621094 0,77.66600036621094 0,77.66600036621094 C0,77.66600036621094 0,77.66600036621094 0,77.66600036621094z"></path></g><g transform="matrix(0.2850342392921448,-0.1606311947107315,0.1615559607744217,0.2834026515483856,64.7170181274414,91.1868896484375)" opacity="0.17999999999340943" style="display: none;"><g opacity="1" transform="matrix(1,0,0,1,40.375999450683594,32.395999908447266)"><path fill="rgb(19,19,19)" fill-opacity="1" d=" M-39.87300109863281,-32.145999908447266 C-39.025001525878906,-27.458999633789062 -37.7760009765625,-22.91200065612793 -36.159000396728516,-18.524999618530273 C-34.60100173950195,-14.121999740600586 -32.62099838256836,-9.904000282287598 -30.339000701904297,-5.9039998054504395 C-25.716999053955078,2.058000087738037 -19.697999954223633,9.114999771118164 -12.335000038146973,14.480999946594238 C-11.458000183105469,15.208000183105469 -10.475000381469727,15.788999557495117 -9.538999557495117,16.43600082397461 C-9.538999557495117,16.43600082397461 -8.119999885559082,17.386999130249023 -8.119999885559082,17.386999130249023 C-7.636000156402588,17.687999725341797 -7.13100004196167,17.954999923706055 -6.640999794006348,18.2450008392334 C-5.646999835968018,18.804000854492188 -4.690999984741211,19.43000030517578 -3.6670000553131104,19.937999725341797 C-3.6670000553131104,19.937999725341797 -0.5929999947547913,21.461999893188477 -0.5929999947547913,21.461999893188477 C3.578000068664551,23.34600067138672 7.880000114440918,25.025999069213867 12.357000350952148,26.23900032043457 C21.28499984741211,28.770000457763672 30.631000518798828,30.06599998474121 40.12699890136719,30.854000091552734 C30.680999755859375,32.145999908447266 20.95599937438965,31.951000213623047 11.442999839782715,30.031999588012695 C10.256999969482422,29.77899932861328 9.057000160217285,29.576000213623047 7.877999782562256,29.280000686645508 C7.877999782562256,29.280000686645508 4.364999771118164,28.280000686645508 4.364999771118164,28.280000686645508 C3.183000087738037,27.976999282836914 2.0390000343322754,27.545000076293945 0.8939999938011169,27.114999771118164 C-0.24400000274181366,26.670000076293945 -1.4170000553131104,26.31100082397461 -2.5290000438690186,25.79199981689453 C-7.048999786376953,23.888999938964844 -11.32699966430664,21.39299964904785 -15.312000274658203,18.496999740600586 C-23.28499984741211,12.670000076293945 -29.6299991607666,4.709000110626221 -33.7859992980957,-4.105999946594238 C-35.89899826049805,-8.503999710083008 -37.45399856567383,-13.133999824523926 -38.50299835205078,-17.84600067138672 C-39.50699996948242,-22.56100082397461 -40.125999450683594,-27.368999481201172 -39.87300109863281,-32.145999908447266 C-39.87300109863281,-32.145999908447266 -39.87300109863281,-32.145999908447266 -39.87300109863281,-32.145999908447266 C-39.87300109863281,-32.145999908447266 -39.87300109863281,-32.145999908447266 -39.87300109863281,-32.145999908447266 C-39.87300109863281,-32.145999908447266 -39.87300109863281,-32.145999908447266 -39.87300109863281,-32.145999908447266z"></path></g></g><g transform="matrix(0.19024136662483215,0,0,0.17591029405593872,77.92417907714844,65.24006652832031)" opacity="1" style="display: block;"><g opacity="1" transform="matrix(1,0,0,1,53.24800109863281,52.797000885009766)"><path fill="rgb(255,255,255)" fill-opacity="1" d=" M52,0 C52,-28.7189998626709 28.7189998626709,-52 0,-52 C-28.7189998626709,-52 -52,-28.7189998626709 -52,0 C-52,28.7189998626709 -28.7189998626709,52 0,52 C28.7189998626709,52 52,28.7189998626709 52,0 C52,0 52,0 52,0 C52,0 52,0 52,0 C52,0 52,0 52,0z"></path></g><g opacity="1" transform="matrix(1,0,0,1,52.755001068115234,52.79999923706055)"><path fill="rgb(19,19,19)" fill-opacity="1" d=" M52.49300003051758,-0.003000000026077032 C52.457000732421875,-6.810999870300293 51.095001220703125,-13.604999542236328 48.46500015258789,-19.874000549316406 C45.845001220703125,-26.145000457763672 41.9739990234375,-31.884000778198242 37.15999984741211,-36.66999816894531 C32.33700180053711,-41.45100021362305 26.54199981689453,-45.21900177001953 20.27199935913086,-47.75299835205078 C13.99899959564209,-50.29100036621094 7.236999988555908,-51.55500030517578 0.49300000071525574,-51.505001068115234 C-6.251999855041504,-51.43199920654297 -12.96399974822998,-50.04499816894531 -19.143999099731445,-47.4109992980957 C-25.33099937438965,-44.79199981689453 -30.958999633789062,-40.92300033569336 -35.67300033569336,-36.16899871826172 C-40.38800048828125,-31.413999557495117 -44.15800094604492,-25.732999801635742 -46.691001892089844,-19.547000885009766 C-49.233001708984375,-13.36299991607666 -50.520999908447266,-6.683000087738037 -50.50899887084961,-0.003000000026077032 C-50.51300048828125,6.677000045776367 -49.23099899291992,13.355999946594238 -46.6879997253418,19.540000915527344 C-44.154998779296875,25.72599983215332 -40.38600158691406,31.4060001373291 -35.67100143432617,36.1609992980957 C-30.95199966430664,40.90800094604492 -25.329999923706055,44.78099822998047 -19.142000198364258,47.39899826049805 C-12.963000297546387,50.03300094604492 -6.250999927520752,51.41999816894531 0.49300000071525574,51.494998931884766 C7.236000061035156,51.54499816894531 13.998000144958496,50.28099822998047 20.270000457763672,47.74399948120117 C26.540000915527344,45.209999084472656 32.33399963378906,41.441001892089844 37.159000396728516,36.66400146484375 C41.972999572753906,31.87700080871582 45.84400177001953,26.138999938964844 48.46500015258789,19.868000030517578 C51.095001220703125,13.598999977111816 52.457000732421875,6.804999828338623 52.49300003051758,-0.003000000026077032 C52.49300003051758,-0.003000000026077032 52.49300003051758,-0.003000000026077032 52.49300003051758,-0.003000000026077032 C52.49300003051758,-0.003000000026077032 52.49300003051758,-0.003000000026077032 52.49300003051758,-0.003000000026077032 C52.49300003051758,-0.003000000026077032 52.49300003051758,-0.003000000026077032 52.49300003051758,-0.003000000026077032z M52.49300003051758,-0.003000000026077032 C52.50600051879883,6.804999828338623 51.191001892089844,13.619000434875488 48.5989990234375,19.923999786376953 C46.01599884033203,26.231000900268555 42.17300033569336,32.02199935913086 37.36600112915039,36.869998931884766 C32.55799865722656,41.7130012512207 26.82200050354004,45.65800094604492 20.51300048828125,48.327999114990234 C14.211999893188477,51.012001037597656 7.366000175476074,52.42499923706055 0.49300000071525574,52.499000549316406 C-6.380000114440918,52.54999923706055 -13.274999618530273,51.26100158691406 -19.670000076293945,48.672000885009766 C-26.06100082397461,46.08700180053711 -31.968000411987305,42.24700164794922 -36.88199996948242,37.37200164794922 C-41.78900146484375,32.49399948120117 -45.733001708984375,26.645000457763672 -48.40399932861328,20.250999450683594 C-51.08300018310547,13.861000061035156 -52.47700119018555,6.934000015258789 -52.505001068115234,-0.003000000026077032 C-52.46900177001953,-6.940000057220459 -51.08100128173828,-13.866000175476074 -48.4010009765625,-20.256000518798828 C-45.72999954223633,-26.64900016784668 -41.7859992980957,-32.49800109863281 -36.880001068115234,-37.375999450683594 C-31.961000442504883,-42.24399948120117 -26.05900001525879,-46.0890007019043 -19.66699981689453,-48.672000885009766 C-13.27400016784668,-51.26100158691406 -6.379000186920166,-52.54999923706055 0.49300000071525574,-52.500999450683594 C7.364999771118164,-52.426998138427734 14.211000442504883,-51.013999938964844 20.511999130249023,-48.33000183105469 C26.820999145507812,-45.6609992980957 32.555999755859375,-41.715999603271484 37.3650016784668,-36.875 C42.172000885009766,-32.02799987792969 46.01499938964844,-26.23699951171875 48.597999572753906,-19.929000854492188 C51.191001892089844,-13.625 52.505001068115234,-6.810999870300293 52.49300003051758,-0.003000000026077032 C52.49300003051758,-0.003000000026077032 52.49300003051758,-0.003000000026077032 52.49300003051758,-0.003000000026077032 C52.49300003051758,-0.003000000026077032 52.49300003051758,-0.003000000026077032 52.49300003051758,-0.003000000026077032 C52.49300003051758,-0.003000000026077032 52.49300003051758,-0.003000000026077032 52.49300003051758,-0.003000000026077032z"></path><g opacity="1" transform="matrix(1,0,0,1,0,0)"></g><g opacity="1" transform="matrix(1,0,0,1,0,0)"></g></g></g><g clip-path="url(#__lottie_element_576)" transform="matrix(0.3276351988315582,0,0,0.32575979828834534,70.51168060302734,57.18043899536133)" opacity="1" style="display: block;"><g mask="url(#__lottie_element_603_1)" style="display: block;"><g clip-path="url(#__lottie_element_600)" transform="matrix(1,0,0,1,0,0)" opacity="1"><g transform="matrix(1,0,0,1,-8,-8)" opacity="1" style="display: block;"><path fill="rgb(0,0,0)" fill-opacity="0" d=" M114,8 C114,8 114,114 114,114 C114,114 8,114 8,114 C8,114 8,8 8,8 C8,8 114,8 114,8z"></path></g><g clip-path="url(#__lottie_element_611)" transform="matrix(1,0,0,1,-1,-1)" opacity="1" style="display: block;"><g mask="url(#__lottie_element_618_1)" style="display: block;"><g clip-path="url(#__lottie_element_615)" transform="matrix(1,0,0,1,0,0)" opacity="1"><g transform="matrix(1,0,0,1,-7,-7)" opacity="1" style="display: block;"><path fill="rgb(0,0,0)" fill-opacity="0" d=" M115,7 C115,7 115,115 115,115 C115,115 7,115 7,115 C7,115 7,7 7,7 C7,7 115,7 115,7z"></path></g><g transform="matrix(1,0,0,1,54,54)" opacity="1" style="display: block;"><path fill="rgb(0,0,0)" fill-opacity="0" d=" M61,-61 C61,-61 61,61 61,61 C61,61 -61,61 -61,61 C-61,61 -61,-61 -61,-61 C-61,-61 61,-61 61,-61z"></path></g><g clip-path="url(#__lottie_element_629)" transform="matrix(1,0,0,1,0,0)" opacity="1" style="display: block;"><g mask="url(#__lottie_element_636_1)" style="display: block;"><g clip-path="url(#__lottie_element_633)" transform="matrix(1,0,0,1,0,0)" opacity="1"><g transform="matrix(1,0,0,1,-8,-7)" opacity="1" style="display: block;"><path fill="rgb(0,0,0)" fill-opacity="0" d=" M115,7 C115,7 115,115 115,115 C115,115 8,115 8,115 C8,115 8,7 8,7 C8,7 115,7 115,7z"></path></g><g clip-path="url(#__lottie_element_644)" transform="matrix(1,0,0,1,-2,-2)" opacity="1" style="display: block;"><g mask="url(#__lottie_element_651_1)" style="display: block;"><g clip-path="url(#__lottie_element_648)" transform="matrix(1,0,0,1,0,0)" opacity="1"><g transform="matrix(1,0,0,1,-6,-5)" opacity="1" style="display: block;"><path fill="rgb(0,0,0)" fill-opacity="0" d=" M116,5 C116,5 116,116 116,116 C116,116 6,116 6,116 C6,116 6,5 6,5 C6,5 116,5 116,5z"></path></g><g transform="matrix(1,0,0,1,56,56.5)" opacity="1" style="display: block;"><path fill="rgb(0,0,0)" fill-opacity="0" d=" M62,-61.5 C62,-61.5 62,61.5 62,61.5 C62,61.5 -62,61.5 -62,61.5 C-62,61.5 -62,-61.5 -62,-61.5 C-62,-61.5 62,-61.5 62,-61.5z"></path></g><g transform="matrix(1,0,0,1,56,56)" opacity="1" style="display: block;"><path fill="rgb(0,0,0)" fill-opacity="0" d=" M53,-53 C53,-53 53,53 53,53 C53,53 -53,53 -53,53 C-53,53 -53,-53 -53,-53 C-53,-53 53,-53 53,-53z"></path></g><g transform="matrix(1,0,0,1,72.74899291992188,58.111000061035156)" opacity="1" style="display: block;"><path fill="rgb(19,19,19)" fill-opacity="1" d=" M8,0 C8,-4.418000221252441 4.418000221252441,-8 0,-8 C-4.418000221252441,-8 -8,-4.418000221252441 -8,0 C-8,4.418000221252441 -4.418000221252441,8 0,8 C4.418000221252441,8 8,4.418000221252441 8,0 C8,0 8,0 8,0 C8,0 8,0 8,0 C8,0 8,0 8,0z"></path></g></g></g></g></g></g></g></g></g></g></g></g></g><g transform="matrix(0.19024136662483215,0,0,0.17591029405593872,110.2122573852539,66.79438018798828)" opacity="1" style="display: block;"><g opacity="1" transform="matrix(1,0,0,1,40.24800109863281,45.81399917602539)"><path fill="rgb(255,255,255)" fill-opacity="1" d=" M39,0 C39,-24.85300064086914 21.538999557495117,-45 0,-45 C-21.538999557495117,-45 -39,-24.85300064086914 -39,0 C-39,24.85300064086914 -21.538999557495117,45 0,45 C21.538999557495117,45 39,24.85300064086914 39,0 C39,0 39,0 39,0 C39,0 39,0 39,0 C39,0 39,0 39,0z"></path></g><g opacity="1" transform="matrix(1,0,0,1,39.75699996948242,45.81700134277344)"><path fill="rgb(19,19,19)" fill-opacity="1" d=" M39.49100112915039,-0.003000000026077032 C39.4109992980957,-10.993000030517578 35.8380012512207,-22.030000686645508 28.884000778198242,-30.552000045776367 C25.42300033569336,-34.801998138427734 21.094999313354492,-38.345001220703125 16.224000930786133,-40.80099868774414 C11.357000350952148,-43.26100158691406 5.921999931335449,-44.56999969482422 0.4909999966621399,-44.50400161743164 C-4.940999984741211,-44.44599914550781 -10.312999725341797,-43.016998291015625 -15.071999549865723,-40.472999572753906 C-19.849000930786133,-37.941001892089844 -23.993999481201172,-34.32099914550781 -27.35099983215332,-30.107999801635742 C-34.11600112915039,-21.663999557495117 -37.527000427246094,-10.78499984741211 -37.51100158691406,-0.003000000026077032 C-37.52000045776367,10.777999877929688 -34.1150016784668,21.656999588012695 -27.349000930786133,30.10099983215332 C-23.98699951171875,34.30699920654297 -19.847000122070312,37.930999755859375 -15.069999694824219,40.46200180053711 C-10.310999870300293,43.005001068115234 -4.940000057220459,44.43600082397461 0.4909999966621399,44.49599838256836 C5.921000003814697,44.56100082397461 11.355999946594238,43.25299835205078 16.222000122070312,40.792999267578125 C21.0939998626709,38.3380012512207 25.420000076293945,34.79499816894531 28.882999420166016,30.54800033569336 C35.83700180053711,22.025999069213867 39.4109992980957,10.987000465393066 39.49100112915039,-0.003000000026077032 C39.49100112915039,-0.003000000026077032 39.49100112915039,-0.003000000026077032 39.49100112915039,-0.003000000026077032 C39.49100112915039,-0.003000000026077032 39.49100112915039,-0.003000000026077032 39.49100112915039,-0.003000000026077032 C39.49100112915039,-0.003000000026077032 39.49100112915039,-0.003000000026077032 39.49100112915039,-0.003000000026077032z M39.49100112915039,-0.003000000026077032 C39.50699996948242,10.987000465393066 36.034000396728516,22.089000701904297 29.110000610351562,30.729999542236328 C25.67300033569336,35.03900146484375 21.42300033569336,38.75400161743164 16.511999130249023,41.35499954223633 C11.619000434875488,43.96900177001953 6.083000183105469,45.441001892089844 0.4909999966621399,45.499000549316406 C-5.099999904632568,45.566001892089844 -10.699000358581543,44.215999603271484 -15.699999809265137,41.68600082397461 C-20.70599937438965,39.1609992980957 -25.142000198364258,35.527000427246094 -28.68000030517578,31.17799949645996 C-35.79100036621094,22.457000732421875 -39.433998107910156,11.196000099182129 -39.50699996948242,-0.003000000026077032 C-39.426998138427734,-11.201000213623047 -35.790000915527344,-22.461000442504883 -28.67799949645996,-31.180999755859375 C-25.134000778198242,-35.52399826049805 -20.70400047302246,-39.1619987487793 -15.696999549865723,-41.68600082397461 C-10.697999954223633,-44.21500015258789 -5.098999977111816,-45.566001892089844 0.4909999966621399,-45.5 C6.081999778747559,-45.44200134277344 11.616999626159668,-43.97100067138672 16.51099967956543,-41.358001708984375 C21.422000885009766,-38.757999420166016 25.66900062561035,-35.04199981689453 29.108999252319336,-30.733999252319336 C36.03300094604492,-22.093000411987305 39.50699996948242,-10.993000030517578 39.49100112915039,-0.003000000026077032 C39.49100112915039,-0.003000000026077032 39.49100112915039,-0.003000000026077032 39.49100112915039,-0.003000000026077032 C39.49100112915039,-0.003000000026077032 39.49100112915039,-0.003000000026077032 39.49100112915039,-0.003000000026077032 C39.49100112915039,-0.003000000026077032 39.49100112915039,-0.003000000026077032 39.49100112915039,-0.003000000026077032z"></path><g opacity="1" transform="matrix(1,0,0,1,0,0)"></g><g opacity="1" transform="matrix(1,0,0,1,0,0)"></g></g></g><g clip-path="url(#__lottie_element_584)" transform="matrix(0.3276351988315582,0,0,0.32575979828834534,104.58574676513672,59.786521911621094)" opacity="1" style="display: block;"><g mask="url(#__lottie_element_670_1)" style="display: block;"><g clip-path="url(#__lottie_element_667)" transform="matrix(1,0,0,1,0,0)" opacity="1"><g transform="matrix(1,0,0,1,-8,-8)" opacity="1" style="display: block;"><path fill="rgb(0,0,0)" fill-opacity="0" d=" M88,8 C88,8 88,100 88,100 C88,100 8,100 8,100 C8,100 8,8 8,8 C8,8 88,8 88,8z"></path></g><g clip-path="url(#__lottie_element_678)" transform="matrix(1,0,0,1,-2,-2)" opacity="1" style="display: block;"><g mask="url(#__lottie_element_685_1)" style="display: block;"><g clip-path="url(#__lottie_element_682)" transform="matrix(1,0,0,1,0,0)" opacity="1"><g transform="matrix(1,0,0,1,-6,-6)" opacity="1" style="display: block;"><path fill="rgb(0,0,0)" fill-opacity="0" d=" M89,6 C89,6 89,100 89,100 C89,100 6,100 6,100 C6,100 6,6 6,6 C6,6 89,6 89,6z"></path></g><g transform="matrix(1,0,0,1,42,48)" opacity="1" style="display: block;"><path fill="rgb(0,0,0)" fill-opacity="0" d=" M48,-54 C48,-54 48,54 48,54 C48,54 -48,54 -48,54 C-48,54 -48,-54 -48,-54 C-48,-54 48,-54 48,-54z"></path></g><g clip-path="url(#__lottie_element_696)" transform="matrix(1,0,0,1,2,1)" opacity="1" style="display: block;"><g mask="url(#__lottie_element_703_1)" style="display: block;"><g clip-path="url(#__lottie_element_700)" transform="matrix(1,0,0,1,0,0)" opacity="1"><g transform="matrix(1,0,0,1,-8,-7)" opacity="1" style="display: block;"><path fill="rgb(0,0,0)" fill-opacity="0" d=" M88,7 C88,7 88,101 88,101 C88,101 8,101 8,101 C8,101 8,7 8,7 C8,7 88,7 88,7z"></path></g><g clip-path="url(#__lottie_element_711)" transform="matrix(1,0,0,1,-2,-2)" opacity="1" style="display: block;"><g mask="url(#__lottie_element_718_1)" style="display: block;"><g clip-path="url(#__lottie_element_715)" transform="matrix(1,0,0,1,0,0)" opacity="1"><g transform="matrix(1,0,0,1,-6,-5)" opacity="1" style="display: block;"><path fill="rgb(0,0,0)" fill-opacity="0" d=" M88,5 C88,5 88,102 88,102 C88,102 6,102 6,102 C6,102 6,5 6,5 C6,5 88,5 88,5z"></path></g><g transform="matrix(1,0,0,1,42,49)" opacity="1" style="display: block;"><path fill="rgb(0,0,0)" fill-opacity="0" d=" M48,-54 C48,-54 48,54 48,54 C48,54 -48,54 -48,54 C-48,54 -48,-54 -48,-54 C-48,-54 48,-54 48,-54z"></path></g><g transform="matrix(1,0,0,1,42,49)" opacity="1" style="display: block;"><path fill="rgb(0,0,0)" fill-opacity="0" d=" M40,-46 C40,-46 40,46 40,46 C40,46 -40,46 -40,46 C-40,46 -40,-46 -40,-46 C-40,-46 40,-46 40,-46z"></path></g><g transform="matrix(1,0,0,1,36.748992919921875,50.111000061035156)" opacity="1" style="display: block;"><path fill="rgb(19,19,19)" fill-opacity="1" d=" M8,0 C8,-4.418000221252441 4.418000221252441,-8 0,-8 C-4.418000221252441,-8 -8,-4.418000221252441 -8,0 C-8,4.418000221252441 -4.418000221252441,8 0,8 C4.418000221252441,8 8,4.418000221252441 8,0 C8,0 8,0 8,0 C8,0 8,0 8,0 C8,0 8,0 8,0z"></path></g></g></g></g></g></g></g></g></g></g></g></g></g><g transform="matrix(0.3242388963699341,0.04678351804614067,-0.04705285280942917,0.32238292694091797,60.61207580566406,87.00531005859375)" opacity="1" style="display: block;"><g opacity="1" transform="matrix(1,0,0,1,63.05500030517578,34.7599983215332)"><path fill="rgb(0,0,0)" fill-opacity="1" d=" M53.05500030517578,-24.760000228881836 C53.05500030517578,-24.760000228881836 52.8650016784668,-17.979999542236328 49.23500061035156,-9.8100004196167 C49.20500183105469,-9.739999771118164 49.17499923706055,-9.680000305175781 49.14500045776367,-9.609999656677246 C42.435001373291016,5.340000152587891 24.165000915527344,24.760000228881836 -25.44499969482422,15.739999771118164 C-26.44499969482422,15.529999732971191 -27.405000686645508,15.279999732971191 -28.325000762939453,15 C-53.05500030517578,7.519999980926514 -47.94499969482422,-21.760000228881836 -47.94499969482422,-21.760000228881836 C-47.94499969482422,-21.760000228881836 -41.69499969482422,-16.059999465942383 -29.28499984741211,-12.229999542236328 C-12.734999656677246,-7.130000114440918 14.774999618530273,-5.329999923706055 53.05500030517578,-24.760000228881836 C53.05500030517578,-24.760000228881836 53.05500030517578,-24.760000228881836 53.05500030517578,-24.760000228881836 C53.05500030517578,-24.760000228881836 53.05500030517578,-24.760000228881836 53.05500030517578,-24.760000228881836 C53.05500030517578,-24.760000228881836 53.05500030517578,-24.760000228881836 53.05500030517578,-24.760000228881836z"></path><path stroke-linecap="butt" stroke-linejoin="miter" fill-opacity="0" stroke-miterlimit="4" stroke="rgb(0,0,0)" stroke-opacity="1" stroke-width="4" d=" M53.05500030517578,-24.760000228881836 C53.05500030517578,-24.760000228881836 52.8650016784668,-17.979999542236328 49.23500061035156,-9.8100004196167 C49.20500183105469,-9.739999771118164 49.17499923706055,-9.680000305175781 49.14500045776367,-9.609999656677246 C42.435001373291016,5.340000152587891 24.165000915527344,24.760000228881836 -25.44499969482422,15.739999771118164 C-26.44499969482422,15.529999732971191 -27.405000686645508,15.279999732971191 -28.325000762939453,15 C-53.05500030517578,7.519999980926514 -47.94499969482422,-21.760000228881836 -47.94499969482422,-21.760000228881836 C-47.94499969482422,-21.760000228881836 -41.69499969482422,-16.059999465942383 -29.28499984741211,-12.229999542236328 C-12.734999656677246,-7.130000114440918 14.774999618530273,-5.329999923706055 53.05500030517578,-24.760000228881836 C53.05500030517578,-24.760000228881836 53.05500030517578,-24.760000228881836 53.05500030517578,-24.760000228881836 C53.05500030517578,-24.760000228881836 53.05500030517578,-24.760000228881836 53.05500030517578,-24.760000228881836 C53.05500030517578,-24.760000228881836 53.05500030517578,-24.760000228881836 53.05500030517578,-24.760000228881836z"></path></g><g opacity="1" transform="matrix(1,0,0,1,74.87999725341797,24.899999618530273)"><path fill="rgb(255,255,255)" fill-opacity="1" d=" M41.22999954223633,-14.899999618530273 C41.22999954223633,-14.899999618530273 41.040000915527344,-8.119999885559082 37.40999984741211,0.05000000074505806 C22.350000381469727,4.860000133514404 -12.739999771118164,14.899999618530273 -37.27000045776367,12.600000381469727 C-37.27000045776367,12.600000381469727 -41.22999954223633,6 -41.11000061035156,-2.369999885559082 C-24.559999465942383,2.7300000190734863 2.950000047683716,4.53000020980835 41.22999954223633,-14.899999618530273 C41.22999954223633,-14.899999618530273 41.22999954223633,-14.899999618530273 41.22999954223633,-14.899999618530273 C41.22999954223633,-14.899999618530273 41.22999954223633,-14.899999618530273 41.22999954223633,-14.899999618530273 C41.22999954223633,-14.899999618530273 41.22999954223633,-14.899999618530273 41.22999954223633,-14.899999618530273z"></path></g><g opacity="1" transform="matrix(1,0,0,1,72.91999816894531,43.2599983215332)"><path fill="rgb(255,255,255)" fill-opacity="1" d=" M38.189998626708984,-16.260000228881836 C31.479999542236328,-1.309999942779541 14.300000190734863,16.260000228881836 -35.310001373291016,7.239999771118164 C-36.310001373291016,7.03000020980835 -37.27000045776367,6.78000020980835 -38.189998626708984,6.5 C-38.189998626708984,6.5 -35.810001373291016,-3.259999990463257 -35.810001373291016,-3.259999990463257 C-0.8100000023841858,-1.2599999904632568 31.540000915527344,-13.140000343322754 38.189998626708984,-16.260000228881836 C38.189998626708984,-16.260000228881836 38.189998626708984,-16.260000228881836 38.189998626708984,-16.260000228881836 C38.189998626708984,-16.260000228881836 38.189998626708984,-16.260000228881836 38.189998626708984,-16.260000228881836 C38.189998626708984,-16.260000228881836 38.189998626708984,-16.260000228881836 38.189998626708984,-16.260000228881836z"></path></g></g><g transform="matrix(0.3271861970424652,-0.017048949375748634,0.01714710146188736,0.3253133296966553,36.238258361816406,60.02082824707031)" opacity="1" style="display: block;"><g opacity="1" transform="matrix(1,0,0,1,168.14599609375,53.40399932861328)"><path fill="rgb(0,0,0)" fill-opacity="1" d=" M-167.0019989013672,-53.15399932861328 C-167.0019989013672,-53.15399932861328 -167.89599609375,-38.44300079345703 -167.89599609375,-38.44300079345703 C-167.89599609375,-38.44300079345703 -90.80899810791016,-36.03200149536133 -90.80899810791016,-36.03200149536133 C-90.80899810791016,-36.03200149536133 -72.33699798583984,52.54499816894531 -15.182000160217285,51.189998626708984 C27.26300048828125,48.941001892089844 41.20100021362305,1.8009999990463257 41.20100021362305,1.8009999990463257 C41.20100021362305,1.8009999990463257 54.54999923706055,53.15399932861328 101.18599700927734,52.012001037597656 C147.822998046875,50.86899948120117 167.89500427246094,-36.50299835205078 167.89500427246094,-36.50299835205078 C167.89500427246094,-36.50299835205078 -167.0019989013672,-53.15399932861328 -167.0019989013672,-53.15399932861328 C-167.0019989013672,-53.15399932861328 -167.0019989013672,-53.15399932861328 -167.0019989013672,-53.15399932861328 C-167.0019989013672,-53.15399932861328 -167.0019989013672,-53.15399932861328 -167.0019989013672,-53.15399932861328 C-167.0019989013672,-53.15399932861328 -167.0019989013672,-53.15399932861328 -167.0019989013672,-53.15399932861328z"></path></g><g opacity="1" transform="matrix(1,0,0,1,147.02999877929688,58.33100128173828)"><path fill="rgb(99,99,99)" fill-opacity="1" d=" M29.32900047302246,25.63800048828125 C21.739999771118164,33.380001068115234 11.95199966430664,38.29999923706055 -0.6060000061988831,37.0629997253418 C-2.937999963760376,36.83599853515625 -5.175000190734863,36.42499923706055 -7.314000129699707,35.861000061035156 C-46.5890007019043,25.479000091552734 -53.952999114990234,-38.29999923706055 -53.952999114990234,-38.29999923706055 C-53.952999114990234,-38.29999923706055 -20.222000122070312,-36.869998931884766 -20.222000122070312,-36.869998931884766 C-20.222000122070312,-36.869998931884766 15.72700023651123,-35.347999572753906 15.72700023651123,-35.347999572753906 C15.72700023651123,-35.347999572753906 53.952999114990234,-33.733001708984375 53.952999114990234,-33.733001708984375 C53.952999114990234,-33.733001708984375 49.05099868774414,5.508999824523926 29.32900047302246,25.63800048828125 C29.32900047302246,25.63800048828125 29.32900047302246,25.63800048828125 29.32900047302246,25.63800048828125 C29.32900047302246,25.63800048828125 29.32900047302246,25.63800048828125 29.32900047302246,25.63800048828125 C29.32900047302246,25.63800048828125 29.32900047302246,25.63800048828125 29.32900047302246,25.63800048828125z"></path></g><g opacity="1" transform="matrix(1,0,0,1,267.7359924316406,60.59400177001953)"><path fill="rgb(99,99,99)" fill-opacity="1" d=" M14.784000396728516,31.72599983215332 C9.359000205993652,34.8380012512207 3.255000114440918,36.5 -3.5460000038146973,35.99100112915039 C-7.428999900817871,35.698001861572266 -11.003999710083008,34.79899978637695 -14.300999641418457,33.42100143432617 C-45.630001068115234,20.339000701904297 -51.67300033569336,-36.5 -51.67300033569336,-36.5 C-51.67300033569336,-36.5 -19.194000244140625,-34.96699905395508 -19.194000244140625,-34.96699905395508 C-19.194000244140625,-34.96699905395508 10.65999984741211,-33.57400131225586 10.65999984741211,-33.57400131225586 C10.65999984741211,-33.57400131225586 51.67300033569336,-31.642000198364258 51.67300033569336,-31.642000198364258 C51.67300033569336,-31.642000198364258 40.944000244140625,16.763999938964844 14.784000396728516,31.72599983215332 C14.784000396728516,31.72599983215332 14.784000396728516,31.72599983215332 14.784000396728516,31.72599983215332 C14.784000396728516,31.72599983215332 14.784000396728516,31.72599983215332 14.784000396728516,31.72599983215332 C14.784000396728516,31.72599983215332 14.784000396728516,31.72599983215332 14.784000396728516,31.72599983215332z"></path></g><g opacity="1" transform="matrix(1,0,0,1,137.51499938964844,59.04600143432617)"><path fill="rgb(62,62,62)" fill-opacity="1" d=" M38.84400177001953,24.92300033569336 C31.2549991607666,32.665000915527344 21.466999053955078,37.584999084472656 8.909000396728516,36.347999572753906 C6.577000141143799,36.12099838256836 4.340000152587891,35.709999084472656 2.2009999752044678,35.145999908447266 C10.491000175476074,22.027999877929688 16.000999450683594,6.5920000076293945 -5.267000198364258,7.943999767303467 C-40.79199981689453,3.7980000972747803 -17.170000076293945,-29.35099983215332 -10.706999778747559,-37.584999084472656 C-10.706999778747559,-37.584999084472656 25.242000579833984,-36.0629997253418 25.242000579833984,-36.0629997253418 C15.5600004196167,-26.736000061035156 -15.069000244140625,5.103000164031982 19.67300033569336,4.064000129699707 C37.525001525878906,3.5299999713897705 40.79100036621094,13.524999618530273 38.84400177001953,24.92300033569336 C38.84400177001953,24.92300033569336 38.84400177001953,24.92300033569336 38.84400177001953,24.92300033569336 C38.84400177001953,24.92300033569336 38.84400177001953,24.92300033569336 38.84400177001953,24.92300033569336 C38.84400177001953,24.92300033569336 38.84400177001953,24.92300033569336 38.84400177001953,24.92300033569336z"></path></g><g opacity="1" transform="matrix(1,0,0,1,256.7239990234375,61.361000061035156)"><path fill="rgb(61,61,61)" fill-opacity="1" d=" M25.79599952697754,30.958999633789062 C20.371000289916992,34.07099914550781 14.267000198364258,35.733001708984375 7.466000080108643,35.2239990234375 C3.5829999446868896,34.930999755859375 0.00800000037997961,34.03200149536133 -3.2890000343322754,32.65399932861328 C5.051000118255615,19.968000411987305 11.180000305175781,5.130000114440918 -6.59499979019165,6.104000091552734 C-32.935001373291016,1.871999979019165 -16.35300064086914,-24.70800018310547 -8.182000160217285,-35.73400115966797 C-8.182000160217285,-35.73400115966797 21.672000885009766,-34.340999603271484 21.672000885009766,-34.340999603271484 C10.854999542236328,-23.31100082397461 -12.336000442504883,3.1070001125335693 14.689000129699707,2.7079999446868896 C32.935001373291016,2.440999984741211 31.283000946044922,17.19099998474121 25.79599952697754,30.958999633789062 C25.79599952697754,30.958999633789062 25.79599952697754,30.958999633789062 25.79599952697754,30.958999633789062 C25.79599952697754,30.958999633789062 25.79599952697754,30.958999633789062 25.79599952697754,30.958999633789062 C25.79599952697754,30.958999633789062 25.79599952697754,30.958999633789062 25.79599952697754,30.958999633789062z"></path></g></g><g transform="matrix(0.32692909240722656,-0.021376047283411026,0.021499110385775566,0.325057715177536,139.07254028320312,103.43610382080078)" opacity="1" style="display: block;"><g opacity="1" transform="matrix(1,0,0,1,90,62)"><path fill="rgb(216,232,78)" fill-opacity="1" d=" M-83.5,-12.5 C-83.5,-12.5 -13.5,-15.5 5.5,-19.5 C24.5,-23.5 22.5,-27.5 15.5,-32.5 C8.5,-37.5 5.5,-55.5 20.5,-57.5 C35.5,-59.5 35.5,-28.5 35.5,-28.5 C35.5,-28.5 87.5,-9.5 35.5,23.5 C-16.5,56.5 -87.5,59.5 -87.5,59.5"></path><path stroke-linecap="butt" stroke-linejoin="miter" fill-opacity="0" stroke-miterlimit="4" stroke="rgb(0,0,0)" stroke-opacity="1" stroke-width="1" d=" M-83.5,-12.5 C-83.5,-12.5 -13.5,-15.5 5.5,-19.5 C24.5,-23.5 22.5,-27.5 15.5,-32.5 C8.5,-37.5 5.5,-55.5 20.5,-57.5 C35.5,-59.5 35.5,-28.5 35.5,-28.5 C35.5,-28.5 87.5,-9.5 35.5,23.5 C-16.5,56.5 -87.5,59.5 -87.5,59.5"></path></g><g opacity="1" transform="matrix(1,0,0,1,109.5,60)"><path stroke-linecap="butt" stroke-linejoin="miter" fill-opacity="0" stroke-miterlimit="4" stroke="rgb(0,0,0)" stroke-opacity="1" stroke-width="3" d=" M11,-16.5 C11,-16.5 -11,-11.5 1,16.5"></path></g></g><g transform="matrix(0.3276351988315582,0.00007684675074415281,-0.00007728915807092562,0.32575979828834534,89.5525131225586,102.95879364013672)" opacity="1" style="display: block;"><g opacity="1" transform="matrix(1,0,0,1,126,70.5)"><path fill="rgb(216,232,78)" fill-opacity="1" d=" M-123.5,-15 C-123.5,-15 18.5,-11 62.5,-25 C62.5,-25 75.5,-28 59.5,-38 C43.5,-48 63.5,-68 72.5,-58 C81.5,-48 82.5,-31 82.5,-31 C82.5,-31 123.5,-16 95.5,10 C67.5,36 -5.5,63 -76.5,68"></path><path stroke-linecap="butt" stroke-linejoin="miter" fill-opacity="0" stroke-miterlimit="4" stroke="rgb(0,0,0)" stroke-opacity="1" stroke-width="6" d=" M-123.5,-15 C-123.5,-15 18.5,-11 62.5,-25 C62.5,-25 75.5,-28 59.5,-38 C43.5,-48 63.5,-68 72.5,-58 C81.5,-48 82.5,-31 82.5,-31 C82.5,-31 123.5,-16 95.5,10 C67.5,36 -5.5,63 -76.5,68"></path></g></g></g></svg>