<svg xmlns="http://www.w3.org/2000/svg" xmlns:xlink="http://www.w3.org/1999/xlink" viewBox="0 0 222 222" width="222" height="222" preserveAspectRatio="xMidYMid meet" style="width: 100%; height: 100%; transform: translate3d(0px, 0px, 0px); content-visibility: visible;"><defs><clipPath id="__lottie_element_476"><rect width="222" height="222" x="0" y="0"></rect></clipPath><clipPath id="__lottie_element_486"><path d="M0,0 L126,0 L126,128 L0,128z"></path></clipPath><clipPath id="__lottie_element_505"><path d="M0,0 L126,0 L126,128 L0,128z"></path></clipPath><g id="__lottie_element_508"><g transform="matrix(1,0,0,0.9399999976158142,65,53.41718292236328)" opacity="1" style="display: block;"><g opacity="1" transform="matrix(1,0,0,1,0,0)"><path fill="rgb(245,245,245)" fill-opacity="1" d=" M-2.3410000801086426,71.2959976196289 C29.658000946044922,71.2959976196289 55.5989990234375,63.20899963378906 55.5989990234375,53.23400115966797 C55.5989990234375,53.23400115966797 55.5989990234375,-22.95400047302246 55.5989990234375,-22.95400047302246 C55.5989990234375,-23.170000076293945 55.505001068115234,-23.375 55.34000015258789,-23.514999389648438 C55.34000015258789,-23.514999389648438 45.34700012207031,-32.03099822998047 45.34700012207031,-32.03099822998047 C45.2140007019043,-32.14500045776367 45.04499816894531,-32.207000732421875 44.86899948120117,-32.207000732421875 C44.86899948120117,-32.207000732421875 -50.78200149536133,-32.207000732421875 -50.78200149536133,-32.207000732421875 C-50.972999572753906,-32.207000732421875 -51.15800094604492,-32.132999420166016 -51.29499816894531,-32 C-51.29499816894531,-32 -60.05799865722656,-23.51099967956543 -60.05799865722656,-23.51099967956543 C-60.20100021362305,-23.371999740600586 -60.28200149536133,-23.180999755859375 -60.28200149536133,-22.98200035095215 C-60.28200149536133,-22.98200035095215 -60.28200149536133,53.23400115966797 -60.28200149536133,53.23400115966797 C-60.28200149536133,63.20899963378906 -34.340999603271484,71.2959976196289 -2.3410000801086426,71.2959976196289 C-2.3410000801086426,71.2959976196289 -2.3410000801086426,71.2959976196289 -2.3410000801086426,71.2959976196289 C-2.3410000801086426,71.2959976196289 -2.3410000801086426,71.2959976196289 -2.3410000801086426,71.2959976196289z"></path><path stroke-linecap="round" stroke-linejoin="miter" fill-opacity="0" stroke-miterlimit="4" stroke="rgb(53,49,72)" stroke-opacity="1" stroke-width="2.209" d=" M-2.3410000801086426,71.2959976196289 C29.658000946044922,71.2959976196289 55.5989990234375,63.20899963378906 55.5989990234375,53.23400115966797 C55.5989990234375,53.23400115966797 55.5989990234375,-22.95400047302246 55.5989990234375,-22.95400047302246 C55.5989990234375,-23.170000076293945 55.505001068115234,-23.375 55.34000015258789,-23.514999389648438 C55.34000015258789,-23.514999389648438 45.34700012207031,-32.03099822998047 45.34700012207031,-32.03099822998047 C45.2140007019043,-32.14500045776367 45.04499816894531,-32.207000732421875 44.86899948120117,-32.207000732421875 C44.86899948120117,-32.207000732421875 -50.78200149536133,-32.207000732421875 -50.78200149536133,-32.207000732421875 C-50.972999572753906,-32.207000732421875 -51.15800094604492,-32.132999420166016 -51.29499816894531,-32 C-51.29499816894531,-32 -60.05799865722656,-23.51099967956543 -60.05799865722656,-23.51099967956543 C-60.20100021362305,-23.371999740600586 -60.28200149536133,-23.180999755859375 -60.28200149536133,-22.98200035095215 C-60.28200149536133,-22.98200035095215 -60.28200149536133,53.23400115966797 -60.28200149536133,53.23400115966797 C-60.28200149536133,63.20899963378906 -34.340999603271484,71.2959976196289 -2.3410000801086426,71.2959976196289 C-2.3410000801086426,71.2959976196289 -2.3410000801086426,71.2959976196289 -2.3410000801086426,71.2959976196289 C-2.3410000801086426,71.2959976196289 -2.3410000801086426,71.2959976196289 -2.3410000801086426,71.2959976196289z"></path></g><g opacity="1" transform="matrix(1,0,0,1,0,0)"><path fill="rgb(245,245,245)" fill-opacity="1" d=" M-60.0629997253418,44.77299880981445 C-60.0629997253418,44.77299880981445 -60.0629997253418,-14.493000030517578 -60.0629997253418,-14.493000030517578 C-46.62200164794922,1.8009999990463257 31.91699981689453,8.809000015258789 55.3489990234375,-14.493000030517578 C55.3489990234375,-14.493000030517578 55.3489990234375,44.77299880981445 55.3489990234375,44.77299880981445 C32.9640007019043,66.42400360107422 -41.79100036621094,64.44999694824219 -60.0629997253418,44.77299880981445 C-60.0629997253418,44.77299880981445 -60.0629997253418,44.77299880981445 -60.0629997253418,44.77299880981445 C-60.0629997253418,44.77299880981445 -60.0629997253418,44.77299880981445 -60.0629997253418,44.77299880981445z"></path></g><g opacity="1" transform="matrix(1,0,0,1,0,0)"><path stroke-linecap="round" stroke-linejoin="miter" fill-opacity="0" stroke-miterlimit="4" stroke="rgb(53,49,72)" stroke-opacity="1" stroke-width="2.209" d=" M-2.3410000801086426,71.29499816894531 C29.658000946044922,71.29499816894531 55.5989990234375,63.20899963378906 55.5989990234375,53.23400115966797 C55.5989990234375,53.23400115966797 55.5989990234375,-22.65999984741211 55.5989990234375,-22.65999984741211 C55.5989990234375,-23.02400016784668 55.33300018310547,-23.334999084472656 54.97200012207031,-23.388999938964844 C54.97200012207031,-23.388999938964844 -44.80500030517578,-38.382999420166016 -44.80500030517578,-38.382999420166016 C-45.0359992980957,-38.417999267578125 -45.270999908447266,-38.340999603271484 -45.43600082397461,-38.17499923706055 C-45.43600082397461,-38.17499923706055 -60.06700134277344,-23.510000228881836 -60.06700134277344,-23.510000228881836 C-60.20500183105469,-23.371999740600586 -60.28200149536133,-23.184999465942383 -60.28200149536133,-22.989999771118164 C-60.28200149536133,-22.989999771118164 -60.28200149536133,53.23400115966797 -60.28200149536133,53.23400115966797 C-60.28200149536133,63.20899963378906 -34.340999603271484,71.29499816894531 -2.3410000801086426,71.29499816894531 C-2.3410000801086426,71.29499816894531 -2.3410000801086426,71.29499816894531 -2.3410000801086426,71.29499816894531 C-2.3410000801086426,71.29499816894531 -2.3410000801086426,71.29499816894531 -2.3410000801086426,71.29499816894531z"></path></g><g opacity="1" transform="matrix(1,0,0,1,0,0)"><path stroke-linecap="round" stroke-linejoin="miter" fill-opacity="0" stroke-miterlimit="4" stroke="rgb(53,49,72)" stroke-opacity="1" stroke-width="2.209" d=" M55.5989990234375,41.965999603271484 C55.5989990234375,51.941001892089844 29.658000946044922,60.027000427246094 -2.3410000801086426,60.027000427246094 C-34.340999603271484,60.027000427246094 -60.28200149536133,51.941001892089844 -60.28200149536133,41.965999603271484"></path></g><g opacity="1" transform="matrix(1,0,0,1,0,0)"><path fill="rgb(53,49,72)" fill-opacity="1" d=" M-60.268001556396484,-3.634999990463257 C-60.268001556396484,5.690000057220459 -36.145999908447266,13.258999824523926 -6.293000221252441,13.33899974822998 C-6.03000020980835,13.34000015258789 -5.814000129699707,13.553000450134277 -5.814000129699707,13.815999984741211 C-5.814000129699707,13.815999984741211 -5.828999996185303,48.685001373291016 -5.828999996185303,48.685001373291016 C-5.828999996185303,49.09199905395508 -6.1620001792907715,49.422000885009766 -6.568999767303467,49.41999816894531 C-36.301998138427734,49.297000885009766 -60.284000396728516,41.744998931884766 -60.284000396728516,32.446998596191406 C-60.284000396728516,32.446998596191406 -60.268001556396484,-3.634999990463257 -60.268001556396484,-3.634999990463257 C-60.268001556396484,-3.634999990463257 -60.268001556396484,-3.634999990463257 -60.268001556396484,-3.634999990463257 C-60.268001556396484,-3.634999990463257 -60.268001556396484,-3.634999990463257 -60.268001556396484,-3.634999990463257z"></path><path stroke-linecap="round" stroke-linejoin="miter" fill-opacity="0" stroke-miterlimit="4" stroke="rgb(53,49,72)" stroke-opacity="1" stroke-width="2.209" d=" M-60.268001556396484,-3.634999990463257 C-60.268001556396484,5.690000057220459 -36.145999908447266,13.258999824523926 -6.293000221252441,13.33899974822998 C-6.03000020980835,13.34000015258789 -5.814000129699707,13.553000450134277 -5.814000129699707,13.815999984741211 C-5.814000129699707,13.815999984741211 -5.828999996185303,48.685001373291016 -5.828999996185303,48.685001373291016 C-5.828999996185303,49.09199905395508 -6.1620001792907715,49.422000885009766 -6.568999767303467,49.41999816894531 C-36.301998138427734,49.297000885009766 -60.284000396728516,41.744998931884766 -60.284000396728516,32.446998596191406 C-60.284000396728516,32.446998596191406 -60.268001556396484,-3.634999990463257 -60.268001556396484,-3.634999990463257 C-60.268001556396484,-3.634999990463257 -60.268001556396484,-3.634999990463257 -60.268001556396484,-3.634999990463257 C-60.268001556396484,-3.634999990463257 -60.268001556396484,-3.634999990463257 -60.268001556396484,-3.634999990463257z"></path></g><g opacity="1" transform="matrix(1,0,0,1,0,0)"><path fill="rgb(245,245,245)" fill-opacity="1" d=" M-54.78499984741211,32.28200149536133 C-54.38100051879883,32.67499923706055 -53.96799850463867,33.042999267578125 -53.551998138427734,33.37799835205078 C-53.13600158691406,33.70800018310547 -52.71900177001953,34 -52.30500030517578,34.25199890136719 C-51.888999938964844,34.499000549316406 -51.47700119018555,34.70500183105469 -51.073001861572266,34.867000579833984 C-50.66899871826172,35.02299880981445 -50.275001525878906,35.13100051879883 -49.89500045776367,35.18899917602539 C-49.516998291015625,35.237998962402344 -49.15299987792969,35.23899841308594 -48.810001373291016,35.180999755859375 C-48.46799850463867,35.11800003051758 -48.145999908447266,35.00199890136719 -47.85300064086914,34.82099914550781 C-47.55799865722656,34.63800048828125 -47.28900146484375,34.395999908447266 -47.05500030517578,34.08599853515625 C-46.82099914550781,33.77299880981445 -46.62099838256836,33.39500045776367 -46.4630012512207,32.946998596191406 C-46.358001708984375,32.65299987792969 -46.15700149536133,32.5 -45.90700149536133,32.45899963378906 C-45.65800094604492,32.417999267578125 -45.358001708984375,32.487998962402344 -45.058998107910156,32.645999908447266 C-44.7599983215332,32.80099868774414 -44.459999084472656,33.04100036621094 -44.20800018310547,33.34199905395508 C-43.95500183105469,33.64500045776367 -43.750999450683594,34.007999420166016 -43.64400100708008,34.415000915527344 C-43.49599838256836,34.97600173950195 -43.3129997253418,35.52199935913086 -43.0989990234375,36.05500030517578 C-42.8849983215332,36.58100128173828 -42.63999938964844,37.09299850463867 -42.37099838256836,37.582000732421875 C-42.10200119018555,38.069000244140625 -41.80699920654297,38.534000396728516 -41.487998962402344,38.974998474121094 C-41.17100143432617,39.415000915527344 -40.832000732421875,39.827999114990234 -40.47200012207031,40.21699905395508 C-40.11600112915039,40.599998474121094 -39.73899841308594,40.957000732421875 -39.3489990234375,41.28300094604492 C-38.9630012512207,41.604000091552734 -38.55699920654297,41.89500045776367 -38.14500045776367,42.15700149536133 C-37.733001708984375,42.40999984741211 -37.310001373291016,42.63199996948242 -36.88600158691406,42.821998596191406 C-36.45800018310547,43.00400161743164 -36.02899932861328,43.15399932861328 -35.59700012207031,43.26499938964844 C-35.16699981689453,43.375 -34.736000061035156,43.446998596191406 -34.3120002746582,43.481998443603516 C-33.88600158691406,43.513999938964844 -33.4630012512207,43.50899887084961 -33.05099868774414,43.46699905395508 C-32.638999938964844,43.41600036621094 -32.23500061035156,43.33300018310547 -31.847000122070312,43.21099853515625 C-31.457000732421875,43.08700180053711 -31.079999923706055,42.92300033569336 -30.722000122070312,42.7239990234375 C-30.36400032043457,42.51900100708008 -30.023000717163086,42.28099822998047 -29.70599937438965,42.00600051879883 C-29.386999130249023,41.729000091552734 -29.09000015258789,41.41400146484375 -28.820999145507812,41.066001892089844 C-28.552000045776367,40.715999603271484 -28.30699920654297,40.33100128173828 -28.093000411987305,39.91299819946289 C-27.878999710083008,39.49100112915039 -27.69700050354004,39.0369987487793 -27.54599952697754,38.551998138427734 C-27.43899917602539,38.20100021362305 -27.232999801635742,37.94300079345703 -26.983999252319336,37.77199935913086 C-26.731000900268555,37.60100173950195 -26.429000854492188,37.513999938964844 -26.128000259399414,37.51499938964844 C-25.82900047302246,37.51100158691406 -25.530000686645508,37.59299850463867 -25.2810001373291,37.76300048828125 C-25.031999588012695,37.93199920654297 -24.829999923706055,38.1879997253418 -24.726999282836914,38.53499984741211 C-24.56100082397461,39.08000183105469 -24.35700035095215,39.569000244140625 -24.117000579833984,40.00699996948242 C-23.87700080871582,40.44599914550781 -23.601999282836914,40.83300018310547 -23.297000885009766,41.16999816894531 C-22.993999481201172,41.50400161743164 -22.663000106811523,41.790000915527344 -22.30699920654297,42.02799987792969 C-21.954999923706055,42.262001037597656 -21.579999923706055,42.446998596191406 -21.187999725341797,42.58599853515625 C-20.79800033569336,42.72200012207031 -20.392000198364258,42.810001373291016 -19.97800064086914,42.85599899291992 C-19.562000274658203,42.895999908447266 -19.141000747680664,42.89099884033203 -18.71500015258789,42.84199905395508 C-18.288999557495117,42.79100036621094 -17.86199951171875,42.70100021362305 -17.43600082397461,42.571998596191406 C-17.011999130249023,42.435001373291016 -16.590999603271484,42.262001037597656 -16.174999237060547,42.058998107910156 C-16.174999237060547,42.058998107910156 -16.174999237060547,41.67499923706055 -16.177000045776367,41.106998443603516 C-16.174999237060547,40.819000244140625 -16.174999237060547,40.48400115966797 -16.177000045776367,40.12799835205078 C-16.174999237060547,39.76900100708008 -16.174999237060547,39.387001037597656 -16.174999237060547,39.005001068115234 C-16.177000045776367,38.62699890136719 -16.177000045776367,38.244998931884766 -16.174999237060547,37.88600158691406 C-16.174999237060547,37.52799987792969 -16.177000045776367,37.19499969482422 -16.177000045776367,36.909000396728516 C-16.174999237060547,36.334999084472656 -16.177000045776367,35.957000732421875 -16.177000045776367,35.957000732421875 C-16.177000045776367,35.957000732421875 -16.639999389648438,36.284000396728516 -17.165000915527344,36.40999984741211 C-17.43000030517578,36.470001220703125 -17.711999893188477,36.47600173950195 -17.954999923706055,36.367000579833984 C-18.20199966430664,36.255001068115234 -18.40999984741211,36.03099822998047 -18.5310001373291,35.630001068115234 C-18.667999267578125,35.17300033569336 -18.836000442504883,34.75199890136719 -19.031999588012695,34.37099838256836 C-19.229999542236328,33.987998962402344 -19.45599937438965,33.64099884033203 -19.704999923706055,33.32600021362305 C-19.95400047302246,33.00899887084961 -20.229999542236328,32.729000091552734 -20.527000427246094,32.47999954223633 C-20.82200050354004,32.22700119018555 -21.13800048828125,32.00600051879883 -21.475000381469727,31.81800079345703 C-21.812000274658203,31.625 -22.16699981689453,31.458999633789062 -22.538999557495117,31.320999145507812 C-22.902999877929688,31.18199920654297 -23.28700065612793,31.06999969482422 -23.679000854492188,30.985000610351562 C-24.072999954223633,30.895000457763672 -24.476999282836914,30.83099937438965 -24.885000228881836,30.795000076293945 C-25.295000076293945,30.75200080871582 -25.709999084472656,30.73699951171875 -26.125999450683594,30.7450008392334 C-26.54599952697754,30.749000549316406 -26.965999603271484,30.774999618530273 -27.381999969482422,30.83300018310547 C-27.79800033569336,30.881000518798828 -28.21299934387207,30.957000732421875 -28.618999481201172,31.059999465942383 C-29.024999618530273,31.156999588012695 -29.424999237060547,31.284000396728516 -29.81100082397461,31.43600082397461 C-30.198999404907227,31.582000732421875 -30.573999404907227,31.756999969482422 -30.93199920654297,31.961999893188477 C-31.290000915527344,32.16299819946289 -31.632999420166016,32.393001556396484 -31.95199966430664,32.64899826049805 C-32.27299880981445,32.9109992980957 -32.57400131225586,33.20000076293945 -32.84700012207031,33.520999908447266 C-33.119998931884766,33.840999603271484 -33.367000579833984,34.19300079345703 -33.584999084472656,34.58100128173828 C-33.803001403808594,34.96900177001953 -33.9900016784668,35.391998291015625 -34.14400100708008,35.85100173950195 C-34.250999450683594,36.18199920654297 -34.46099853515625,36.39799880981445 -34.720001220703125,36.51599884033203 C-34.979000091552734,36.630001068115234 -35.28799819946289,36.643001556396484 -35.59700012207031,36.564998626708984 C-35.90599822998047,36.48400115966797 -36.21500015258789,36.3120002746582 -36.4739990234375,36.06399917602539 C-36.733001708984375,35.8120002746582 -36.94300079345703,35.48500061035156 -37.051998138427734,35.10200119018555 C-37.20399856567383,34.564998626708984 -37.39099884033203,34.04600143432617 -37.60900115966797,33.547000885009766 C-37.82699966430664,33.047000885009766 -38.07400131225586,32.56700134277344 -38.34700012207031,32.10499954223633 C-38.619998931884766,31.643999099731445 -38.92100143432617,31.200000762939453 -39.242000579833984,30.774999618530273 C-39.56100082397461,30.354999542236328 -39.90399932861328,29.94700050354004 -40.262001037597656,29.562000274658203 C-40.619998931884766,29.174999237060547 -40.994998931884766,28.805999755859375 -41.38100051879883,28.461000442504883 C-41.76900100708008,28.108999252319336 -42.165000915527344,27.77899932861328 -42.57099914550781,27.474000930786133 C-42.97700119018555,27.160999298095703 -43.391998291015625,26.871000289916992 -43.80799865722656,26.610000610351562 C-44.2239990234375,26.339000701904297 -44.64099884033203,26.09600067138672 -45.058998107910156,25.878000259399414 C-45.474998474121094,25.65399932861328 -45.89099884033203,25.45599937438965 -46.30099868774414,25.288999557495117 C-46.70899963378906,25.115999221801758 -47.112998962402344,24.969999313354492 -47.505001068115234,24.857999801635742 C-47.89500045776367,24.7450008392334 -48.27899932861328,24.658000946044922 -48.64899826049805,24.606000900268555 C-49.01300048828125,24.55699920654297 -49.36800003051758,24.538000106811523 -49.702999114990234,24.562000274658203 C-50.03799819946289,24.57699966430664 -50.35599899291992,24.635000228881836 -50.6510009765625,24.735000610351562 C-50.94599914550781,24.832000732421875 -51.2239990234375,24.969999313354492 -51.47100067138672,25.158000946044922 C-51.720001220703125,25.3439998626709 -51.944000244140625,25.576000213623047 -52.141998291015625,25.857999801635742 C-52.3380012512207,26.138999938964844 -52.50400161743164,26.472999572753906 -52.64099884033203,26.861000061035156 C-52.768001556396484,27.225000381469727 -52.96699905395508,27.37700080871582 -53.19499969482422,27.405000686645508 C-53.42100143432617,27.430999755859375 -53.67399978637695,27.327999114990234 -53.9119987487793,27.18000030517578 C-54.38100051879883,26.875 -54.78499984741211,26.389999389648438 -54.78499984741211,26.389999389648438 C-54.78499984741211,26.389999389648438 -54.78499984741211,26.757999420166016 -54.78499984741211,27.309999465942383 C-54.78499984741211,27.584999084472656 -54.78499984741211,27.908000946044922 -54.78499984741211,28.253000259399414 C-54.78499984741211,28.599000930786133 -54.78499984741211,28.965999603271484 -54.78499984741211,29.336000442504883 C-54.78499984741211,29.70400047302246 -54.78499984741211,30.07200050354004 -54.78499984741211,30.41699981689453 C-54.78499984741211,30.761999130249023 -54.78499984741211,31.084999084472656 -54.78499984741211,31.361000061035156 C-54.78499984741211,31.91200065612793 -54.78499984741211,32.28200149536133 -54.78499984741211,32.28200149536133 C-54.78499984741211,32.28200149536133 -54.78499984741211,32.28200149536133 -54.78499984741211,32.28200149536133 C-54.78499984741211,32.28200149536133 -54.78499984741211,32.28200149536133 -54.78499984741211,32.28200149536133z"></path></g><g opacity="1" transform="matrix(1,0,0,1,0,0)"><path fill="rgb(245,245,245)" fill-opacity="1" d=" M-54.78499984741211,19.253000259399414 C-54.78499984741211,19.253000259399414 -54.78499984741211,18.851999282836914 -54.78499984741211,18.253999710083008 C-54.78499984741211,17.954999923706055 -54.78499984741211,17.606000900268555 -54.78499984741211,17.23200035095215 C-54.78499984741211,16.857999801635742 -54.78499984741211,16.459999084472656 -54.78499984741211,16.062000274658203 C-54.78499984741211,15.66100025177002 -54.78499984741211,15.262999534606934 -54.78499984741211,14.888999938964844 C-54.78499984741211,14.515000343322754 -54.78499984741211,14.166000366210938 -54.78499984741211,13.868000030517578 C-54.78499984741211,13.269000053405762 -54.78499984741211,12.871000289916992 -54.78499984741211,12.871000289916992 C-54.78499984741211,12.871000289916992 -54.382999420166016,13.345000267028809 -53.9119987487793,13.63599967956543 C-53.67599868774414,13.774999618530273 -53.42300033569336,13.875 -53.196998596191406,13.843999862670898 C-52.96900177001953,13.8100004196167 -52.77000045776367,13.649999618530273 -52.64099884033203,13.286999702453613 C-52.50400161743164,12.89799976348877 -52.3380012512207,12.5649995803833 -52.141998291015625,12.281999588012695 C-51.944000244140625,11.99899959564209 -51.720001220703125,11.767999649047852 -51.47100067138672,11.581999778747559 C-51.2239990234375,11.390999794006348 -50.94599914550781,11.24899959564209 -50.6510009765625,11.151000022888184 C-50.35599899291992,11.04800033569336 -50.03799819946289,10.98799991607666 -49.702999114990234,10.968999862670898 C-49.36800003051758,10.940999984741211 -49.01300048828125,10.958000183105469 -48.64899826049805,11.003000259399414 C-48.27899932861328,11.050000190734863 -47.89500045776367,11.133000373840332 -47.505001068115234,11.244999885559082 C-47.112998962402344,11.352999687194824 -46.70899963378906,11.494000434875488 -46.30099868774414,11.663000106811523 C-45.89099884033203,11.826000213623047 -45.474998474121094,12.020000457763672 -45.058998107910156,12.239999771118164 C-44.64099884033203,12.454000473022461 -44.2239990234375,12.694999694824219 -43.80799865722656,12.960000038146973 C-43.391998291015625,13.218999862670898 -42.97700119018555,13.503999710083008 -42.57099914550781,13.812000274658203 C-42.165000915527344,14.11299991607666 -41.76900100708008,14.434000015258789 -41.38100051879883,14.781999588012695 C-40.994998931884766,15.125 -40.619998931884766,15.489999771118164 -40.262001037597656,15.875 C-39.90399932861328,16.256000518798828 -39.56100082397461,16.65999984741211 -39.242000579833984,17.082000732421875 C-38.92100143432617,17.5 -38.619998931884766,17.941999435424805 -38.34700012207031,18.40399932861328 C-38.07400131225586,18.86199951171875 -37.82699966430664,19.340999603271484 -37.60900115966797,19.84000015258789 C-37.39099884033203,20.336000442504883 -37.20399856567383,20.856000900268555 -37.051998138427734,21.39299964904785 C-36.94300079345703,21.777999877929688 -36.733001708984375,22.10300064086914 -36.4739990234375,22.354999542236328 C-36.21500015258789,22.601999282836914 -35.90599822998047,22.774999618530273 -35.59700012207031,22.85300064086914 C-35.28799819946289,22.93199920654297 -34.979000091552734,22.920000076293945 -34.720001220703125,22.805999755859375 C-34.46099853515625,22.687999725341797 -34.250999450683594,22.472000122070312 -34.141998291015625,22.139999389648438 C-33.98899841308594,21.68199920654297 -33.803001403808594,21.260000228881836 -33.584999084472656,20.874000549316406 C-33.367000579833984,20.488000869750977 -33.119998931884766,20.13599967956543 -32.84700012207031,19.819000244140625 C-32.57400131225586,19.499000549316406 -32.27299880981445,19.211000442504883 -31.95199966430664,18.95599937438965 C-31.632999420166016,18.697999954223633 -31.290000915527344,18.472000122070312 -30.93199920654297,18.274999618530273 C-30.573999404907227,18.07200050354004 -30.198999404907227,17.900999069213867 -29.81100082397461,17.756999969482422 C-29.424999237060547,17.610000610351562 -29.024999618530273,17.490999221801758 -28.618999481201172,17.398000717163086 C-28.21299934387207,17.299999237060547 -27.79800033569336,17.22800064086914 -27.381999969482422,17.183000564575195 C-26.965999603271484,17.131000518798828 -26.54599952697754,17.10700035095215 -26.125999450683594,17.10700035095215 C-25.709999084472656,17.10300064086914 -25.295000076293945,17.121999740600586 -24.885000228881836,17.16900062561035 C-24.476999282836914,17.209999084472656 -24.072999954223633,17.277000427246094 -23.679000854492188,17.371000289916992 C-23.28700065612793,17.458999633789062 -22.902999877929688,17.575000762939453 -22.538999557495117,17.718000411987305 C-22.16699981689453,17.860000610351562 -21.812000274658203,18.027000427246094 -21.475000381469727,18.225000381469727 C-21.13800048828125,18.41699981689453 -20.82200050354004,18.639999389648438 -20.527000427246094,18.895000457763672 C-20.229999542236328,19.145999908447266 -19.95400047302246,19.430999755859375 -19.704999923706055,19.749000549316406 C-19.45599937438965,20.062000274658203 -19.229999542236328,20.410999298095703 -19.031999588012695,20.795000076293945 C-18.836000442504883,21.177000045776367 -18.667999267578125,21.597999572753906 -18.5310001373291,22.055999755859375 C-18.402000427246094,22.48699951171875 -18.187999725341797,22.731000900268555 -17.94099998474121,22.85300064086914 C-17.694000244140625,22.97100067138672 -17.413999557495117,22.9689998626709 -17.152999877929688,22.90999984741211 C-16.6299991607666,22.784000396728516 -16.174999237060547,22.437999725341797 -16.174999237060547,22.437999725341797 C-16.174999237060547,22.437999725341797 -16.174999237060547,22.847999572753906 -16.174999237060547,23.466999053955078 C-16.174999237060547,23.775999069213867 -16.174999237060547,24.135000228881836 -16.174999237060547,24.523000717163086 C-16.174999237060547,24.909000396728516 -16.174999237060547,25.31999969482422 -16.174999237060547,25.732999801635742 C-16.174999237060547,26.145000457763672 -16.174999237060547,26.555999755859375 -16.174999237060547,26.941999435424805 C-16.177000045776367,27.332000732421875 -16.174999237060547,27.690000534057617 -16.174999237060547,27.99799919128418 C-16.177000045776367,28.617000579833984 -16.174999237060547,29.030000686645508 -16.174999237060547,29.030000686645508 C-16.590999603271484,29.232999801635742 -17.011999130249023,29.395000457763672 -17.43600082397461,29.514999389648438 C-17.86199951171875,29.625 -18.288999557495117,29.690000534057617 -18.71500015258789,29.711000442504883 C-19.141000747680664,29.722999572753906 -19.562000274658203,29.690000534057617 -19.97800064086914,29.613000869750977 C-20.392000198364258,29.527999877929688 -20.79800033569336,29.395999908447266 -21.187999725341797,29.216999053955078 C-21.579999923706055,29.035999298095703 -21.954999923706055,28.808000564575195 -22.30699920654297,28.53499984741211 C-22.663000106811523,28.256000518798828 -22.993999481201172,27.933000564575195 -23.297000885009766,27.56599998474121 C-23.601999282836914,27.19700050354004 -23.87700080871582,26.784000396728516 -24.117000579833984,26.32900047302246 C-24.236000061035156,26.097999572753906 -24.347999572753906,25.858999252319336 -24.448999404907227,25.608999252319336 C-24.552000045776367,25.360000610351562 -24.642000198364258,25.097999572753906 -24.725000381469727,24.827999114990234 C-24.829999923706055,24.481000900268555 -25.031999588012695,24.222999572753906 -25.2810001373291,24.05299949645996 C-25.530000686645508,23.881999969482422 -25.82900047302246,23.799999237060547 -26.128000259399414,23.80299949645996 C-26.429000854492188,23.80299949645996 -26.731000900268555,23.889999389648438 -26.983999252319336,24.062000274658203 C-27.232999801635742,24.233999252319336 -27.43899917602539,24.493999481201172 -27.54599952697754,24.843000411987305 C-27.69700050354004,25.327999114990234 -27.878999710083008,25.781999588012695 -28.093000411987305,26.202999114990234 C-28.30699920654297,26.621000289916992 -28.552000045776367,27.006000518798828 -28.820999145507812,27.356000900268555 C-29.09000015258789,27.704999923706055 -29.386999130249023,28.020000457763672 -29.70599937438965,28.29599952697754 C-30.023000717163086,28.570999145507812 -30.36400032043457,28.80900001525879 -30.722000122070312,29.014999389648438 C-31.079999923706055,29.214000701904297 -31.457000732421875,29.378000259399414 -31.847000122070312,29.500999450683594 C-32.23500061035156,29.62299919128418 -32.638999938964844,29.707000732421875 -33.05099868774414,29.756999969482422 C-33.4630012512207,29.799999237060547 -33.88600158691406,29.80500030517578 -34.3120002746582,29.77199935913086 C-34.737998962402344,29.73699951171875 -35.16699981689453,29.665000915527344 -35.5989990234375,29.555999755859375 C-36.02899932861328,29.444000244140625 -36.45800018310547,29.29400062561035 -36.88600158691406,29.11199951171875 C-37.310001373291016,28.92300033569336 -37.733001708984375,28.701000213623047 -38.14500045776367,28.44700050354004 C-38.55699920654297,28.184999465942383 -38.9630012512207,27.893999099731445 -39.3489990234375,27.572999954223633 C-39.73899841308594,27.24799919128418 -40.11399841308594,26.891000747680664 -40.47200012207031,26.507999420166016 C-40.83000183105469,26.118999481201172 -41.17100143432617,25.704999923706055 -41.487998962402344,25.264999389648438 C-41.80699920654297,24.825000762939453 -42.10200119018555,24.360000610351562 -42.37099838256836,23.871999740600586 C-42.63999938964844,23.382999420166016 -42.8849983215332,22.871000289916992 -43.0989990234375,22.344999313354492 C-43.3129997253418,21.812999725341797 -43.49599838256836,21.266000747680664 -43.64400100708008,20.701000213623047 C-43.750999450683594,20.299999237060547 -43.95500183105469,19.93600082397461 -44.20800018310547,19.632999420166016 C-44.459999084472656,19.329999923706055 -44.7599983215332,19.09000015258789 -45.058998107910156,18.93600082397461 C-45.358001708984375,18.77899932861328 -45.65800094604492,18.707000732421875 -45.90700149536133,18.75 C-46.15700149536133,18.791000366210938 -46.358001708984375,18.94099998474121 -46.46099853515625,19.239999771118164 C-46.62099838256836,19.68400001525879 -46.82099914550781,20.073999404907227 -47.05500030517578,20.405000686645508 C-47.28900146484375,20.736000061035156 -47.55799865722656,21.00200080871582 -47.85300064086914,21.218000411987305 C-48.145999908447266,21.429000854492188 -48.46799850463867,21.584999084472656 -48.810001373291016,21.68600082397461 C-49.15299987792969,21.78499984741211 -49.516998291015625,21.82699966430664 -49.89500045776367,21.819000244140625 C-50.275001525878906,21.805999755859375 -50.66899871826172,21.738000869750977 -51.073001861572266,21.624000549316406 C-51.47700119018555,21.503000259399414 -51.888999938964844,21.33099937438965 -52.30500030517578,21.114999771118164 C-52.71900177001953,20.895000457763672 -53.13600158691406,20.6299991607666 -53.551998138427734,20.31999969482422 C-53.96799850463867,20.003999710083008 -54.38100051879883,19.645000457763672 -54.78499984741211,19.253000259399414 C-54.78499984741211,19.253000259399414 -54.78499984741211,19.253000259399414 -54.78499984741211,19.253000259399414 C-54.78499984741211,19.253000259399414 -54.78499984741211,19.253000259399414 -54.78499984741211,19.253000259399414z"></path></g></g></g><mask id="__lottie_element_508_1" mask-type="alpha"><use xlink:href="#__lottie_element_508"></use></mask><clipPath id="__lottie_element_516"><path d="M0,0 L128,0 L128,128 L0,128z"></path></clipPath><clipPath id="__lottie_element_520"><path d="M0,0 L128,0 L128,128 L0,128z"></path></clipPath><g id="__lottie_element_523"><g transform="matrix(1,0,0,1,64,64)" opacity="1" style="display: block;"><path fill="rgb(0,0,0)" fill-opacity="1" d=" M63,-64 C63,-64 63,64 63,64 C63,64 -63,64 -63,64 C-63,64 -63,-64 -63,-64 C-63,-64 63,-64 63,-64z"></path></g></g><mask id="__lottie_element_523_1" mask-type="alpha"><use xlink:href="#__lottie_element_523"></use></mask></defs><g clip-path="url(#__lottie_element_476)"><g transform="matrix(1,0,0,1,106.75328063964844,110.80526733398438)" opacity="1" style="display: block;"><path fill="rgb(216,232,78)" fill-opacity="1" d=" M-13.595999717712402,-84.58899688720703 C-8.654000282287598,-88.49800109863281 -2.1059999465942383,-89.7239990234375 3.9149999618530273,-87.87000274658203 C3.9149999618530273,-87.87000274658203 56.875,-71.56400299072266 56.875,-71.56400299072266 C64.45999908447266,-69.22899627685547 69.81700134277344,-62.45500183105469 70.34400177001953,-54.5359992980957 C70.34400177001953,-54.5359992980957 74.01799774169922,0.7549999952316284 74.01799774169922,0.7549999952316284 C74.43599700927734,7.040999889373779 71.73400115966797,13.130999565124512 66.79199981689453,17.038999557495117 C66.79199981689453,17.038999557495117 -19.09600067138672,84.97799682617188 -19.09600067138672,84.97799682617188 C-27.388999938964844,91.53700256347656 -39.42900085449219,90.13200378417969 -45.98899841308594,81.83999633789062 C-45.98899841308594,81.83999633789062 -102.62300109863281,10.241999626159668 -102.62300109863281,10.241999626159668 C-109.18199920654297,1.9500000476837158 -107.77799987792969,-10.09000015258789 -99.48500061035156,-16.649999618530273 C-99.48500061035156,-16.649999618530273 -13.595999717712402,-84.58899688720703 -13.595999717712402,-84.58899688720703 C-13.595999717712402,-84.58899688720703 -13.595999717712402,-84.58899688720703 -13.595999717712402,-84.58899688720703 C-13.595999717712402,-84.58899688720703 -13.595999717712402,-84.58899688720703 -13.595999717712402,-84.58899688720703z"></path></g><g transform="matrix(1,0,0,0.9399999976158142,106.75328063964844,114.22244262695312)" opacity="1" style="display: block;"><g opacity="1" transform="matrix(1,0,0,1,0,0)"><path fill="rgb(245,245,245)" fill-opacity="1" d=" M-2.3410000801086426,71.2959976196289 C29.658000946044922,71.2959976196289 55.5989990234375,63.20899963378906 55.5989990234375,53.23400115966797 C55.5989990234375,53.23400115966797 55.5989990234375,-22.95400047302246 55.5989990234375,-22.95400047302246 C55.5989990234375,-23.170000076293945 55.505001068115234,-23.375 55.34000015258789,-23.514999389648438 C55.34000015258789,-23.514999389648438 45.34700012207031,-32.03099822998047 45.34700012207031,-32.03099822998047 C45.2140007019043,-32.14500045776367 45.04499816894531,-32.207000732421875 44.86899948120117,-32.207000732421875 C44.86899948120117,-32.207000732421875 -50.78200149536133,-32.207000732421875 -50.78200149536133,-32.207000732421875 C-50.972999572753906,-32.207000732421875 -51.15800094604492,-32.132999420166016 -51.29499816894531,-32 C-51.29499816894531,-32 -60.05799865722656,-23.51099967956543 -60.05799865722656,-23.51099967956543 C-60.20100021362305,-23.371999740600586 -60.28200149536133,-23.180999755859375 -60.28200149536133,-22.98200035095215 C-60.28200149536133,-22.98200035095215 -60.28200149536133,53.23400115966797 -60.28200149536133,53.23400115966797 C-60.28200149536133,63.20899963378906 -34.340999603271484,71.2959976196289 -2.3410000801086426,71.2959976196289 C-2.3410000801086426,71.2959976196289 -2.3410000801086426,71.2959976196289 -2.3410000801086426,71.2959976196289 C-2.3410000801086426,71.2959976196289 -2.3410000801086426,71.2959976196289 -2.3410000801086426,71.2959976196289z"></path><path stroke-linecap="round" stroke-linejoin="miter" fill-opacity="0" stroke-miterlimit="4" stroke="rgb(53,49,72)" stroke-opacity="1" stroke-width="2.209" d=" M-2.3410000801086426,71.2959976196289 C29.658000946044922,71.2959976196289 55.5989990234375,63.20899963378906 55.5989990234375,53.23400115966797 C55.5989990234375,53.23400115966797 55.5989990234375,-22.95400047302246 55.5989990234375,-22.95400047302246 C55.5989990234375,-23.170000076293945 55.505001068115234,-23.375 55.34000015258789,-23.514999389648438 C55.34000015258789,-23.514999389648438 45.34700012207031,-32.03099822998047 45.34700012207031,-32.03099822998047 C45.2140007019043,-32.14500045776367 45.04499816894531,-32.207000732421875 44.86899948120117,-32.207000732421875 C44.86899948120117,-32.207000732421875 -50.78200149536133,-32.207000732421875 -50.78200149536133,-32.207000732421875 C-50.972999572753906,-32.207000732421875 -51.15800094604492,-32.132999420166016 -51.29499816894531,-32 C-51.29499816894531,-32 -60.05799865722656,-23.51099967956543 -60.05799865722656,-23.51099967956543 C-60.20100021362305,-23.371999740600586 -60.28200149536133,-23.180999755859375 -60.28200149536133,-22.98200035095215 C-60.28200149536133,-22.98200035095215 -60.28200149536133,53.23400115966797 -60.28200149536133,53.23400115966797 C-60.28200149536133,63.20899963378906 -34.340999603271484,71.2959976196289 -2.3410000801086426,71.2959976196289 C-2.3410000801086426,71.2959976196289 -2.3410000801086426,71.2959976196289 -2.3410000801086426,71.2959976196289 C-2.3410000801086426,71.2959976196289 -2.3410000801086426,71.2959976196289 -2.3410000801086426,71.2959976196289z"></path></g><g opacity="1" transform="matrix(1,0,0,1,0,0)"><path fill="rgb(245,245,245)" fill-opacity="1" d=" M-60.0629997253418,44.77299880981445 C-60.0629997253418,44.77299880981445 -60.0629997253418,-14.493000030517578 -60.0629997253418,-14.493000030517578 C-46.62200164794922,1.8009999990463257 31.91699981689453,8.809000015258789 55.3489990234375,-14.493000030517578 C55.3489990234375,-14.493000030517578 55.3489990234375,44.77299880981445 55.3489990234375,44.77299880981445 C32.9640007019043,66.42400360107422 -41.79100036621094,64.44999694824219 -60.0629997253418,44.77299880981445 C-60.0629997253418,44.77299880981445 -60.0629997253418,44.77299880981445 -60.0629997253418,44.77299880981445 C-60.0629997253418,44.77299880981445 -60.0629997253418,44.77299880981445 -60.0629997253418,44.77299880981445z"></path></g><g opacity="1" transform="matrix(1,0,0,1,0,0)"><path stroke-linecap="round" stroke-linejoin="miter" fill-opacity="0" stroke-miterlimit="4" stroke="rgb(53,49,72)" stroke-opacity="1" stroke-width="2.209" d=" M-2.3410000801086426,71.29499816894531 C29.658000946044922,71.29499816894531 55.5989990234375,63.20899963378906 55.5989990234375,53.23400115966797 C55.5989990234375,53.23400115966797 55.5989990234375,-22.65999984741211 55.5989990234375,-22.65999984741211 C55.5989990234375,-23.02400016784668 55.33300018310547,-23.334999084472656 54.97200012207031,-23.388999938964844 C54.97200012207031,-23.388999938964844 -44.80500030517578,-38.382999420166016 -44.80500030517578,-38.382999420166016 C-45.0359992980957,-38.417999267578125 -45.270999908447266,-38.340999603271484 -45.43600082397461,-38.17499923706055 C-45.43600082397461,-38.17499923706055 -60.06700134277344,-23.510000228881836 -60.06700134277344,-23.510000228881836 C-60.20500183105469,-23.371999740600586 -60.28200149536133,-23.184999465942383 -60.28200149536133,-22.989999771118164 C-60.28200149536133,-22.989999771118164 -60.28200149536133,53.23400115966797 -60.28200149536133,53.23400115966797 C-60.28200149536133,63.20899963378906 -34.340999603271484,71.29499816894531 -2.3410000801086426,71.29499816894531 C-2.3410000801086426,71.29499816894531 -2.3410000801086426,71.29499816894531 -2.3410000801086426,71.29499816894531 C-2.3410000801086426,71.29499816894531 -2.3410000801086426,71.29499816894531 -2.3410000801086426,71.29499816894531z"></path></g><g opacity="1" transform="matrix(1,0,0,1,0,0)"><path stroke-linecap="round" stroke-linejoin="miter" fill-opacity="0" stroke-miterlimit="4" stroke="rgb(53,49,72)" stroke-opacity="1" stroke-width="2.209" d=" M55.5989990234375,41.965999603271484 C55.5989990234375,51.941001892089844 29.658000946044922,60.027000427246094 -2.3410000801086426,60.027000427246094 C-34.340999603271484,60.027000427246094 -60.28200149536133,51.941001892089844 -60.28200149536133,41.965999603271484"></path></g><g opacity="1" transform="matrix(1,0,0,1,0,0)"><path fill="rgb(53,49,72)" fill-opacity="1" d=" M-60.268001556396484,-3.634999990463257 C-60.268001556396484,5.690000057220459 -36.145999908447266,13.258999824523926 -6.293000221252441,13.33899974822998 C-6.03000020980835,13.34000015258789 -5.814000129699707,13.553000450134277 -5.814000129699707,13.815999984741211 C-5.814000129699707,13.815999984741211 -5.828999996185303,48.685001373291016 -5.828999996185303,48.685001373291016 C-5.828999996185303,49.09199905395508 -6.1620001792907715,49.422000885009766 -6.568999767303467,49.41999816894531 C-36.301998138427734,49.297000885009766 -60.284000396728516,41.744998931884766 -60.284000396728516,32.446998596191406 C-60.284000396728516,32.446998596191406 -60.268001556396484,-3.634999990463257 -60.268001556396484,-3.634999990463257 C-60.268001556396484,-3.634999990463257 -60.268001556396484,-3.634999990463257 -60.268001556396484,-3.634999990463257 C-60.268001556396484,-3.634999990463257 -60.268001556396484,-3.634999990463257 -60.268001556396484,-3.634999990463257z"></path><path stroke-linecap="round" stroke-linejoin="miter" fill-opacity="0" stroke-miterlimit="4" stroke="rgb(53,49,72)" stroke-opacity="1" stroke-width="2.209" d=" M-60.268001556396484,-3.634999990463257 C-60.268001556396484,5.690000057220459 -36.145999908447266,13.258999824523926 -6.293000221252441,13.33899974822998 C-6.03000020980835,13.34000015258789 -5.814000129699707,13.553000450134277 -5.814000129699707,13.815999984741211 C-5.814000129699707,13.815999984741211 -5.828999996185303,48.685001373291016 -5.828999996185303,48.685001373291016 C-5.828999996185303,49.09199905395508 -6.1620001792907715,49.422000885009766 -6.568999767303467,49.41999816894531 C-36.301998138427734,49.297000885009766 -60.284000396728516,41.744998931884766 -60.284000396728516,32.446998596191406 C-60.284000396728516,32.446998596191406 -60.268001556396484,-3.634999990463257 -60.268001556396484,-3.634999990463257 C-60.268001556396484,-3.634999990463257 -60.268001556396484,-3.634999990463257 -60.268001556396484,-3.634999990463257 C-60.268001556396484,-3.634999990463257 -60.268001556396484,-3.634999990463257 -60.268001556396484,-3.634999990463257z"></path></g></g><g clip-path="url(#__lottie_element_486)" transform="matrix(1,0,0,1,41.75328063964844,60.805267333984375)" opacity="1" style="display: block;"><g mask="url(#__lottie_element_508_1)" style="display: block;"><g clip-path="url(#__lottie_element_505)" transform="matrix(1,0,0,1,0,0)" opacity="1"><g transform="matrix(1,0,0,1,0,0)" opacity="1" style="display: block;"><path fill="rgb(0,0,0)" fill-opacity="0" d=" M126,0 C126,0 126,128 126,128 C126,128 0,128 0,128 C0,128 0,0 0,0 C0,0 126,0 126,0z"></path></g><g clip-path="url(#__lottie_element_516)" transform="matrix(1,0,0,1,-1,0)" opacity="1" style="display: block;"><g mask="url(#__lottie_element_523_1)" style="display: block;"><g clip-path="url(#__lottie_element_520)" transform="matrix(1,0,0,1,0,0)" opacity="1"><g transform="matrix(1,0,0,1,1,0)" opacity="1" style="display: block;"><path fill="rgb(0,0,0)" fill-opacity="0" d=" M127,0 C127,0 127,128 127,128 C127,128 -1,128 -1,128 C-1,128 -1,0 -1,0 C-1,0 127,0 127,0z"></path></g><g transform="matrix(1,0,0,1,64,64)" opacity="1" style="display: block;"><path fill="rgb(0,0,0)" fill-opacity="0" d=" M63,-64 C63,-64 63,64 63,64 C63,64 -63,64 -63,64 C-63,64 -63,-64 -63,-64 C-63,-64 63,-64 63,-64z"></path></g><g transform="matrix(0.988044798374176,0.154167041182518,-0.154167041182518,0.988044798374176,62.796051025390625,45.174930572509766)" opacity="1" style="display: block;"><g opacity="1" transform="matrix(1,0.000004214720320305787,-0.000004214720320305787,1,-0.000064849853515625,-0.0001850128173828125)"><path fill="rgb(202,198,193)" fill-opacity="1" d=" M12.065999984741211,14.718000411987305 C10.604999542236328,10.866000175476074 11.133000373840332,6.541999816894531 13.47700023651123,3.1549999713897705 C13.47700023651123,3.1549999713897705 32.209999084472656,-23.908000946044922 32.209999084472656,-23.908000946044922 C35.16299819946289,-28.174999237060547 40.44300079345703,-30.177000045776367 45.481998443603516,-28.941999435424805 C45.481998443603516,-28.941999435424805 77.44999694824219,-21.106000900268555 77.44999694824219,-21.106000900268555 C81.45099639892578,-20.125 84.71299743652344,-17.238000869750977 86.17400360107422,-13.38700008392334 C86.17400360107422,-13.38700008392334 109.48899841308594,48.09299850463867 109.48899841308594,48.09299850463867 C111.94000244140625,54.55699920654297 108.68800354003906,61.784000396728516 102.2229995727539,64.23600006103516 C102.2229995727539,64.23600006103516 51.52399826049805,83.46299743652344 51.52399826049805,83.46299743652344 C45.060001373291016,85.91400146484375 37.832000732421875,82.66100311279297 35.38100051879883,76.1969985961914 C35.38100051879883,76.1969985961914 12.065999984741211,14.718000411987305 12.065999984741211,14.718000411987305 C12.065999984741211,14.718000411987305 12.065999984741211,14.718000411987305 12.065999984741211,14.718000411987305 C12.065999984741211,14.718000411987305 12.065999984741211,14.718000411987305 12.065999984741211,14.718000411987305z"></path></g></g></g></g></g></g></g></g><g transform="matrix(1,0,0,0.9399999976158142,106.75328063964844,114.22244262695312)" opacity="1" style="display: block;"><g opacity="1" transform="matrix(1,0,0,1,0,0)"><path stroke-linecap="round" stroke-linejoin="miter" fill-opacity="0" stroke-miterlimit="4" stroke="rgb(53,49,72)" stroke-opacity="1" stroke-width="2.209" d=" M-2.3410000801086426,71.29499816894531 C29.658000946044922,71.29499816894531 55.5989990234375,63.20899963378906 55.5989990234375,53.23400115966797 C55.5989990234375,53.23400115966797 55.5989990234375,-22.65999984741211 55.5989990234375,-22.65999984741211 C55.5989990234375,-23.02400016784668 55.33300018310547,-23.334999084472656 54.97200012207031,-23.388999938964844 C54.97200012207031,-23.388999938964844 -44.80500030517578,-38.382999420166016 -44.80500030517578,-38.382999420166016 C-45.0359992980957,-38.417999267578125 -45.270999908447266,-38.340999603271484 -45.43600082397461,-38.17499923706055 C-45.43600082397461,-38.17499923706055 -60.06700134277344,-23.510000228881836 -60.06700134277344,-23.510000228881836 C-60.20500183105469,-23.371999740600586 -60.28200149536133,-23.184999465942383 -60.28200149536133,-22.989999771118164 C-60.28200149536133,-22.989999771118164 -60.28200149536133,53.23400115966797 -60.28200149536133,53.23400115966797 C-60.28200149536133,63.20899963378906 -34.340999603271484,71.29499816894531 -2.3410000801086426,71.29499816894531 C-2.3410000801086426,71.29499816894531 -2.3410000801086426,71.29499816894531 -2.3410000801086426,71.29499816894531 C-2.3410000801086426,71.29499816894531 -2.3410000801086426,71.29499816894531 -2.3410000801086426,71.29499816894531z"></path></g><g opacity="1" transform="matrix(1,0,0,1,0,0)"><path stroke-linecap="round" stroke-linejoin="miter" fill-opacity="0" stroke-miterlimit="4" stroke="rgb(53,49,72)" stroke-opacity="1" stroke-width="2.209" d=" M55.5989990234375,41.965999603271484 C55.5989990234375,51.941001892089844 29.658000946044922,60.027000427246094 -2.3410000801086426,60.027000427246094 C-34.340999603271484,60.027000427246094 -60.28200149536133,51.941001892089844 -60.28200149536133,41.965999603271484"></path></g></g><g transform="matrix(1,0,0,0.9399999976158142,106.75328063964844,114.22244262695312)" opacity="1" style="display: block;"><g opacity="1" transform="matrix(0.9300000071525574,0,0,0.9300000071525574,-0.12887001037597656,-1.723470687866211)"><g opacity="1" transform="matrix(1,0,0,1,0,0)"><path fill="rgb(244,244,244)" fill-opacity="1" d=" M-2.3410000801086426,-14.720000267028809 C26.070999145507812,-14.720000267028809 49.104000091552734,-21.010000228881836 49.104000091552734,-28.768999099731445 C49.104000091552734,-28.768999099731445 49.104000091552734,-43.766998291015625 49.104000091552734,-43.766998291015625 C49.104000091552734,-44.17300033569336 48.7760009765625,-44.50199890136719 48.37099838256836,-44.50400161743164 C48.37099838256836,-44.50400161743164 -53.04800033569336,-44.917999267578125 -53.04800033569336,-44.917999267578125 C-53.45600128173828,-44.91999816894531 -53.7869987487793,-44.59000015258789 -53.7869987487793,-44.18199920654297 C-53.7869987487793,-44.18199920654297 -53.7869987487793,-28.768999099731445 -53.7869987487793,-28.768999099731445 C-53.7869987487793,-21.010000228881836 -30.753999710083008,-14.720000267028809 -2.3410000801086426,-14.720000267028809 C-2.3410000801086426,-14.720000267028809 -2.3410000801086426,-14.720000267028809 -2.3410000801086426,-14.720000267028809 C-2.3410000801086426,-14.720000267028809 -2.3410000801086426,-14.720000267028809 -2.3410000801086426,-14.720000267028809z"></path><path stroke-linecap="round" stroke-linejoin="miter" fill-opacity="0" stroke-miterlimit="4" stroke="rgb(53,49,72)" stroke-opacity="1" stroke-width="2.209" d=" M-2.3410000801086426,-14.720000267028809 C26.070999145507812,-14.720000267028809 49.104000091552734,-21.010000228881836 49.104000091552734,-28.768999099731445 C49.104000091552734,-28.768999099731445 49.104000091552734,-43.766998291015625 49.104000091552734,-43.766998291015625 C49.104000091552734,-44.17300033569336 48.7760009765625,-44.50199890136719 48.37099838256836,-44.50400161743164 C48.37099838256836,-44.50400161743164 -53.04800033569336,-44.917999267578125 -53.04800033569336,-44.917999267578125 C-53.45600128173828,-44.91999816894531 -53.7869987487793,-44.59000015258789 -53.7869987487793,-44.18199920654297 C-53.7869987487793,-44.18199920654297 -53.7869987487793,-28.768999099731445 -53.7869987487793,-28.768999099731445 C-53.7869987487793,-21.010000228881836 -30.753999710083008,-14.720000267028809 -2.3410000801086426,-14.720000267028809 C-2.3410000801086426,-14.720000267028809 -2.3410000801086426,-14.720000267028809 -2.3410000801086426,-14.720000267028809 C-2.3410000801086426,-14.720000267028809 -2.3410000801086426,-14.720000267028809 -2.3410000801086426,-14.720000267028809z"></path></g><g opacity="1" transform="matrix(1,0,0,1,0,0)"><path fill="rgb(202,198,193)" fill-opacity="1" d=" M-2.3410000801086426,-58.1349983215332 C26.07200050354004,-58.1349983215332 49.10499954223633,-51.84400177001953 49.10499954223633,-44.084999084472656 C49.10499954223633,-36.32600021362305 26.07200050354004,-30.035999298095703 -2.3410000801086426,-30.035999298095703 C-30.753999710083008,-30.035999298095703 -53.7869987487793,-36.32600021362305 -53.7869987487793,-44.084999084472656 C-53.7869987487793,-51.84400177001953 -30.753999710083008,-58.1349983215332 -2.3410000801086426,-58.1349983215332 C-2.3410000801086426,-58.1349983215332 -2.3410000801086426,-58.1349983215332 -2.3410000801086426,-58.1349983215332 C-2.3410000801086426,-58.1349983215332 -2.3410000801086426,-58.1349983215332 -2.3410000801086426,-58.1349983215332z"></path><path stroke-linecap="round" stroke-linejoin="miter" fill-opacity="0" stroke-miterlimit="4" stroke="rgb(53,49,72)" stroke-opacity="1" stroke-width="2.209" d=" M-2.3410000801086426,-58.1349983215332 C26.07200050354004,-58.1349983215332 49.10499954223633,-51.84400177001953 49.10499954223633,-44.084999084472656 C49.10499954223633,-36.32600021362305 26.07200050354004,-30.035999298095703 -2.3410000801086426,-30.035999298095703 C-30.753999710083008,-30.035999298095703 -53.7869987487793,-36.32600021362305 -53.7869987487793,-44.084999084472656 C-53.7869987487793,-51.84400177001953 -30.753999710083008,-58.1349983215332 -2.3410000801086426,-58.1349983215332 C-2.3410000801086426,-58.1349983215332 -2.3410000801086426,-58.1349983215332 -2.3410000801086426,-58.1349983215332 C-2.3410000801086426,-58.1349983215332 -2.3410000801086426,-58.1349983215332 -2.3410000801086426,-58.1349983215332z"></path></g></g></g><g transform="matrix(1,0,0,0.9399999976158142,103.75328063964844,164.80526733398438)" opacity="1" style="display: block;"><g opacity="1" transform="matrix(1,0,0,1,3,-54)"><g opacity="1" transform="matrix(1,0,0,1,0,0)"><path fill="rgb(53,49,72)" fill-opacity="1" d=" M-2.3410000801086426,-14.720000267028809 C26.070999145507812,-14.720000267028809 49.104000091552734,-21.010000228881836 49.104000091552734,-28.768999099731445 C49.104000091552734,-28.768999099731445 49.104000091552734,-43.766998291015625 49.104000091552734,-43.766998291015625 C49.104000091552734,-44.17300033569336 48.7760009765625,-44.50199890136719 48.37099838256836,-44.50400161743164 C48.37099838256836,-44.50400161743164 -53.04800033569336,-44.917999267578125 -53.04800033569336,-44.917999267578125 C-53.45600128173828,-44.91999816894531 -53.7869987487793,-44.59000015258789 -53.7869987487793,-44.18199920654297 C-53.7869987487793,-44.18199920654297 -53.7869987487793,-28.768999099731445 -53.7869987487793,-28.768999099731445 C-53.7869987487793,-21.010000228881836 -30.753999710083008,-14.720000267028809 -2.3410000801086426,-14.720000267028809 C-2.3410000801086426,-14.720000267028809 -2.3410000801086426,-14.720000267028809 -2.3410000801086426,-14.720000267028809 C-2.3410000801086426,-14.720000267028809 -2.3410000801086426,-14.720000267028809 -2.3410000801086426,-14.720000267028809z"></path><path stroke-linecap="round" stroke-linejoin="miter" fill-opacity="0" stroke-miterlimit="4" stroke="rgb(53,49,72)" stroke-opacity="1" stroke-width="2.209" d=" M-2.3410000801086426,-14.720000267028809 C26.070999145507812,-14.720000267028809 49.104000091552734,-21.010000228881836 49.104000091552734,-28.768999099731445 C49.104000091552734,-28.768999099731445 49.104000091552734,-43.766998291015625 49.104000091552734,-43.766998291015625 C49.104000091552734,-44.17300033569336 48.7760009765625,-44.50199890136719 48.37099838256836,-44.50400161743164 C48.37099838256836,-44.50400161743164 -53.04800033569336,-44.917999267578125 -53.04800033569336,-44.917999267578125 C-53.45600128173828,-44.91999816894531 -53.7869987487793,-44.59000015258789 -53.7869987487793,-44.18199920654297 C-53.7869987487793,-44.18199920654297 -53.7869987487793,-28.768999099731445 -53.7869987487793,-28.768999099731445 C-53.7869987487793,-21.010000228881836 -30.753999710083008,-14.720000267028809 -2.3410000801086426,-14.720000267028809 C-2.3410000801086426,-14.720000267028809 -2.3410000801086426,-14.720000267028809 -2.3410000801086426,-14.720000267028809 C-2.3410000801086426,-14.720000267028809 -2.3410000801086426,-14.720000267028809 -2.3410000801086426,-14.720000267028809z"></path></g><g opacity="1" transform="matrix(1,0,0,1,0,0)"><path fill="rgb(245,245,245)" fill-opacity="1" d=" M-2.3410000801086426,-58.1349983215332 C26.07200050354004,-58.1349983215332 49.10499954223633,-51.84400177001953 49.10499954223633,-44.084999084472656 C49.10499954223633,-36.32600021362305 26.07200050354004,-30.035999298095703 -2.3410000801086426,-30.035999298095703 C-30.753999710083008,-30.035999298095703 -53.7869987487793,-36.32600021362305 -53.7869987487793,-44.084999084472656 C-53.7869987487793,-51.84400177001953 -30.753999710083008,-58.1349983215332 -2.3410000801086426,-58.1349983215332 C-2.3410000801086426,-58.1349983215332 -2.3410000801086426,-58.1349983215332 -2.3410000801086426,-58.1349983215332 C-2.3410000801086426,-58.1349983215332 -2.3410000801086426,-58.1349983215332 -2.3410000801086426,-58.1349983215332z"></path><path stroke-linecap="round" stroke-linejoin="miter" fill-opacity="0" stroke-miterlimit="4" stroke="rgb(53,49,72)" stroke-opacity="1" stroke-width="2.209" d=" M-2.3410000801086426,-58.1349983215332 C26.07200050354004,-58.1349983215332 49.10499954223633,-51.84400177001953 49.10499954223633,-44.084999084472656 C49.10499954223633,-36.32600021362305 26.07200050354004,-30.035999298095703 -2.3410000801086426,-30.035999298095703 C-30.753999710083008,-30.035999298095703 -53.7869987487793,-36.32600021362305 -53.7869987487793,-44.084999084472656 C-53.7869987487793,-51.84400177001953 -30.753999710083008,-58.1349983215332 -2.3410000801086426,-58.1349983215332 C-2.3410000801086426,-58.1349983215332 -2.3410000801086426,-58.1349983215332 -2.3410000801086426,-58.1349983215332 C-2.3410000801086426,-58.1349983215332 -2.3410000801086426,-58.1349983215332 -2.3410000801086426,-58.1349983215332z"></path></g></g></g><g transform="matrix(0.9994683265686035,0.03260553628206253,-0.03260553628206253,0.9994683265686035,106.25411987304688,114.14376831054688)" opacity="1" style="display: block;"><g opacity="1" transform="matrix(1,0.000004214720320305787,-0.000004214720320305787,1,-0.000064849853515625,-0.0001850128173828125)"><g opacity="1" transform="matrix(1,0,0,1,0,0)"><path fill="rgb(216,232,78)" fill-opacity="1" d=" M12.065999984741211,14.718000411987305 C10.604999542236328,10.866000175476074 11.133000373840332,6.541999816894531 13.47700023651123,3.1549999713897705 C13.47700023651123,3.1549999713897705 32.209999084472656,-23.908000946044922 32.209999084472656,-23.908000946044922 C35.16299819946289,-28.174999237060547 40.44300079345703,-30.177000045776367 45.481998443603516,-28.941999435424805 C45.481998443603516,-28.941999435424805 77.44999694824219,-21.106000900268555 77.44999694824219,-21.106000900268555 C81.45099639892578,-20.125 84.71299743652344,-17.238000869750977 86.17400360107422,-13.38700008392334 C86.17400360107422,-13.38700008392334 109.48899841308594,48.09299850463867 109.48899841308594,48.09299850463867 C111.94000244140625,54.55699920654297 108.68800354003906,61.784000396728516 102.2229995727539,64.23600006103516 C102.2229995727539,64.23600006103516 51.52399826049805,83.46299743652344 51.52399826049805,83.46299743652344 C45.060001373291016,85.91400146484375 37.832000732421875,82.66100311279297 35.38100051879883,76.1969985961914 C35.38100051879883,76.1969985961914 12.065999984741211,14.718000411987305 12.065999984741211,14.718000411987305 C12.065999984741211,14.718000411987305 12.065999984741211,14.718000411987305 12.065999984741211,14.718000411987305 C12.065999984741211,14.718000411987305 12.065999984741211,14.718000411987305 12.065999984741211,14.718000411987305z"></path><path stroke-linecap="round" stroke-linejoin="miter" fill-opacity="0" stroke-miterlimit="4" stroke="rgb(53,49,72)" stroke-opacity="1" stroke-width="2.209" d=" M12.065999984741211,14.718000411987305 C10.604999542236328,10.866000175476074 11.133000373840332,6.541999816894531 13.47700023651123,3.1549999713897705 C13.47700023651123,3.1549999713897705 32.209999084472656,-23.908000946044922 32.209999084472656,-23.908000946044922 C35.16299819946289,-28.174999237060547 40.44300079345703,-30.177000045776367 45.481998443603516,-28.941999435424805 C45.481998443603516,-28.941999435424805 77.44999694824219,-21.106000900268555 77.44999694824219,-21.106000900268555 C81.45099639892578,-20.125 84.71299743652344,-17.238000869750977 86.17400360107422,-13.38700008392334 C86.17400360107422,-13.38700008392334 109.48899841308594,48.09299850463867 109.48899841308594,48.09299850463867 C111.94000244140625,54.55699920654297 108.68800354003906,61.784000396728516 102.2229995727539,64.23600006103516 C102.2229995727539,64.23600006103516 51.52399826049805,83.46299743652344 51.52399826049805,83.46299743652344 C45.060001373291016,85.91400146484375 37.832000732421875,82.66100311279297 35.38100051879883,76.1969985961914 C35.38100051879883,76.1969985961914 12.065999984741211,14.718000411987305 12.065999984741211,14.718000411987305 C12.065999984741211,14.718000411987305 12.065999984741211,14.718000411987305 12.065999984741211,14.718000411987305 C12.065999984741211,14.718000411987305 12.065999984741211,14.718000411987305 12.065999984741211,14.718000411987305z"></path></g><g opacity="1" transform="matrix(1,0,0,1,0,0)"><path fill="rgb(216,232,78)" fill-opacity="1" d=" M30.791000366210938,37.5099983215332 C28.339000701904297,31.04599952697754 31.591999053955078,23.819000244140625 38.055999755859375,21.367000579833984 C38.055999755859375,21.367000579833984 71.13099670410156,8.824000358581543 71.13099670410156,8.824000358581543 C77.59500122070312,6.373000144958496 84.8219985961914,9.62600040435791 87.27400207519531,16.09000015258789 C87.27400207519531,16.09000015258789 93.45500183105469,32.38800048828125 93.45500183105469,32.38800048828125 C95.90599822998047,38.85200119018555 92.65299987792969,46.08000183105469 86.18900299072266,48.53099822998047 C86.18900299072266,48.53099822998047 53.11399841308594,61.07400131225586 53.11399841308594,61.07400131225586 C46.650001525878906,63.5260009765625 39.42300033569336,60.27299880981445 36.97100067138672,53.808998107910156 C36.97100067138672,53.808998107910156 30.791000366210938,37.5099983215332 30.791000366210938,37.5099983215332 C30.791000366210938,37.5099983215332 30.791000366210938,37.5099983215332 30.791000366210938,37.5099983215332 C30.791000366210938,37.5099983215332 30.791000366210938,37.5099983215332 30.791000366210938,37.5099983215332z"></path><path stroke-linecap="round" stroke-linejoin="miter" fill-opacity="0" stroke-miterlimit="4" stroke="rgb(53,49,72)" stroke-opacity="1" stroke-width="2.209" d=" M30.791000366210938,37.5099983215332 C28.339000701904297,31.04599952697754 31.591999053955078,23.819000244140625 38.055999755859375,21.367000579833984 C38.055999755859375,21.367000579833984 71.13099670410156,8.824000358581543 71.13099670410156,8.824000358581543 C77.59500122070312,6.373000144958496 84.8219985961914,9.62600040435791 87.27400207519531,16.09000015258789 C87.27400207519531,16.09000015258789 93.45500183105469,32.38800048828125 93.45500183105469,32.38800048828125 C95.90599822998047,38.85200119018555 92.65299987792969,46.08000183105469 86.18900299072266,48.53099822998047 C86.18900299072266,48.53099822998047 53.11399841308594,61.07400131225586 53.11399841308594,61.07400131225586 C46.650001525878906,63.5260009765625 39.42300033569336,60.27299880981445 36.97100067138672,53.808998107910156 C36.97100067138672,53.808998107910156 30.791000366210938,37.5099983215332 30.791000366210938,37.5099983215332 C30.791000366210938,37.5099983215332 30.791000366210938,37.5099983215332 30.791000366210938,37.5099983215332 C30.791000366210938,37.5099983215332 30.791000366210938,37.5099983215332 30.791000366210938,37.5099983215332z"></path></g><g opacity="1" transform="matrix(1,0,0,1,0,0)"><path fill="rgb(53,49,72)" fill-opacity="1" d=" M67.0009994506836,44.31999969482422 C64.88600158691406,45.05699920654297 62.946998596191406,45.46200180053711 61.18299865722656,45.53499984741211 C59.4119987487793,45.5890007019043 57.77899932861328,45.31399917602539 56.28200149536133,44.709999084472656 C56.28200149536133,44.709999084472656 56.99800109863281,39.84700012207031 56.99800109863281,39.84700012207031 C58.43899917602539,40.28900146484375 59.880001068115234,40.53099822998047 61.321998596191406,40.57099914550781 C62.75699996948242,40.59299850463867 64.13700103759766,40.37300109863281 65.46399688720703,39.9109992980957 C66.01899719238281,39.71699905395508 66.53299713134766,39.487998962402344 67.00299835205078,39.222999572753906 C67.49199676513672,38.95199966430664 67.85700225830078,38.64400100708008 68.0979995727539,38.29899978637695 C68.33899688720703,37.952999114990234 68.38500213623047,37.564998626708984 68.23500061035156,37.1349983215332 C68.12300109863281,36.8120002746582 67.9010009765625,36.608001708984375 67.56900024414062,36.52299880981445 C67.23200225830078,36.41899871826172 66.83200073242188,36.39799880981445 66.37100219726562,36.45800018310547 C65.9209976196289,36.49399948120117 65.46600341796875,36.573001861572266 65.00499725341797,36.69300079345703 C64.53900146484375,36.79600143432617 64.13500213623047,36.90599822998047 63.79399871826172,37.025001525878906 C63.45399856567383,37.14400100708008 63.20500183105469,37.209999084472656 63.04999923706055,37.2239990234375 C61.34299850463867,37.518001556396484 59.83100128173828,37.62300109863281 58.51499938964844,37.53900146484375 C57.19300079345703,37.4370002746582 56.09299850463867,37.106998443603516 55.21500015258789,36.54899978637695 C54.33700180053711,35.9900016784668 53.70100021362305,35.14699935913086 53.30699920654297,34.016998291015625 C52.97600173950195,33.06700134277344 52.909000396728516,32.125999450683594 53.10599899291992,31.19300079345703 C53.30400085449219,30.259000778198242 53.70600128173828,29.395000457763672 54.3129997253418,28.60099983215332 C54.93199920654297,27.781999588012695 55.70600128173828,27.059999465942383 56.63399887084961,26.434999465942383 C57.58000183105469,25.80299949645996 58.625999450683594,25.288000106811523 59.77299880981445,24.88800048828125 C61.619998931884766,24.243999481201172 63.334999084472656,23.886999130249023 64.91799926757812,23.816999435424805 C66.51399993896484,23.722999572753906 68.08399963378906,23.93000030517578 69.62799835205078,24.437000274658203 C69.62799835205078,24.437000274658203 69.11199951171875,28.83799934387207 69.11199951171875,28.83799934387207 C67.9729995727539,28.511999130249023 66.75199890136719,28.385000228881836 65.44999694824219,28.457000732421875 C64.16699981689453,28.52199935913086 62.86199951171875,28.785999298095703 61.53499984741211,29.249000549316406 C60.90800094604492,29.468000411987305 60.35900115966797,29.708999633789062 59.88800048828125,29.974000930786133 C59.42900085449219,30.214000701904297 59.0880012512207,30.474000930786133 58.862998962402344,30.753000259399414 C58.65700149536133,31.025999069213867 58.606998443603516,31.315000534057617 58.7130012512207,31.6200008392334 C58.82600021362305,31.941999435424805 59.0629997253418,32.1609992980957 59.42499923706055,32.2760009765625 C59.779998779296875,32.374000549316406 60.19200134277344,32.4010009765625 60.659000396728516,32.358001708984375 C61.12699890136719,32.316001892089844 61.6150016784668,32.24599838256836 62.124000549316406,32.14899826049805 C62.62699890136719,32.034000396728516 63.07899856567383,31.91699981689453 63.479000091552734,31.797000885009766 C64.57499694824219,31.59600067138672 65.64399719238281,31.434999465942383 66.68699645996094,31.312000274658203 C67.7239990234375,31.172000885009766 68.7030029296875,31.18199920654297 69.62300109863281,31.3439998626709 C70.53800201416016,31.48699951171875 71.33499908447266,31.843000411987305 72.01499938964844,32.40999984741211 C72.70700073242188,32.95199966430664 73.24700164794922,33.77899932861328 73.63400268554688,34.89099884033203 C74.10900115966797,36.25299835205078 74.11799621582031,37.54600143432617 73.66100311279297,38.770999908447266 C73.21499633789062,39.97200012207031 72.40699768066406,41.05799865722656 71.23799896240234,42.02899932861328 C70.08000183105469,42.974998474121094 68.66799926757812,43.73899841308594 67.0009994506836,44.31999969482422 C67.0009994506836,44.31999969482422 67.0009994506836,44.31999969482422 67.0009994506836,44.31999969482422 C67.0009994506836,44.31999969482422 67.0009994506836,44.31999969482422 67.0009994506836,44.31999969482422z M65.74400329589844,47.20100021362305 C65.74400329589844,47.20100021362305 61.7859992980957,34.37799835205078 61.7859992980957,34.37799835205078 C61.7859992980957,34.37799835205078 64.21900177001953,34.525001525878906 64.21900177001953,34.525001525878906 C64.21900177001953,34.525001525878906 68.75499725341797,46.1510009765625 68.75499725341797,46.1510009765625 C68.75499725341797,46.1510009765625 65.74400329589844,47.20100021362305 65.74400329589844,47.20100021362305 C65.74400329589844,47.20100021362305 65.74400329589844,47.20100021362305 65.74400329589844,47.20100021362305 C65.74400329589844,47.20100021362305 65.74400329589844,47.20100021362305 65.74400329589844,47.20100021362305z M64.72200012207031,34.40999984741211 C64.72200012207031,34.40999984741211 62.28799819946289,34.26300048828125 62.28799819946289,34.26300048828125 C62.28799819946289,34.26300048828125 57.99599838256836,23.336000442504883 57.99599838256836,23.336000442504883 C57.99599838256836,23.336000442504883 61.00699996948242,22.285999298095703 61.00699996948242,22.285999298095703 C61.00699996948242,22.285999298095703 64.72200012207031,34.40999984741211 64.72200012207031,34.40999984741211 C64.72200012207031,34.40999984741211 64.72200012207031,34.40999984741211 64.72200012207031,34.40999984741211 C64.72200012207031,34.40999984741211 64.72200012207031,34.40999984741211 64.72200012207031,34.40999984741211z"></path><g opacity="1" transform="matrix(1,0,0,1,0,0)"></g><g opacity="1" transform="matrix(1,0,0,1,0,0)"></g><g opacity="1" transform="matrix(1,0,0,1,0,0)"></g></g><g opacity="1" transform="matrix(1,0,0,1,0,0)"><path fill="rgb(53,49,72)" fill-opacity="1" d=" M41.676998138427734,-19.913000106811523 C43.8489990234375,-20.73699951171875 46.2760009765625,-19.643999099731445 47.099998474121094,-17.472000122070312 C47.92399978637695,-15.300000190734863 46.83100128173828,-12.873000144958496 44.659000396728516,-12.048999786376953 C42.48699951171875,-11.225000381469727 40.060001373291016,-12.317999839782715 39.236000061035156,-14.489999771118164 C38.4119987487793,-16.66200065612793 39.505001068115234,-19.089000701904297 41.676998138427734,-19.913000106811523 C41.676998138427734,-19.913000106811523 41.676998138427734,-19.913000106811523 41.676998138427734,-19.913000106811523 C41.676998138427734,-19.913000106811523 41.676998138427734,-19.913000106811523 41.676998138427734,-19.913000106811523z"></path></g></g></g><g transform="matrix(1,0,0,0.9399999976158142,106.75328063964844,114.22244262695312)" opacity="1" style="display: block;"><g opacity="1" transform="matrix(1,0,0,1,0,0)"><path stroke-linecap="round" stroke-linejoin="miter" fill-opacity="0" stroke-miterlimit="4" stroke="rgb(53,49,72)" stroke-opacity="1" stroke-width="2.209" d=" M43.34700012207031,-16.89900016784668 C9.574000358581543,4.835999965667725 -56.28799819946289,-8.25100040435791 -60.874000549316406,-23.37299919128418 M-60.874000549316406,-23.37299919128418 C-60.95899963378906,-23.493999481201172 -61.04499816894531,-23.615999221801758 -61.13399887084961,-23.739999771118164 M-60.874000549316406,-23.37299919128418 M-60.874000549316406,-23.37299919128418"></path><g opacity="1" transform="matrix(1,0,0,1,0,0)"></g><g opacity="1" transform="matrix(1,0,0,1,0,0)"></g><g opacity="1" transform="matrix(1,0,0,1,0,0)"></g><g opacity="1" transform="matrix(1,0,0,1,0,0)"></g></g><g opacity="1" transform="matrix(0.9990231990814209,-0.044189319014549255,0.044189319014549255,0.9990231990814209,0.9714546203613281,-2.7015838623046875)"><g opacity="1" transform="matrix(0.996198832988739,-0.08710834383964539,0.08710834383964539,0.996198832988739,1.8174934387207031,-5.43585205078125)"><path stroke-linecap="round" stroke-linejoin="miter" fill-opacity="0" stroke-miterlimit="4" stroke="rgb(53,49,72)" stroke-opacity="1" stroke-width="2.209" d=" M-60.874000549316406,-23.37299919128418 M-60.874000549316406,-23.37299919128418 C-59.71500015258789,-28.749000549316406 -65.99971771240234,-46.80997085571289 -72.33328247070312,-43.95775604248047 C-80.72299194335938,-40.05718231201172 -67.11499786376953,-32.09600067138672 -61.13399887084961,-23.739999771118164 M-60.874000549316406,-23.37299919128418 C-71.16799926757812,-32.5099983215332 -86.06379699707031,-34.72686767578125 -87.2359848022461,-29.588438034057617 C-90.06736755371094,-16.861555099487305 -70.1729965209961,-24.695999145507812 -61.13399887084961,-23.739999771118164 M-60.874000549316406,-23.37299919128418 C-59.75199508666992,-19.89923858642578 -57.47793197631836,-8.710533142089844 -53.65509033203125,-1.5495648384094238 M-60.874000549316406,-23.37299919128418 C-61.233001708984375,-20.663000106811523 -64.9596939086914,-6.895513534545898 -65.3360824584961,0.8660466074943542"></path><g opacity="1" transform="matrix(1,0,0,1,0,0)"></g><g opacity="1" transform="matrix(1,0,0,1,0,0)"></g><g opacity="1" transform="matrix(1,0,0,1,0,0)"></g><g opacity="1" transform="matrix(1,0,0,1,0,0)"></g><g opacity="1" transform="matrix(1,0,0,1,0,0)"></g></g></g></g></g></svg>