<svg width="26" height="25" viewBox="0 0 26 25" fill="none" xmlns="http://www.w3.org/2000/svg">
<g clip-path="url(#clip0_145_441)">
<path d="M6.31948 8.04297H1.30069C1.07794 8.04297 0.897461 8.22353 0.897461 8.44619V24.5694C0.897461 24.7922 1.07794 24.9726 1.30069 24.9726H6.31948C6.54222 24.9726 6.7227 24.7922 6.7227 24.5694V8.44619C6.7227 8.22353 6.54222 8.04297 6.31948 8.04297Z" fill="white"/>
<path d="M3.81177 0.0273438C1.98565 0.0273438 0.5 1.51138 0.5 3.33549C0.5 5.16041 1.98565 6.64501 3.81177 6.64501C5.63645 6.64501 7.12089 5.16033 7.12089 3.33549C7.12097 1.51138 5.63645 0.0273438 3.81177 0.0273438Z" fill="white"/>
<path d="M19.0849 7.64209C17.0692 7.64209 15.5791 8.50862 14.6753 9.49322V8.44604C14.6753 8.22338 14.4948 8.04282 14.2721 8.04282H9.46573C9.24298 8.04282 9.0625 8.22338 9.0625 8.44604V24.5693C9.0625 24.792 9.24298 24.9725 9.46573 24.9725H14.4735C14.6963 24.9725 14.8768 24.792 14.8768 24.5693V16.592C14.8768 13.9039 15.6069 12.8566 17.4808 12.8566C19.5216 12.8566 19.6838 14.5355 19.6838 16.7303V24.5693C19.6838 24.7921 19.8643 24.9726 20.087 24.9726H25.0967C25.3194 24.9726 25.4999 24.7921 25.4999 24.5693V15.7255C25.4999 11.7283 24.7377 7.64209 19.0849 7.64209Z" fill="white"/>
</g>
<defs>
<clipPath id="clip0_145_441">
<rect width="25" height="25" fill="white" transform="translate(0.5)"/>
</clipPath>
</defs>
</svg>
