<svg width="40" height="40" viewBox="0 0 40 40" fill="none" xmlns="http://www.w3.org/2000/svg">
<rect width="40" height="40" rx="20" fill="#FF66C8"/>
<mask id="mask0_67_4474" style="mask-type:alpha" maskUnits="userSpaceOnUse" x="8" y="8" width="24" height="25">
<rect x="8" y="8.00195" width="24" height="24" fill="#D9D9D9"/>
</mask>
<g mask="url(#mask0_67_4474)">
<path d="M19.9998 21.4018L15.0998 26.3018C14.9165 26.4851 14.6831 26.5768 14.3998 26.5768C14.1165 26.5768 13.8831 26.4851 13.6998 26.3018C13.5165 26.1184 13.4248 25.8851 13.4248 25.6018C13.4248 25.3184 13.5165 25.0851 13.6998 24.9018L18.5998 20.0018L13.6998 15.1018C13.5165 14.9184 13.4248 14.6851 13.4248 14.4018C13.4248 14.1184 13.5165 13.8851 13.6998 13.7018C13.8831 13.5184 14.1165 13.4268 14.3998 13.4268C14.6831 13.4268 14.9165 13.5184 15.0998 13.7018L19.9998 18.6018L24.8998 13.7018C25.0831 13.5184 25.3165 13.4268 25.5998 13.4268C25.8831 13.4268 26.1165 13.5184 26.2998 13.7018C26.4831 13.8851 26.5748 14.1184 26.5748 14.4018C26.5748 14.6851 26.4831 14.9184 26.2998 15.1018L21.3998 20.0018L26.2998 24.9018C26.4831 25.0851 26.5748 25.3184 26.5748 25.6018C26.5748 25.8851 26.4831 26.1184 26.2998 26.3018C26.1165 26.4851 25.8831 26.5768 25.5998 26.5768C25.3165 26.5768 25.0831 26.4851 24.8998 26.3018L19.9998 21.4018Z" fill="black"/>
</g>
</svg>
