<svg width="125" height="126" viewBox="0 0 125 126" fill="none" xmlns="http://www.w3.org/2000/svg">
<g clip-path="url(#clip0_116_414)">
<rect width="236" height="32" transform="translate(1.62744 -49) rotate(45)" fill="#FF66C8"/>
<path d="M48.22 22.72L49.1024 21.8375L50.9353 23.6703C51.6518 24.3869 52.3269 24.7904 52.9604 24.8809C53.6015 24.9639 54.2276 24.6999 54.8385 24.0889C55.4042 23.5233 55.6569 22.9312 55.5965 22.3127C55.5513 21.6942 55.1817 21.038 54.4878 20.3441L52.5418 18.3981L53.4017 17.5383L55.3702 19.5069C55.8605 19.9971 56.2376 20.4874 56.5016 20.9777C56.7731 21.4755 56.9315 21.9657 56.9768 22.4485C57.022 22.9312 56.9504 23.4026 56.7618 23.8627C56.5883 24.3228 56.2904 24.764 55.868 25.1864C55.3099 25.7445 54.7103 26.0877 54.0692 26.2159C53.4281 26.3441 52.7568 26.2612 52.0553 25.967C51.3614 25.6653 50.6524 25.1524 49.9283 24.4283L48.22 22.72ZM45.3802 24.451L52.8473 16.9839L53.8881 18.0248L46.4211 25.4918L45.3802 24.451ZM55.3921 34.757C54.849 34.2139 54.4606 33.6445 54.2268 33.0486C54.0005 32.4603 53.9137 31.8531 53.9665 31.2271C54.0269 30.6086 54.2192 29.9939 54.5435 29.383C54.8754 28.7645 55.3355 28.1611 55.9238 27.5728C56.7837 26.7129 57.6435 26.1397 58.5033 25.8531C59.3707 25.5589 60.2042 25.5174 61.0037 25.7286C61.8032 25.9398 62.5235 26.366 63.1646 27.0071C63.6699 27.5124 64.0395 28.0555 64.2733 28.6363C64.5071 29.217 64.5977 29.8204 64.5449 30.4464C64.4996 31.08 64.311 31.7211 63.9792 32.3698C63.6549 33.0109 63.1834 33.6407 62.565 34.2592C61.9842 34.8399 61.3808 35.2925 60.7548 35.6168C60.1438 35.9411 59.5253 36.1297 58.8993 36.1825C58.2884 36.2353 57.685 36.1448 57.0891 35.911C56.5008 35.6847 55.9351 35.3 55.3921 34.757ZM56.2972 33.8745C56.7799 34.3572 57.3003 34.6514 57.8585 34.757C58.4317 34.8626 59.02 34.7871 59.6234 34.5307C60.2419 34.2743 60.8604 33.8368 61.4788 33.2183C62.12 32.5772 62.5725 31.9436 62.8365 31.3176C63.108 30.684 63.1948 30.0769 63.0967 29.4961C62.9987 28.9153 62.7083 28.3836 62.2256 27.9009C61.7655 27.4408 61.2488 27.1579 60.6756 27.0523C60.1023 26.9467 59.5027 27.0259 58.8767 27.2899C58.2507 27.5539 57.6133 28.0102 56.9647 28.6589C56.497 29.1265 56.1275 29.5941 55.8559 30.0618C55.5995 30.5294 55.4373 30.9857 55.3694 31.4307C55.3166 31.8757 55.3657 32.3019 55.5165 32.7092C55.6749 33.124 55.9351 33.5125 56.2972 33.8745ZM63.3896 37.8896L64.2721 37.0072L66.1049 38.84C66.8215 39.5565 67.4965 39.96 68.1301 40.0505C68.7712 40.1335 69.3972 39.8695 70.0081 39.2586C70.5738 38.6929 70.8265 38.1008 70.7662 37.4823C70.7209 36.8639 70.3513 36.2077 69.6574 35.5137L67.7115 33.5678L68.5713 32.708L70.5399 34.6765C71.0302 35.1668 71.4073 35.6571 71.6713 36.1473C71.9428 36.6451 72.1012 37.1354 72.1464 37.6181C72.1917 38.1008 72.12 38.5722 71.9315 39.0323C71.758 39.4924 71.4601 39.9336 71.0377 40.356C70.4796 40.9142 69.8799 41.2573 69.2388 41.3856C68.5977 41.5138 67.9264 41.4308 67.225 41.1367C66.5311 40.835 65.8221 40.3221 65.098 39.598L63.3896 37.8896ZM60.5499 39.6206L68.0169 32.1536L69.0578 33.1944L61.5907 40.6615L60.5499 39.6206ZM70.5288 49.8937C70.1215 49.4864 69.7972 49.0716 69.5559 48.6492C69.307 48.2344 69.141 47.8196 69.0581 47.4047C68.9826 46.9823 68.9789 46.5637 69.0467 46.1489C69.1222 45.7416 69.2692 45.3381 69.488 44.9383C69.7143 44.5461 70.016 44.1615 70.3931 43.7843L75.0204 39.157L76.0612 40.1979L71.4679 44.7913C71.0153 45.2438 70.7136 45.7039 70.5628 46.1715C70.4195 46.6316 70.4232 47.0955 70.5741 47.5631C70.7249 48.0307 71.0266 48.4908 71.4792 48.9434C71.9468 49.411 72.4069 49.7203 72.8595 49.8711C73.3271 50.022 73.791 50.0182 74.2511 49.8598C74.7187 49.7089 75.1788 49.4072 75.6313 48.9547L80.2247 44.3613L81.2542 45.3909L76.6269 50.0182C75.6766 50.9685 74.6772 51.4399 73.6288 51.4324C72.5804 51.4249 71.5471 50.912 70.5288 49.8937ZM75.6864 54.7571L83.1534 47.2901L84.1943 48.3309L76.7273 55.798L75.6864 54.7571ZM76.0258 55.0965L76.9309 54.1914L81.117 58.3775L80.2119 59.2826L76.0258 55.0965ZM81.1074 60.1782L91.1993 55.3359L92.7153 56.8519L87.873 66.9438L86.753 65.8237L91.154 57.033L91.0182 56.8972L82.2275 61.2982L81.1074 60.1782ZM84.0264 59.7482L84.8183 58.9563L89.2194 63.3573L88.4274 64.1493L84.0264 59.7482ZM89.1767 68.2474L96.6437 60.7804L99.2459 63.3825C99.623 63.7596 99.936 64.133 100.185 64.5026C100.441 64.8797 100.63 65.2493 100.751 65.6113C100.879 65.9809 100.939 66.3354 100.932 66.6748C100.932 67.0217 100.856 67.3536 100.705 67.6704C100.57 67.9872 100.362 68.2851 100.083 68.5642C99.8191 68.8282 99.5362 69.028 99.2345 69.1638C98.9404 69.3071 98.6312 69.3825 98.3068 69.3901C97.9825 69.3976 97.6506 69.3373 97.3112 69.2091C96.9793 69.0733 96.6399 68.8697 96.293 68.5981L96.1459 68.7452C96.3873 69.0469 96.5532 69.3561 96.6437 69.6729C96.7342 69.9897 96.7418 70.3291 96.6663 70.6912C96.5985 71.0457 96.4401 71.453 96.1912 71.913L94.9919 74.0626L93.8719 72.9426L95.0145 71.0306C95.2559 70.6535 95.3879 70.2876 95.4105 69.9331C95.4407 69.5862 95.3803 69.2468 95.2295 68.9149C95.0786 68.583 94.8411 68.2549 94.5167 67.9306L93.0459 66.4598L90.2175 69.2883L89.1767 68.2474ZM93.8945 65.6113L95.3653 67.0821C96.0365 67.7534 96.6626 68.138 97.2433 68.2361C97.8316 68.3417 98.3747 68.1456 98.8725 67.6478C99.3703 67.15 99.5702 66.6182 99.4721 66.0525C99.3892 65.4869 99.0045 64.8608 98.3181 64.1745L96.8247 62.6811L93.8945 65.6113Z" fill="white"/>
</g>
<defs>
<clipPath id="clip0_116_414">
<rect width="125" height="126" fill="white"/>
</clipPath>
</defs>
</svg>
