<svg width="40" height="40" viewBox="0 0 40 40" fill="none" xmlns="http://www.w3.org/2000/svg">
<rect width="40" height="40" rx="20" fill="#447EFF"/>
<mask id="mask0_116_424" style="mask-type:alpha" maskUnits="userSpaceOnUse" x="8" y="8" width="24" height="25">
<rect x="8" y="8.00195" width="24" height="24" fill="#D9D9D9"/>
</mask>
<g mask="url(#mask0_116_424)">
<path d="M17.5502 23.152L26.0252 14.677C26.2252 14.477 26.4627 14.377 26.7377 14.377C27.0127 14.377 27.2502 14.477 27.4502 14.677C27.6502 14.877 27.7502 15.1145 27.7502 15.3895C27.7502 15.6645 27.6502 15.902 27.4502 16.102L18.2502 25.302C18.0502 25.502 17.8169 25.602 17.5502 25.602C17.2835 25.602 17.0502 25.502 16.8502 25.302L12.5502 21.002C12.3502 20.802 12.2544 20.5645 12.2627 20.2895C12.271 20.0145 12.3752 19.777 12.5752 19.577C12.7752 19.377 13.0127 19.277 13.2877 19.277C13.5627 19.277 13.8002 19.377 14.0002 19.577L17.5502 23.152Z" fill="white"/>
</g>
</svg>
