<svg width="17" height="19" viewBox="0 0 17 19" fill="none" xmlns="http://www.w3.org/2000/svg">
<g clip-path="url(#clip0_74_1316)">
<g clip-path="url(#clip1_74_1316)">
<g clip-path="url(#clip2_74_1316)">
<path d="M8.23529 9.73267C-4.75695 8.30176 1.84089 -1.31191 8.23529 9.73267V9.73267Z" fill="black"/>
<path d="M8.2316 9.79652C-4.84338 9.63657 0.455597 19.9763 8.2316 9.79652V9.79652Z" fill="black"/>
<path d="M8.28604 9.83105C1.60555 20.7144 13.5023 21.4404 8.28604 9.83105V9.83105Z" fill="black"/>
<path d="M8.29444 9.70504C3.07812 -1.90435 14.9749 -1.1783 8.29444 9.70504V9.70504Z" fill="black"/>
<path d="M8.34473 9.80347C14.7391 20.8481 21.3369 11.2344 8.34473 9.80347V9.80347Z" fill="black"/>
<path d="M8.34863 9.73975C16.1246 -0.440034 21.4236 9.89969 8.34863 9.73975V9.73975Z" fill="black"/>
<path d="M9.55742 9.84601C9.13598 9.82029 8.73258 9.78654 8.34589 9.74467C8.34589 9.74467 8.34874 9.74224 8.34891 9.73964L8.34355 9.73931C8.5438 9.41622 8.7594 9.08493 8.99313 8.74431C8.7594 9.08493 8.52695 9.40606 8.29693 9.71037L8.29458 9.70501L8.29156 9.71004C8.10282 9.38017 7.91384 9.03333 7.72613 8.66699C7.91384 9.03333 8.08478 9.38821 8.24155 9.73309L8.23617 9.73276C8.23617 9.73276 8.23869 9.73552 8.23852 9.73812C7.84954 9.73134 7.44487 9.71709 7.02344 9.69137C7.44487 9.71709 7.84827 9.75084 8.23497 9.7927C8.23497 9.7927 8.23211 9.79514 8.23194 9.79774L8.23732 9.79807C8.03707 10.1212 7.82146 10.4525 7.58773 10.7931C7.82146 10.4525 8.05393 10.1313 8.28394 9.827L8.28629 9.83237L8.28932 9.82733C8.47805 10.1572 8.66702 10.5041 8.85473 10.8704C8.66702 10.5041 8.49609 10.1492 8.33932 9.80429L8.34468 9.80462C8.34468 9.80462 8.34216 9.80185 8.34233 9.79926C8.73131 9.80603 9.13598 9.82029 9.55742 9.84601Z" fill="black"/>
</g>
</g>
</g>
<defs>
<clipPath id="clip0_74_1316">
<rect width="16" height="18" fill="white" transform="translate(0.290039 0.952148)"/>
</clipPath>
<clipPath id="clip1_74_1316">
<rect width="16" height="18" fill="white" transform="translate(0.290039 0.952148)"/>
</clipPath>
<clipPath id="clip2_74_1316">
<rect width="16" height="18" fill="white" transform="translate(0.290039 0.952148)"/>
</clipPath>
</defs>
</svg>
