<svg width="555" height="280" viewBox="0 0 555 280" fill="none" xmlns="http://www.w3.org/2000/svg">
<rect width="554.81" height="280" rx="8" fill="#F3F3F3"/>
<rect x="0.5" y="0.5" width="553.81" height="279" rx="7.5" stroke="#0A0A0A" stroke-opacity="0.1" stroke-dasharray="3 2"/>
<path d="M1 29H153C157.418 29 161 32.5817 161 37V89C161 93.4183 157.418 97 153 97H1V29Z" fill="#0A0A0A"/>
<path d="M51.1944 61H47.585V50.8182H51.2242C52.2483 50.8182 53.13 51.022 53.8691 51.4297C54.6082 51.834 55.1766 52.4157 55.5743 53.1747C55.9754 53.9337 56.1759 54.8419 56.1759 55.8991C56.1759 56.9598 55.9754 57.8712 55.5743 58.6335C55.1766 59.3958 54.6049 59.9808 53.8591 60.3885C53.1167 60.7962 52.2285 61 51.1944 61ZM49.7377 59.1555H51.1049C51.7412 59.1555 52.2765 59.0429 52.7107 58.8175C53.1482 58.5888 53.4763 58.2358 53.6951 57.7585C53.9171 57.2779 54.0282 56.6581 54.0282 55.8991C54.0282 55.1468 53.9171 54.532 53.6951 54.0547C53.4763 53.5774 53.1499 53.2261 52.7157 53.0007C52.2815 52.7753 51.7462 52.6626 51.1098 52.6626H49.7377V59.1555ZM57.7308 61V53.3636H59.8487V61H57.7308ZM58.7947 52.3793C58.4798 52.3793 58.2097 52.2749 57.9843 52.0661C57.7623 51.8539 57.6512 51.6004 57.6512 51.3054C57.6512 51.0137 57.7623 50.7635 57.9843 50.5547C58.2097 50.3426 58.4798 50.2365 58.7947 50.2365C59.1096 50.2365 59.378 50.3426 59.6001 50.5547C59.8255 50.7635 59.9382 51.0137 59.9382 51.3054C59.9382 51.6004 59.8255 51.8539 59.6001 52.0661C59.378 52.2749 59.1096 52.3793 58.7947 52.3793ZM67.8989 55.5412L65.96 55.6605C65.9268 55.4948 65.8556 55.3456 65.7462 55.2131C65.6368 55.0772 65.4927 54.9695 65.3137 54.8899C65.138 54.8071 64.9276 54.7656 64.6823 54.7656C64.3542 54.7656 64.0774 54.8352 63.852 54.9744C63.6267 55.1103 63.514 55.2926 63.514 55.5213C63.514 55.7036 63.5869 55.8577 63.7327 55.9837C63.8786 56.1096 64.1288 56.2107 64.4834 56.2869L65.8655 56.5653C66.608 56.7178 67.1615 56.9631 67.526 57.3011C67.8906 57.6392 68.0729 58.0833 68.0729 58.6335C68.0729 59.134 67.9254 59.5732 67.6304 59.951C67.3388 60.3288 66.9377 60.6238 66.4273 60.8359C65.9202 61.0447 65.3352 61.1491 64.6723 61.1491C63.6615 61.1491 62.8561 60.9387 62.2562 60.5178C61.6596 60.0935 61.3099 59.5168 61.2071 58.7876L63.2902 58.6783C63.3532 58.9865 63.5057 59.2218 63.7476 59.3842C63.9896 59.5433 64.2995 59.6229 64.6773 59.6229C65.0485 59.6229 65.3468 59.5516 65.5722 59.4091C65.8009 59.2633 65.9169 59.076 65.9202 58.8473C65.9169 58.6551 65.8357 58.4976 65.6766 58.375C65.5175 58.2491 65.2723 58.1529 64.9408 58.0866L63.6184 57.8232C62.8726 57.674 62.3175 57.4155 61.9529 57.0476C61.5916 56.6797 61.411 56.2107 61.411 55.6406C61.411 55.1501 61.5436 54.7275 61.8087 54.3729C62.0772 54.0182 62.4534 53.7448 62.9373 53.5526C63.4245 53.3603 63.9946 53.2642 64.6475 53.2642C65.612 53.2642 66.371 53.468 66.9245 53.8757C67.4813 54.2834 67.8061 54.8385 67.8989 55.5412ZM72.8568 61.1491C72.0746 61.1491 71.4018 60.9834 70.8384 60.652C70.2782 60.3172 69.8474 59.8532 69.5457 59.2599C69.2475 58.6667 69.0983 57.9839 69.0983 57.2116C69.0983 56.4295 69.2491 55.7434 69.5507 55.1534C69.8556 54.5601 70.2882 54.0978 70.8483 53.7663C71.4084 53.4316 72.0746 53.2642 72.8469 53.2642C73.5131 53.2642 74.0964 53.3852 74.5969 53.6271C75.0974 53.8691 75.4934 54.2088 75.7851 54.6463C76.0768 55.0838 76.2375 55.5975 76.2673 56.1875H74.2688C74.2124 55.8063 74.0633 55.4998 73.8213 55.2678C73.5827 55.0324 73.2695 54.9148 72.8817 54.9148C72.5536 54.9148 72.2669 55.0043 72.0216 55.1832C71.7797 55.3589 71.5907 55.6158 71.4548 55.9538C71.319 56.2919 71.251 56.7012 71.251 57.1818C71.251 57.669 71.3173 58.0833 71.4499 58.4247C71.5858 58.7661 71.7763 59.0263 72.0216 59.2053C72.2669 59.3842 72.5536 59.4737 72.8817 59.4737C73.1236 59.4737 73.3407 59.424 73.533 59.3246C73.7285 59.2251 73.8893 59.081 74.0152 58.892C74.1445 58.6998 74.229 58.4695 74.2688 58.201H76.2673C76.2342 58.7843 76.0751 59.2981 75.7901 59.7422C75.5083 60.183 75.1189 60.5277 74.6217 60.7763C74.1246 61.0249 73.5363 61.1491 72.8568 61.1491ZM81.0736 61.1491C80.3014 61.1491 79.6335 60.9851 79.0701 60.657C78.5099 60.3255 78.0774 59.8648 77.7725 59.2749C77.4676 58.6816 77.3151 57.9938 77.3151 57.2116C77.3151 56.4228 77.4676 55.7334 77.7725 55.1435C78.0774 54.5502 78.5099 54.0895 79.0701 53.7614C79.6335 53.4299 80.3014 53.2642 81.0736 53.2642C81.8459 53.2642 82.5121 53.4299 83.0722 53.7614C83.6357 54.0895 84.0698 54.5502 84.3748 55.1435C84.6797 55.7334 84.8321 56.4228 84.8321 57.2116C84.8321 57.9938 84.6797 58.6816 84.3748 59.2749C84.0698 59.8648 83.6357 60.3255 83.0722 60.657C82.5121 60.9851 81.8459 61.1491 81.0736 61.1491ZM81.0836 59.5085C81.4349 59.5085 81.7282 59.4091 81.9635 59.2102C82.1989 59.008 82.3762 58.733 82.4955 58.3849C82.6181 58.0369 82.6795 57.6409 82.6795 57.1967C82.6795 56.7526 82.6181 56.3565 82.4955 56.0085C82.3762 55.6605 82.1989 55.3854 81.9635 55.1832C81.7282 54.9811 81.4349 54.88 81.0836 54.88C80.7289 54.88 80.4306 54.9811 80.1887 55.1832C79.95 55.3854 79.7694 55.6605 79.6468 56.0085C79.5275 56.3565 79.4678 56.7526 79.4678 57.1967C79.4678 57.6409 79.5275 58.0369 79.6468 58.3849C79.7694 58.733 79.95 59.008 80.1887 59.2102C80.4306 59.4091 80.7289 59.5085 81.0836 59.5085ZM93.0825 53.3636L90.4128 61H88.0264L85.3567 53.3636H87.5939L89.1798 58.8274H89.2594L90.8403 53.3636H93.0825ZM97.4003 61.1491C96.6148 61.1491 95.9387 60.9901 95.3719 60.6719C94.8085 60.3504 94.3743 59.8963 94.0694 59.3097C93.7644 58.7197 93.612 58.022 93.612 57.2166C93.612 56.4311 93.7644 55.7417 94.0694 55.1484C94.3743 54.5552 94.8035 54.0928 95.357 53.7614C95.9138 53.4299 96.5668 53.2642 97.3158 53.2642C97.8196 53.2642 98.2886 53.3454 98.7228 53.5078C99.1603 53.6669 99.5414 53.9072 99.8662 54.2287C100.194 54.5502 100.45 54.9545 100.632 55.4418C100.814 55.9257 100.905 56.4924 100.905 57.142V57.7237H94.4571V56.4112H98.9117C98.9117 56.1063 98.8454 55.8362 98.7128 55.6009C98.5803 55.3655 98.3963 55.1816 98.161 55.049C97.929 54.9131 97.6589 54.8452 97.3506 54.8452C97.0291 54.8452 96.7441 54.9197 96.4955 55.0689C96.2502 55.2147 96.058 55.4119 95.9188 55.6605C95.7796 55.9058 95.7083 56.1792 95.705 56.4808V57.7287C95.705 58.1065 95.7746 58.433 95.9138 58.7081C96.0563 58.9832 96.2569 59.1953 96.5154 59.3445C96.7739 59.4936 97.0805 59.5682 97.4351 59.5682C97.6705 59.5682 97.8859 59.535 98.0814 59.4688C98.277 59.4025 98.4444 59.303 98.5836 59.1705C98.7228 59.0379 98.8288 58.8755 98.9018 58.6832L100.861 58.8125C100.761 59.2831 100.557 59.6941 100.249 60.0455C99.9441 60.3935 99.5497 60.6652 99.0658 60.8608C98.5852 61.053 98.0301 61.1491 97.4003 61.1491ZM102.287 61V53.3636H104.341V54.696H104.42C104.559 54.2221 104.793 53.8641 105.121 53.6222C105.449 53.3769 105.827 53.2543 106.255 53.2543C106.361 53.2543 106.475 53.2609 106.598 53.2741C106.72 53.2874 106.828 53.3056 106.921 53.3288V55.2081C106.821 55.1783 106.684 55.1518 106.508 55.1286C106.333 55.1054 106.172 55.0938 106.026 55.0938C105.714 55.0938 105.436 55.1617 105.191 55.2976C104.949 55.4302 104.757 55.6158 104.614 55.8544C104.475 56.093 104.405 56.3681 104.405 56.6797V61H102.287ZM109.556 63.8636C109.287 63.8636 109.036 63.8421 108.8 63.799C108.568 63.7592 108.376 63.7079 108.223 63.6449L108.701 62.0639C108.949 62.1402 109.173 62.1816 109.372 62.1882C109.574 62.1948 109.748 62.1484 109.894 62.049C110.043 61.9496 110.164 61.7805 110.257 61.5419L110.381 61.2188L107.642 53.3636H109.869L111.45 58.9716H111.53L113.125 53.3636H115.368L112.4 61.8253C112.257 62.2363 112.063 62.5942 111.818 62.8991C111.576 63.2074 111.269 63.4444 110.898 63.6101C110.527 63.7791 110.08 63.8636 109.556 63.8636Z" fill="white"/>
<path d="M64.1989 73.3636C64.1989 72.4735 64.3161 71.6544 64.5505 70.9062C64.7849 70.1581 65.127 69.468 65.5768 68.8359H66.5498C66.3746 69.0703 66.2112 69.358 66.0597 69.6989C65.9082 70.0398 65.7756 70.4138 65.662 70.821C65.5484 71.2259 65.4596 71.6461 65.3957 72.0817C65.3317 72.5149 65.2998 72.9422 65.2998 73.3636C65.2998 73.9271 65.3554 74.4976 65.4667 75.0753C65.5779 75.6529 65.7283 76.1892 65.9177 76.6839C66.1071 77.1787 66.3178 77.5824 66.5498 77.8949H65.5768C65.127 77.2628 64.7849 76.5727 64.5505 75.8246C64.3161 75.0765 64.1989 74.2562 64.1989 73.3636ZM69.9143 69.7273V77H68.8134V70.8281H68.7708L67.0308 71.9645V70.9134L68.8454 69.7273H69.9143ZM74.7248 77L73.1197 71.5455H74.217L75.2859 75.5511H75.3392L76.4116 71.5455H77.5089L78.5743 75.5334H78.6275L79.6893 71.5455H80.7866L79.1851 77H78.102L76.994 73.0618H76.9123L75.8044 77H74.7248ZM83.4791 77.1101C82.9417 77.1101 82.4789 76.9953 82.0906 76.7656C81.7047 76.5336 81.4064 76.2081 81.1957 75.7891C80.9874 75.3677 80.8832 74.8741 80.8832 74.3082C80.8832 73.7495 80.9874 73.2571 81.1957 72.831C81.4064 72.4048 81.7 72.0722 82.0764 71.8331C82.4552 71.594 82.8979 71.4744 83.4045 71.4744C83.7123 71.4744 84.0106 71.5253 84.2994 71.6271C84.5882 71.7289 84.8475 71.8887 85.0771 72.1065C85.3068 72.3243 85.4879 72.6072 85.6204 72.9553C85.753 73.3009 85.8193 73.7211 85.8193 74.2159V74.5923H81.4834V73.7969H84.7788C84.7788 73.5175 84.722 73.2701 84.6084 73.0547C84.4947 72.8369 84.3349 72.6652 84.129 72.5398C83.9254 72.4143 83.6863 72.3516 83.4116 72.3516C83.1133 72.3516 82.8529 72.425 82.6304 72.5717C82.4102 72.7161 82.2398 72.9055 82.119 73.1399C82.0007 73.3719 81.9415 73.6241 81.9415 73.8963V74.5178C81.9415 74.8823 82.0054 75.1925 82.1332 75.4482C82.2634 75.7038 82.4445 75.8991 82.6766 76.0341C82.9086 76.1667 83.1796 76.233 83.4898 76.233C83.691 76.233 83.8745 76.2045 84.0402 76.1477C84.2059 76.0885 84.3491 76.0009 84.4699 75.8849C84.5906 75.7689 84.6829 75.6257 84.7469 75.4553L85.7518 75.6364C85.6713 75.9323 85.5269 76.1915 85.3186 76.4141C85.1126 76.6342 84.8534 76.8059 84.5409 76.929C84.2308 77.0497 83.8768 77.1101 83.4791 77.1101ZM88.8482 77.1101C88.3108 77.1101 87.848 76.9953 87.4598 76.7656C87.0739 76.5336 86.7756 76.2081 86.5649 75.7891C86.3565 75.3677 86.2524 74.8741 86.2524 74.3082C86.2524 73.7495 86.3565 73.2571 86.5649 72.831C86.7756 72.4048 87.0691 72.0722 87.4455 71.8331C87.8243 71.594 88.267 71.4744 88.7737 71.4744C89.0814 71.4744 89.3797 71.5253 89.6686 71.6271C89.9574 71.7289 90.2166 71.8887 90.4463 72.1065C90.6759 72.3243 90.857 72.6072 90.9896 72.9553C91.1222 73.3009 91.1884 73.7211 91.1884 74.2159V74.5923H86.8525V73.7969H90.148C90.148 73.5175 90.0911 73.2701 89.9775 73.0547C89.8639 72.8369 89.7041 72.6652 89.4981 72.5398C89.2945 72.4143 89.0554 72.3516 88.7808 72.3516C88.4825 72.3516 88.2221 72.425 87.9995 72.5717C87.7794 72.7161 87.6089 72.9055 87.4882 73.1399C87.3698 73.3719 87.3106 73.6241 87.3106 73.8963V74.5178C87.3106 74.8823 87.3745 75.1925 87.5024 75.4482C87.6326 75.7038 87.8137 75.8991 88.0457 76.0341C88.2777 76.1667 88.5488 76.233 88.8589 76.233C89.0601 76.233 89.2436 76.2045 89.4093 76.1477C89.575 76.0885 89.7183 76.0009 89.839 75.8849C89.9598 75.7689 90.0521 75.6257 90.116 75.4553L91.121 75.6364C91.0405 75.9323 90.8961 76.1915 90.6877 76.4141C90.4818 76.6342 90.2225 76.8059 89.91 76.929C89.5999 77.0497 89.246 77.1101 88.8482 77.1101ZM92.8431 75.1499L92.836 73.8537H93.0207L95.194 71.5455H96.4653L93.9866 74.1733H93.8197L92.8431 75.1499ZM91.8665 77V69.7273H92.9283V77H91.8665ZM95.3111 77L93.358 74.4077L94.0895 73.6655L96.6144 77H95.3111ZM98.9748 73.9815C98.9748 74.8741 98.8577 75.6944 98.6233 76.4425C98.3889 77.1906 98.0468 77.8807 97.597 78.5128H96.624C96.7992 78.2784 96.9625 77.9908 97.114 77.6499C97.2656 77.3089 97.3981 76.9361 97.5118 76.5312C97.6254 76.1241 97.7142 75.7027 97.7781 75.267C97.842 74.8314 97.874 74.4029 97.874 73.9815C97.874 73.4205 97.8184 72.8511 97.7071 72.2734C97.5958 71.6958 97.4455 71.1596 97.2561 70.6648C97.0667 70.17 96.856 69.7663 96.624 69.4538H97.597C98.0468 70.0859 98.3889 70.776 98.6233 71.5241C98.8577 72.2723 98.9748 73.0914 98.9748 73.9815Z" fill="white" fill-opacity="0.6"/>
<rect x="169" y="29" width="376.81" height="68" rx="8" fill="white" fill-opacity="0.3"/>
<rect x="9" y="105" width="140" height="70" rx="8" fill="white" fill-opacity="0.3"/>
<rect x="157" y="105" width="268.41" height="70" rx="8" fill="white"/>
<rect x="157.5" y="105.5" width="267.41" height="69" rx="7.5" stroke="#0A0A0A" stroke-opacity="0.1" stroke-dasharray="3 2"/>
<rect x="158" y="106" width="166.5" height="68" rx="8" fill="#0A0A0A"/>
<path d="M222.019 138H218.409V127.818H222.049C223.073 127.818 223.954 128.022 224.693 128.43C225.433 128.834 226.001 129.416 226.399 130.175C226.8 130.934 227 131.842 227 132.899C227 133.96 226.8 134.871 226.399 135.634C226.001 136.396 225.429 136.981 224.683 137.388C223.941 137.796 223.053 138 222.019 138ZM220.562 136.156H221.929C222.566 136.156 223.101 136.043 223.535 135.817C223.973 135.589 224.301 135.236 224.519 134.759C224.741 134.278 224.853 133.658 224.853 132.899C224.853 132.147 224.741 131.532 224.519 131.055C224.301 130.577 223.974 130.226 223.54 130.001C223.106 129.775 222.571 129.663 221.934 129.663H220.562V136.156ZM232.035 138.149C231.25 138.149 230.574 137.99 230.007 137.672C229.443 137.35 229.009 136.896 228.704 136.31C228.399 135.72 228.247 135.022 228.247 134.217C228.247 133.431 228.399 132.742 228.704 132.148C229.009 131.555 229.438 131.093 229.992 130.761C230.549 130.43 231.202 130.264 231.951 130.264C232.454 130.264 232.923 130.345 233.358 130.508C233.795 130.667 234.176 130.907 234.501 131.229C234.829 131.55 235.084 131.955 235.267 132.442C235.449 132.926 235.54 133.492 235.54 134.142V134.724H229.092V133.411H233.547C233.547 133.106 233.48 132.836 233.348 132.601C233.215 132.366 233.031 132.182 232.796 132.049C232.564 131.913 232.294 131.845 231.986 131.845C231.664 131.845 231.379 131.92 231.13 132.069C230.885 132.215 230.693 132.412 230.554 132.661C230.414 132.906 230.343 133.179 230.34 133.481V134.729C230.34 135.107 230.41 135.433 230.549 135.708C230.691 135.983 230.892 136.195 231.15 136.344C231.409 136.494 231.715 136.568 232.07 136.568C232.305 136.568 232.521 136.535 232.716 136.469C232.912 136.402 233.079 136.303 233.218 136.17C233.358 136.038 233.464 135.875 233.537 135.683L235.495 135.812C235.396 136.283 235.192 136.694 234.884 137.045C234.579 137.393 234.185 137.665 233.701 137.861C233.22 138.053 232.665 138.149 232.035 138.149ZM243.276 132.541L241.337 132.661C241.304 132.495 241.233 132.346 241.123 132.213C241.014 132.077 240.87 131.969 240.691 131.89C240.515 131.807 240.305 131.766 240.059 131.766C239.731 131.766 239.454 131.835 239.229 131.974C239.004 132.11 238.891 132.293 238.891 132.521C238.891 132.704 238.964 132.858 239.11 132.984C239.256 133.11 239.506 133.211 239.861 133.287L241.243 133.565C241.985 133.718 242.539 133.963 242.903 134.301C243.268 134.639 243.45 135.083 243.45 135.634C243.45 136.134 243.303 136.573 243.008 136.951C242.716 137.329 242.315 137.624 241.804 137.836C241.297 138.045 240.712 138.149 240.049 138.149C239.039 138.149 238.233 137.939 237.633 137.518C237.037 137.094 236.687 136.517 236.584 135.788L238.667 135.678C238.73 135.987 238.883 136.222 239.125 136.384C239.367 136.543 239.677 136.623 240.054 136.623C240.426 136.623 240.724 136.552 240.949 136.409C241.178 136.263 241.294 136.076 241.297 135.847C241.294 135.655 241.213 135.498 241.054 135.375C240.895 135.249 240.649 135.153 240.318 135.087L238.995 134.823C238.25 134.674 237.695 134.415 237.33 134.048C236.969 133.68 236.788 133.211 236.788 132.641C236.788 132.15 236.921 131.728 237.186 131.373C237.454 131.018 237.83 130.745 238.314 130.553C238.802 130.36 239.372 130.264 240.025 130.264C240.989 130.264 241.748 130.468 242.302 130.876C242.858 131.283 243.183 131.839 243.276 132.541ZM244.784 138V130.364H246.902V138H244.784ZM245.848 129.379C245.533 129.379 245.263 129.275 245.037 129.066C244.815 128.854 244.704 128.6 244.704 128.305C244.704 128.014 244.815 127.763 245.037 127.555C245.263 127.343 245.533 127.237 245.848 127.237C246.162 127.237 246.431 127.343 246.653 127.555C246.878 127.763 246.991 128.014 246.991 128.305C246.991 128.6 246.878 128.854 246.653 129.066C246.431 129.275 246.162 129.379 245.848 129.379ZM252.038 141.023C251.352 141.023 250.764 140.928 250.274 140.739C249.786 140.554 249.399 140.3 249.11 139.979C248.822 139.657 248.635 139.296 248.548 138.895L250.507 138.631C250.567 138.784 250.661 138.926 250.791 139.059C250.92 139.192 251.091 139.298 251.303 139.377C251.518 139.46 251.78 139.501 252.088 139.501C252.549 139.501 252.928 139.389 253.227 139.163C253.528 138.941 253.679 138.568 253.679 138.045V136.648H253.59C253.497 136.86 253.358 137.06 253.172 137.249C252.986 137.438 252.748 137.592 252.456 137.712C252.164 137.831 251.816 137.891 251.412 137.891C250.839 137.891 250.317 137.758 249.846 137.493C249.379 137.224 249.006 136.815 248.727 136.265C248.452 135.711 248.315 135.012 248.315 134.167C248.315 133.302 248.456 132.579 248.737 131.999C249.019 131.419 249.394 130.985 249.861 130.697C250.332 130.408 250.847 130.264 251.407 130.264C251.835 130.264 252.193 130.337 252.481 130.483C252.769 130.625 253.001 130.804 253.177 131.02C253.356 131.232 253.493 131.441 253.59 131.646H253.669V130.364H255.772V138.075C255.772 138.724 255.613 139.268 255.295 139.705C254.977 140.143 254.536 140.471 253.972 140.69C253.412 140.912 252.768 141.023 252.038 141.023ZM252.083 136.3C252.425 136.3 252.713 136.215 252.948 136.046C253.187 135.874 253.369 135.629 253.495 135.31C253.624 134.989 253.689 134.604 253.689 134.157C253.689 133.71 253.626 133.322 253.5 132.994C253.374 132.662 253.192 132.405 252.953 132.223C252.715 132.041 252.425 131.95 252.083 131.95C251.735 131.95 251.442 132.044 251.203 132.233C250.965 132.419 250.784 132.677 250.661 133.009C250.539 133.34 250.477 133.723 250.477 134.157C250.477 134.598 250.539 134.979 250.661 135.3C250.787 135.619 250.968 135.866 251.203 136.041C251.442 136.214 251.735 136.3 252.083 136.3ZM259.575 133.585V138H257.457V130.364H259.476V131.711H259.565C259.734 131.267 260.018 130.915 260.416 130.657C260.813 130.395 261.296 130.264 261.862 130.264C262.393 130.264 262.855 130.38 263.249 130.612C263.644 130.844 263.95 131.176 264.169 131.607C264.388 132.034 264.497 132.545 264.497 133.138V138H262.379V133.516C262.383 133.048 262.263 132.684 262.021 132.422C261.779 132.157 261.446 132.024 261.022 132.024C260.737 132.024 260.485 132.085 260.266 132.208C260.051 132.331 259.882 132.51 259.759 132.745C259.64 132.977 259.579 133.257 259.575 133.585Z" fill="white"/>
<path d="M221.023 150.364C221.023 149.473 221.141 148.654 221.375 147.906C221.609 147.158 221.951 146.468 222.401 145.836H223.374C223.199 146.07 223.036 146.358 222.884 146.699C222.733 147.04 222.6 147.414 222.486 147.821C222.373 148.226 222.284 148.646 222.22 149.082C222.156 149.515 222.124 149.942 222.124 150.364C222.124 150.927 222.18 151.498 222.291 152.075C222.402 152.653 222.553 153.189 222.742 153.684C222.931 154.179 223.142 154.582 223.374 154.895H222.401C221.951 154.263 221.609 153.573 221.375 152.825C221.141 152.076 221.023 151.256 221.023 150.364ZM223.979 154V153.205L226.44 150.655C226.703 150.378 226.92 150.135 227.09 149.927C227.263 149.716 227.392 149.516 227.477 149.327C227.563 149.137 227.605 148.936 227.605 148.723C227.605 148.482 227.548 148.273 227.435 148.098C227.321 147.92 227.166 147.784 226.97 147.69C226.773 147.593 226.552 147.544 226.305 147.544C226.045 147.544 225.818 147.597 225.624 147.704C225.43 147.81 225.28 147.961 225.176 148.155C225.072 148.349 225.02 148.576 225.02 148.837H223.972C223.972 148.394 224.074 148.007 224.278 147.675C224.481 147.344 224.761 147.087 225.116 146.905C225.471 146.72 225.875 146.628 226.327 146.628C226.784 146.628 227.186 146.719 227.534 146.901C227.885 147.081 228.158 147.327 228.354 147.64C228.551 147.95 228.649 148.3 228.649 148.691C228.649 148.961 228.598 149.225 228.497 149.483C228.397 149.741 228.223 150.029 227.974 150.346C227.726 150.661 227.38 151.043 226.938 151.493L225.492 153.006V153.059H228.766V154H223.979ZM232.955 154L231.35 148.545H232.448L233.517 152.551H233.57L234.642 148.545H235.74L236.805 152.533H236.858L237.92 148.545H239.017L237.416 154H236.333L235.225 150.062H235.143L234.035 154H232.955ZM241.71 154.11C241.172 154.11 240.71 153.995 240.321 153.766C239.935 153.534 239.637 153.208 239.426 152.789C239.218 152.368 239.114 151.874 239.114 151.308C239.114 150.75 239.218 150.257 239.426 149.831C239.637 149.405 239.931 149.072 240.307 148.833C240.686 148.594 241.129 148.474 241.635 148.474C241.943 148.474 242.241 148.525 242.53 148.627C242.819 148.729 243.078 148.889 243.308 149.107C243.537 149.324 243.719 149.607 243.851 149.955C243.984 150.301 244.05 150.721 244.05 151.216V151.592H239.714V150.797H243.009C243.009 150.518 242.953 150.27 242.839 150.055C242.725 149.837 242.566 149.665 242.36 149.54C242.156 149.414 241.917 149.352 241.642 149.352C241.344 149.352 241.084 149.425 240.861 149.572C240.641 149.716 240.47 149.906 240.35 150.14C240.231 150.372 240.172 150.624 240.172 150.896V151.518C240.172 151.882 240.236 152.192 240.364 152.448C240.494 152.704 240.675 152.899 240.907 153.034C241.139 153.167 241.41 153.233 241.72 153.233C241.922 153.233 242.105 153.205 242.271 153.148C242.437 153.089 242.58 153.001 242.701 152.885C242.821 152.769 242.914 152.626 242.978 152.455L243.982 152.636C243.902 152.932 243.758 153.192 243.549 153.414C243.343 153.634 243.084 153.806 242.772 153.929C242.461 154.05 242.107 154.11 241.71 154.11ZM247.079 154.11C246.541 154.11 246.079 153.995 245.69 153.766C245.305 153.534 245.006 153.208 244.796 152.789C244.587 152.368 244.483 151.874 244.483 151.308C244.483 150.75 244.587 150.257 244.796 149.831C245.006 149.405 245.3 149.072 245.676 148.833C246.055 148.594 246.498 148.474 247.004 148.474C247.312 148.474 247.61 148.525 247.899 148.627C248.188 148.729 248.447 148.889 248.677 149.107C248.907 149.324 249.088 149.607 249.22 149.955C249.353 150.301 249.419 150.721 249.419 151.216V151.592H245.083V150.797H248.379C248.379 150.518 248.322 150.27 248.208 150.055C248.095 149.837 247.935 149.665 247.729 149.54C247.525 149.414 247.286 149.352 247.011 149.352C246.713 149.352 246.453 149.425 246.23 149.572C246.01 149.716 245.84 149.906 245.719 150.14C245.6 150.372 245.541 150.624 245.541 150.896V151.518C245.541 151.882 245.605 152.192 245.733 152.448C245.863 152.704 246.044 152.899 246.276 153.034C246.508 153.167 246.779 153.233 247.09 153.233C247.291 153.233 247.474 153.205 247.64 153.148C247.806 153.089 247.949 153.001 248.07 152.885C248.19 152.769 248.283 152.626 248.347 152.455L249.352 152.636C249.271 152.932 249.127 153.192 248.918 153.414C248.712 153.634 248.453 153.806 248.141 153.929C247.831 154.05 247.477 154.11 247.079 154.11ZM251.074 152.15L251.067 150.854H251.251L253.425 148.545H254.696L252.217 151.173H252.05L251.074 152.15ZM250.097 154V146.727H251.159V154H250.097ZM253.542 154L251.589 151.408L252.32 150.665L254.845 154H253.542ZM259.251 149.877L258.289 150.048C258.248 149.924 258.184 149.807 258.097 149.696C258.012 149.585 257.896 149.494 257.749 149.423C257.602 149.352 257.419 149.316 257.198 149.316C256.898 149.316 256.647 149.384 256.446 149.518C256.244 149.651 256.144 149.823 256.144 150.033C256.144 150.216 256.211 150.362 256.346 150.474C256.481 150.585 256.699 150.676 257 150.747L257.866 150.946C258.368 151.062 258.742 151.241 258.988 151.482C259.234 151.724 259.357 152.037 259.357 152.423C259.357 152.75 259.263 153.041 259.073 153.297C258.886 153.55 258.625 153.749 258.289 153.893C257.955 154.038 257.568 154.11 257.127 154.11C256.517 154.11 256.018 153.98 255.632 153.719C255.246 153.457 255.01 153.084 254.922 152.601L255.948 152.445C256.012 152.712 256.144 152.915 256.343 153.052C256.541 153.187 256.801 153.254 257.12 153.254C257.468 153.254 257.746 153.182 257.955 153.038C258.163 152.891 258.267 152.712 258.267 152.501C258.267 152.331 258.203 152.188 258.076 152.072C257.95 151.956 257.757 151.868 257.497 151.809L256.573 151.607C256.064 151.491 255.688 151.306 255.444 151.053C255.203 150.799 255.082 150.478 255.082 150.09C255.082 149.768 255.172 149.487 255.352 149.245C255.532 149.004 255.78 148.815 256.098 148.68C256.415 148.543 256.778 148.474 257.188 148.474C257.777 148.474 258.241 148.602 258.58 148.858C258.918 149.111 259.142 149.451 259.251 149.877ZM262.067 150.982C262.067 151.874 261.95 152.694 261.715 153.442C261.481 154.191 261.139 154.881 260.689 155.513H259.716C259.891 155.278 260.055 154.991 260.206 154.65C260.358 154.309 260.49 153.936 260.604 153.531C260.717 153.124 260.806 152.703 260.87 152.267C260.934 151.831 260.966 151.403 260.966 150.982C260.966 150.42 260.91 149.851 260.799 149.273C260.688 148.696 260.537 148.16 260.348 147.665C260.159 147.17 259.948 146.766 259.716 146.454H260.689C261.139 147.086 261.481 147.776 261.715 148.524C261.95 149.272 262.067 150.091 262.067 150.982Z" fill="white" fill-opacity="0.6"/>
<rect x="433.41" y="105" width="112.41" height="70" rx="8" fill="white" fill-opacity="0.3"/>
<rect x="9" y="183" width="336.81" height="68" rx="8" fill="white" fill-opacity="0.3"/>
<path d="M353.811 191C353.811 186.582 357.392 183 361.811 183H553.811V251H361.811C357.392 251 353.811 247.418 353.811 243V191Z" fill="white"/>
<path d="M412.936 215H409.327V204.818H412.966C413.99 204.818 414.872 205.022 415.611 205.43C416.35 205.834 416.918 206.416 417.316 207.175C417.717 207.934 417.917 208.842 417.917 209.899C417.917 210.96 417.717 211.871 417.316 212.634C416.918 213.396 416.346 213.981 415.601 214.388C414.858 214.796 413.97 215 412.936 215ZM411.479 213.156H412.846C413.483 213.156 414.018 213.043 414.452 212.817C414.89 212.589 415.218 212.236 415.437 211.759C415.659 211.278 415.77 210.658 415.77 209.899C415.77 209.147 415.659 208.532 415.437 208.055C415.218 207.577 414.891 207.226 414.457 207.001C414.023 206.775 413.488 206.663 412.851 206.663H411.479V213.156ZM422.952 215.149C422.167 215.149 421.491 214.99 420.924 214.672C420.361 214.35 419.926 213.896 419.621 213.31C419.317 212.72 419.164 212.022 419.164 211.217C419.164 210.431 419.317 209.742 419.621 209.148C419.926 208.555 420.356 208.093 420.909 207.761C421.466 207.43 422.119 207.264 422.868 207.264C423.372 207.264 423.841 207.345 424.275 207.508C424.712 207.667 425.094 207.907 425.418 208.229C425.746 208.55 426.002 208.955 426.184 209.442C426.366 209.926 426.457 210.492 426.457 211.142V211.724H420.009V210.411H424.464C424.464 210.106 424.398 209.836 424.265 209.601C424.132 209.366 423.948 209.182 423.713 209.049C423.481 208.913 423.211 208.845 422.903 208.845C422.581 208.845 422.296 208.92 422.048 209.069C421.802 209.215 421.61 209.412 421.471 209.661C421.332 209.906 421.26 210.179 421.257 210.481V211.729C421.257 212.107 421.327 212.433 421.466 212.708C421.608 212.983 421.809 213.195 422.068 213.344C422.326 213.494 422.633 213.568 422.987 213.568C423.223 213.568 423.438 213.535 423.634 213.469C423.829 213.402 423.996 213.303 424.136 213.17C424.275 213.038 424.381 212.875 424.454 212.683L426.413 212.812C426.313 213.283 426.109 213.694 425.801 214.045C425.496 214.393 425.102 214.665 424.618 214.861C424.137 215.053 423.582 215.149 422.952 215.149ZM434.754 207.364L432.084 215H429.698L427.028 207.364H429.265L430.851 212.827H430.931L432.512 207.364H434.754ZM439.072 215.149C438.286 215.149 437.61 214.99 437.043 214.672C436.48 214.35 436.046 213.896 435.741 213.31C435.436 212.72 435.283 212.022 435.283 211.217C435.283 210.431 435.436 209.742 435.741 209.148C436.046 208.555 436.475 208.093 437.028 207.761C437.585 207.43 438.238 207.264 438.987 207.264C439.491 207.264 439.96 207.345 440.394 207.508C440.832 207.667 441.213 207.907 441.538 208.229C441.866 208.55 442.121 208.955 442.303 209.442C442.485 209.926 442.577 210.492 442.577 211.142V211.724H436.128V210.411H440.583C440.583 210.106 440.517 209.836 440.384 209.601C440.252 209.366 440.068 209.182 439.832 209.049C439.6 208.913 439.33 208.845 439.022 208.845C438.7 208.845 438.415 208.92 438.167 209.069C437.922 209.215 437.729 209.412 437.59 209.661C437.451 209.906 437.38 210.179 437.376 210.481V211.729C437.376 212.107 437.446 212.433 437.585 212.708C437.728 212.983 437.928 213.195 438.187 213.344C438.445 213.494 438.752 213.568 439.106 213.568C439.342 213.568 439.557 213.535 439.753 213.469C439.948 213.402 440.116 213.303 440.255 213.17C440.394 213.038 440.5 212.875 440.573 212.683L442.532 212.812C442.432 213.283 442.229 213.694 441.92 214.045C441.615 214.393 441.221 214.665 440.737 214.861C440.256 215.053 439.701 215.149 439.072 215.149ZM446.077 204.818V215H443.959V204.818H446.077ZM451.223 215.149C450.451 215.149 449.783 214.985 449.22 214.657C448.66 214.326 448.227 213.865 447.922 213.275C447.617 212.682 447.465 211.994 447.465 211.212C447.465 210.423 447.617 209.733 447.922 209.143C448.227 208.55 448.66 208.089 449.22 207.761C449.783 207.43 450.451 207.264 451.223 207.264C451.996 207.264 452.662 207.43 453.222 207.761C453.785 208.089 454.22 208.55 454.525 209.143C454.829 209.733 454.982 210.423 454.982 211.212C454.982 211.994 454.829 212.682 454.525 213.275C454.22 213.865 453.785 214.326 453.222 214.657C452.662 214.985 451.996 215.149 451.223 215.149ZM451.233 213.509C451.585 213.509 451.878 213.409 452.113 213.21C452.349 213.008 452.526 212.733 452.645 212.385C452.768 212.037 452.829 211.641 452.829 211.197C452.829 210.753 452.768 210.357 452.645 210.009C452.526 209.661 452.349 209.385 452.113 209.183C451.878 208.981 451.585 208.88 451.233 208.88C450.879 208.88 450.58 208.981 450.338 209.183C450.1 209.385 449.919 209.661 449.797 210.009C449.677 210.357 449.618 210.753 449.618 211.197C449.618 211.641 449.677 212.037 449.797 212.385C449.919 212.733 450.1 213.008 450.338 213.21C450.58 213.409 450.879 213.509 451.233 213.509ZM456.359 217.864V207.364H458.447V208.646H458.542C458.634 208.441 458.769 208.232 458.944 208.02C459.123 207.804 459.355 207.625 459.64 207.483C459.929 207.337 460.287 207.264 460.714 207.264C461.271 207.264 461.785 207.41 462.255 207.702C462.726 207.99 463.102 208.426 463.384 209.009C463.666 209.589 463.807 210.317 463.807 211.192C463.807 212.044 463.669 212.763 463.394 213.349C463.122 213.933 462.751 214.375 462.28 214.677C461.813 214.975 461.289 215.124 460.709 215.124C460.298 215.124 459.949 215.056 459.66 214.92C459.375 214.785 459.141 214.614 458.959 214.408C458.777 214.2 458.638 213.989 458.542 213.777H458.477V217.864H456.359ZM458.432 211.182C458.432 211.636 458.495 212.032 458.621 212.37C458.747 212.708 458.929 212.972 459.168 213.161C459.407 213.346 459.697 213.439 460.038 213.439C460.383 213.439 460.674 213.344 460.913 213.156C461.152 212.963 461.332 212.698 461.455 212.36C461.581 212.019 461.644 211.626 461.644 211.182C461.644 210.741 461.583 210.353 461.46 210.018C461.337 209.684 461.157 209.422 460.918 209.233C460.679 209.044 460.386 208.95 460.038 208.95C459.693 208.95 459.402 209.041 459.163 209.223C458.928 209.405 458.747 209.664 458.621 209.999C458.495 210.333 458.432 210.728 458.432 211.182ZM465.218 215V207.364H467.237V208.711H467.326C467.485 208.263 467.751 207.911 468.122 207.652C468.493 207.393 468.937 207.264 469.454 207.264C469.978 207.264 470.424 207.395 470.792 207.657C471.159 207.915 471.405 208.267 471.527 208.711H471.607C471.763 208.273 472.044 207.924 472.452 207.662C472.863 207.397 473.349 207.264 473.909 207.264C474.621 207.264 475.2 207.491 475.644 207.945C476.091 208.396 476.315 209.036 476.315 209.864V215H474.202V210.282C474.202 209.858 474.089 209.54 473.864 209.327C473.639 209.115 473.357 209.009 473.019 209.009C472.634 209.009 472.334 209.132 472.119 209.377C471.904 209.619 471.796 209.939 471.796 210.337V215H469.743V210.237C469.743 209.863 469.635 209.564 469.419 209.342C469.207 209.12 468.927 209.009 468.579 209.009C468.344 209.009 468.132 209.069 467.943 209.188C467.757 209.304 467.61 209.468 467.5 209.68C467.391 209.889 467.336 210.134 467.336 210.416V215H465.218ZM481.468 215.149C480.683 215.149 480.006 214.99 479.44 214.672C478.876 214.35 478.442 213.896 478.137 213.31C477.832 212.72 477.68 212.022 477.68 211.217C477.68 210.431 477.832 209.742 478.137 209.148C478.442 208.555 478.871 208.093 479.425 207.761C479.982 207.43 480.635 207.264 481.384 207.264C481.887 207.264 482.356 207.345 482.791 207.508C483.228 207.667 483.609 207.907 483.934 208.229C484.262 208.55 484.517 208.955 484.7 209.442C484.882 209.926 484.973 210.492 484.973 211.142V211.724H478.525V210.411H482.979C482.979 210.106 482.913 209.836 482.781 209.601C482.648 209.366 482.464 209.182 482.229 209.049C481.997 208.913 481.727 208.845 481.418 208.845C481.097 208.845 480.812 208.92 480.563 209.069C480.318 209.215 480.126 209.412 479.987 209.661C479.847 209.906 479.776 210.179 479.773 210.481V211.729C479.773 212.107 479.842 212.433 479.982 212.708C480.124 212.983 480.325 213.195 480.583 213.344C480.842 213.494 481.148 213.568 481.503 213.568C481.738 213.568 481.954 213.535 482.149 213.469C482.345 213.402 482.512 213.303 482.651 213.17C482.791 213.038 482.897 212.875 482.969 212.683L484.928 212.812C484.829 213.283 484.625 213.694 484.317 214.045C484.012 214.393 483.617 214.665 483.134 214.861C482.653 215.053 482.098 215.149 481.468 215.149ZM488.473 210.585V215H486.355V207.364H488.374V208.711H488.463C488.632 208.267 488.916 207.915 489.313 207.657C489.711 207.395 490.193 207.264 490.76 207.264C491.29 207.264 491.753 207.38 492.147 207.612C492.541 207.844 492.848 208.176 493.067 208.607C493.286 209.034 493.395 209.545 493.395 210.138V215H491.277V210.516C491.28 210.048 491.161 209.684 490.919 209.422C490.677 209.157 490.344 209.024 489.92 209.024C489.635 209.024 489.383 209.085 489.164 209.208C488.949 209.331 488.78 209.51 488.657 209.745C488.538 209.977 488.476 210.257 488.473 210.585ZM499.126 207.364V208.955H494.527V207.364H499.126ZM495.571 205.534H497.689V212.653C497.689 212.849 497.719 213.001 497.779 213.111C497.838 213.217 497.921 213.291 498.027 213.335C498.137 213.378 498.263 213.399 498.405 213.399C498.504 213.399 498.604 213.391 498.703 213.374C498.803 213.354 498.879 213.339 498.932 213.33L499.265 214.906C499.159 214.939 499.01 214.977 498.818 215.02C498.625 215.066 498.392 215.094 498.117 215.104C497.606 215.124 497.159 215.056 496.774 214.901C496.393 214.745 496.097 214.503 495.884 214.175C495.672 213.847 495.568 213.432 495.571 212.932V205.534Z" fill="#0A0A0A"/>
<path d="M429.813 227.364C429.813 226.473 429.93 225.654 430.164 224.906C430.399 224.158 430.741 223.468 431.19 222.836H432.164C431.988 223.07 431.825 223.358 431.673 223.699C431.522 224.04 431.389 224.414 431.276 224.821C431.162 225.226 431.073 225.646 431.009 226.082C430.945 226.515 430.914 226.942 430.914 227.364C430.914 227.927 430.969 228.498 431.08 229.075C431.192 229.653 431.342 230.189 431.531 230.684C431.721 231.179 431.931 231.582 432.164 231.895H431.19C430.741 231.263 430.399 230.573 430.164 229.825C429.93 229.076 429.813 228.256 429.813 227.364ZM435.528 223.727V231H434.427V224.828H434.385L432.645 225.964V224.913L434.459 223.727H435.528ZM440.223 226.902V227.825H436.999V226.902H440.223ZM440.831 231V230.205L443.292 227.655C443.555 227.378 443.772 227.135 443.942 226.927C444.115 226.716 444.244 226.516 444.329 226.327C444.414 226.137 444.457 225.936 444.457 225.723C444.457 225.482 444.4 225.273 444.287 225.098C444.173 224.92 444.018 224.784 443.821 224.69C443.625 224.593 443.404 224.544 443.157 224.544C442.897 224.544 442.67 224.597 442.475 224.704C442.281 224.81 442.132 224.961 442.028 225.155C441.924 225.349 441.872 225.576 441.872 225.837H440.824C440.824 225.394 440.926 225.007 441.13 224.675C441.333 224.344 441.613 224.087 441.968 223.905C442.323 223.72 442.726 223.628 443.179 223.628C443.636 223.628 444.038 223.719 444.386 223.901C444.736 224.081 445.01 224.327 445.206 224.64C445.403 224.95 445.501 225.3 445.501 225.691C445.501 225.961 445.45 226.225 445.348 226.483C445.249 226.741 445.075 227.029 444.826 227.346C444.578 227.661 444.232 228.043 443.789 228.493L442.344 230.006V230.059H445.618V231H440.831ZM449.807 231L448.202 225.545H449.3L450.368 229.551H450.422L451.494 225.545H452.591L453.657 229.533H453.71L454.772 225.545H455.869L454.268 231H453.184L452.076 227.062H451.995L450.887 231H449.807ZM458.562 231.11C458.024 231.11 457.561 230.995 457.173 230.766C456.787 230.534 456.489 230.208 456.278 229.789C456.07 229.368 455.966 228.874 455.966 228.308C455.966 227.75 456.07 227.257 456.278 226.831C456.489 226.405 456.782 226.072 457.159 225.833C457.538 225.594 457.98 225.474 458.487 225.474C458.795 225.474 459.093 225.525 459.382 225.627C459.671 225.729 459.93 225.889 460.16 226.107C460.389 226.324 460.57 226.607 460.703 226.955C460.835 227.301 460.902 227.721 460.902 228.216V228.592H456.566V227.797H459.861C459.861 227.518 459.804 227.27 459.691 227.055C459.577 226.837 459.417 226.665 459.211 226.54C459.008 226.414 458.769 226.352 458.494 226.352C458.196 226.352 457.935 226.425 457.713 226.572C457.493 226.716 457.322 226.906 457.201 227.14C457.083 227.372 457.024 227.624 457.024 227.896V228.518C457.024 228.882 457.088 229.192 457.216 229.448C457.346 229.704 457.527 229.899 457.759 230.034C457.991 230.167 458.262 230.233 458.572 230.233C458.773 230.233 458.957 230.205 459.123 230.148C459.288 230.089 459.432 230.001 459.552 229.885C459.673 229.769 459.765 229.626 459.829 229.455L460.834 229.636C460.754 229.932 460.609 230.192 460.401 230.414C460.195 230.634 459.936 230.806 459.623 230.929C459.313 231.05 458.959 231.11 458.562 231.11ZM463.931 231.11C463.393 231.11 462.93 230.995 462.542 230.766C462.156 230.534 461.858 230.208 461.647 229.789C461.439 229.368 461.335 228.874 461.335 228.308C461.335 227.75 461.439 227.257 461.647 226.831C461.858 226.405 462.152 226.072 462.528 225.833C462.907 225.594 463.35 225.474 463.856 225.474C464.164 225.474 464.462 225.525 464.751 225.627C465.04 225.729 465.299 225.889 465.529 226.107C465.758 226.324 465.939 226.607 466.072 226.955C466.205 227.301 466.271 227.721 466.271 228.216V228.592H461.935V227.797H465.23C465.23 227.518 465.174 227.27 465.06 227.055C464.946 226.837 464.787 226.665 464.581 226.54C464.377 226.414 464.138 226.352 463.863 226.352C463.565 226.352 463.305 226.425 463.082 226.572C462.862 226.716 462.691 226.906 462.571 227.14C462.452 227.372 462.393 227.624 462.393 227.896V228.518C462.393 228.882 462.457 229.192 462.585 229.448C462.715 229.704 462.896 229.899 463.128 230.034C463.36 230.167 463.631 230.233 463.941 230.233C464.143 230.233 464.326 230.205 464.492 230.148C464.658 230.089 464.801 230.001 464.921 229.885C465.042 229.769 465.135 229.626 465.198 229.455L466.203 229.636C466.123 229.932 465.979 230.192 465.77 230.414C465.564 230.634 465.305 230.806 464.993 230.929C464.682 231.05 464.328 231.11 463.931 231.11ZM467.926 229.15L467.918 227.854H468.103L470.276 225.545H471.548L469.069 228.173H468.902L467.926 229.15ZM466.949 231V223.727H468.011V231H466.949ZM470.394 231L468.44 228.408L469.172 227.665L471.697 231H470.394ZM476.103 226.877L475.14 227.048C475.1 226.924 475.036 226.807 474.949 226.696C474.863 226.585 474.747 226.494 474.601 226.423C474.454 226.352 474.27 226.316 474.05 226.316C473.75 226.316 473.499 226.384 473.297 226.518C473.096 226.651 472.996 226.823 472.996 227.033C472.996 227.216 473.063 227.362 473.198 227.474C473.333 227.585 473.551 227.676 473.851 227.747L474.718 227.946C475.22 228.062 475.594 228.241 475.84 228.482C476.086 228.724 476.209 229.037 476.209 229.423C476.209 229.75 476.115 230.041 475.925 230.297C475.738 230.55 475.477 230.749 475.14 230.893C474.807 231.038 474.42 231.11 473.979 231.11C473.368 231.11 472.87 230.98 472.484 230.719C472.098 230.457 471.862 230.084 471.774 229.601L472.8 229.445C472.864 229.712 472.996 229.915 473.194 230.052C473.393 230.187 473.652 230.254 473.972 230.254C474.32 230.254 474.598 230.182 474.807 230.038C475.015 229.891 475.119 229.712 475.119 229.501C475.119 229.331 475.055 229.188 474.927 229.072C474.802 228.956 474.609 228.868 474.349 228.809L473.425 228.607C472.916 228.491 472.54 228.306 472.296 228.053C472.054 227.799 471.934 227.478 471.934 227.09C471.934 226.768 472.024 226.487 472.204 226.245C472.384 226.004 472.632 225.815 472.949 225.68C473.267 225.543 473.63 225.474 474.04 225.474C474.629 225.474 475.093 225.602 475.432 225.858C475.77 226.111 475.994 226.451 476.103 226.877ZM478.919 227.982C478.919 228.874 478.801 229.694 478.567 230.442C478.333 231.191 477.991 231.881 477.541 232.513H476.568C476.743 232.278 476.906 231.991 477.058 231.65C477.209 231.309 477.342 230.936 477.456 230.531C477.569 230.124 477.658 229.703 477.722 229.267C477.786 228.831 477.818 228.403 477.818 227.982C477.818 227.42 477.762 226.851 477.651 226.273C477.54 225.696 477.389 225.16 477.2 224.665C477.011 224.17 476.8 223.766 476.568 223.454H477.541C477.991 224.086 478.333 224.776 478.567 225.524C478.801 226.272 478.919 227.091 478.919 227.982Z" fill="#0A0A0A" fill-opacity="0.6"/>
</svg>
