<svg width="555" height="280" viewBox="0 0 555 280" fill="none" xmlns="http://www.w3.org/2000/svg">
<rect width="554.81" height="280" rx="8" fill="#F3F3F3"/>
<rect x="0.5" y="0.5" width="553.81" height="279" rx="7.5" stroke="#0A0A0A" stroke-opacity="0.1" stroke-dasharray="3 2"/>
<rect x="33.9297" y="43.9004" width="310" height="51" rx="8" transform="rotate(1.89059 33.9297 43.9004)" fill="#0A0A0A"/>
<rect x="164.061" y="177.619" width="340" height="78" rx="8" transform="rotate(-2.89059 164.061 177.619)" fill="white"/>
<g clip-path="url(#clip0_445_738)">
<g clip-path="url(#clip1_445_738)">
<g clip-path="url(#clip2_445_738)">
<path d="M405.243 139.115C405.166 139.662 405.547 140.168 406.093 140.245L415.005 141.505C415.552 141.582 416.058 141.202 416.135 140.655C416.212 140.108 415.832 139.602 415.285 139.525L407.364 138.405L408.483 130.484C408.561 129.937 408.18 129.431 407.633 129.354C407.086 129.276 406.58 129.657 406.503 130.204L405.243 139.115ZM392.854 75.7245C403.993 75.1126 413.582 76.3632 420.882 79.1474C428.185 81.933 433.1 86.2103 435.118 91.6042C437.132 96.9862 436.355 103.73 431.738 111.66C427.118 119.596 418.7 128.626 405.632 138.456L406.835 140.054C420.018 130.136 428.663 120.918 433.467 112.666C438.274 104.408 439.282 97.0252 436.991 90.9033C434.705 84.7934 429.226 80.1896 421.594 77.2787C413.959 74.3665 404.072 73.1052 392.744 73.7276L392.854 75.7245Z" fill="#D2D1D0"/>
</g>
</g>
</g>
<defs>
<clipPath id="clip0_445_738">
<rect width="46" height="69" fill="white" transform="translate(392.631 73)"/>
</clipPath>
<clipPath id="clip1_445_738">
<rect width="46" height="69" fill="white" transform="translate(392.631 73)"/>
</clipPath>
<clipPath id="clip2_445_738">
<rect width="46" height="69" fill="white" transform="translate(392.631 73)"/>
</clipPath>
</defs>
</svg>
