<svg
                xmlns="http://www.w3.org/2000/svg"
                xmlns:xlink="http://www.w3.org/1999/xlink"
                viewBox="0 0 765 612"
                width="765"
                height="612"
                preserveAspectRatio="xMidYMid meet"
                style="
                  width: 100%;
                  height: 100%;
                  transform: translate3d(0px, 0px, 0px);
                  content-visibility: visible;
                "
              >
                <defs>
                  <clipPath id="__lottie_element_17">
                    <rect width="765" height="612" x="0" y="0"></rect>
                  </clipPath>
                </defs>
                <g clip-path="url(#__lottie_element_17)">
                  <g
                    transform="matrix(0.6234110593795776,0,0,0.6234110593795776,-119.62350463867188,-330.29010009765625)"
                    opacity="1"
                    style="display: block"
                  >
                    <g
                      opacity="1"
                      transform="matrix(1,0,0,1,1074.116943359375,986.2725219726562)"
                    >
                      <g opacity="1" transform="matrix(1,0,0,1,0,0)">
                        <path
                          fill="rgb(255,255,255)"
                          fill-opacity="1"
                          d=" M159.15499877929688,358.4349365234375 C159.15499877929688,358.4349365234375 -268.1390075683594,358.4349365234375 -268.1390075683594,358.4349365234375 C-268.1390075683594,358.4349365234375 -268.1390075683594,-298.78387451171875 -268.1390075683594,-298.78387451171875 C-268.1390075683594,-326.1128845214844 -245.98399353027344,-348.26788330078125 -218.65499877929688,-348.26788330078125 C-218.65499877929688,-348.26788330078125 268.1390075683594,-348.26788330078125 268.1390075683594,-348.26788330078125 C268.1390075683594,-348.26788330078125 268.1390075683594,-267.1318664550781 268.1390075683594,-267.1318664550781 C268.1390075683594,-267.1318664550781 219.92300415039062,-267.1318664550781 219.92300415039062,-267.1318664550781 C219.92300415039062,-267.1318664550781 219.92300415039062,297.66693115234375 219.92300415039062,297.66693115234375 C219.92300415039062,331.2279357910156 192.71600341796875,358.4349365234375 159.15499877929688,358.4349365234375 C159.15499877929688,358.4349365234375 159.15499877929688,358.4349365234375 159.15499877929688,358.4349365234375z"
                        ></path>
                        <path
                          stroke-linecap="round"
                          stroke-linejoin="round"
                          fill-opacity="0"
                          stroke="rgb(53,49,72)"
                          stroke-opacity="1"
                          stroke-width="3"
                          d=" M159.15499877929688,358.4349365234375 C159.15499877929688,358.4349365234375 -268.1390075683594,358.4349365234375 -268.1390075683594,358.4349365234375 C-268.1390075683594,358.4349365234375 -268.1390075683594,-298.78387451171875 -268.1390075683594,-298.78387451171875 C-268.1390075683594,-326.1128845214844 -245.98399353027344,-348.26788330078125 -218.65499877929688,-348.26788330078125 C-218.65499877929688,-348.26788330078125 268.1390075683594,-348.26788330078125 268.1390075683594,-348.26788330078125 C268.1390075683594,-348.26788330078125 268.1390075683594,-267.1318664550781 268.1390075683594,-267.1318664550781 C268.1390075683594,-267.1318664550781 219.92300415039062,-267.1318664550781 219.92300415039062,-267.1318664550781 C219.92300415039062,-267.1318664550781 219.92300415039062,297.66693115234375 219.92300415039062,297.66693115234375 C219.92300415039062,331.2279357910156 192.71600341796875,358.4349365234375 159.15499877929688,358.4349365234375 C159.15499877929688,358.4349365234375 159.15499877929688,358.4349365234375 159.15499877929688,358.4349365234375z"
                        ></path>
                      </g>
                      <g
                        opacity="1"
                        transform="matrix(1,0,0,1,268.1390075683594,-327.3219909667969)"
                      >
                        <path
                          fill="rgb(53,49,72)"
                          fill-opacity="1"
                          d=" M0,-20.945877075195312 C0,-20.945877075195312 0,-20.945877075195312 0,-20.945877075195312 C26.628999710083008,-20.945877075195312 48.215999603271484,0.6411221623420715 48.215999603271484,27.270122528076172 C48.215999603271484,27.270122528076172 48.215999603271484,81.9482421875 48.215999603271484,81.9482421875 C48.215999603271484,81.9482421875 -48.215999603271484,81.9482421875 -48.215999603271484,81.9482421875 C-48.215999603271484,81.9482421875 -48.215999603271484,27.270122528076172 -48.215999603271484,27.270122528076172 C-48.215999603271484,0.6411221623420715 -26.628999710083008,-20.945877075195312 0,-20.945877075195312 C0,-20.945877075195312 0,-20.945877075195312 0,-20.945877075195312z"
                        ></path>
                        <path
                          stroke-linecap="round"
                          stroke-linejoin="round"
                          fill-opacity="0"
                          stroke="rgb(53,49,72)"
                          stroke-opacity="1"
                          stroke-width="1.675"
                          d=" M0,-20.945877075195312 C0,-20.945877075195312 0,-20.945877075195312 0,-20.945877075195312 C26.628999710083008,-20.945877075195312 48.215999603271484,0.6411221623420715 48.215999603271484,27.270122528076172 C48.215999603271484,27.270122528076172 48.215999603271484,81.9482421875 48.215999603271484,81.9482421875 C48.215999603271484,81.9482421875 -48.215999603271484,81.9482421875 -48.215999603271484,81.9482421875 C-48.215999603271484,81.9482421875 -48.215999603271484,27.270122528076172 -48.215999603271484,27.270122528076172 C-48.215999603271484,0.6411221623420715 -26.628999710083008,-20.945877075195312 0,-20.945877075195312 C0,-20.945877075195312 0,-20.945877075195312 0,-20.945877075195312z"
                        ></path>
                      </g>
                      <g
                        opacity="1"
                        transform="matrix(1,0,0,1,-74.11699676513672,-19.864999771118164)"
                      >
                        <g opacity="1" transform="matrix(1,0,0,1,0,0)">
                          <g
                            opacity="1"
                            transform="matrix(1,0,0,1,3.32098388671875,128.0389404296875)"
                          >
                            <path
                              fill="rgb(255,133,73)"
                              fill-opacity="1"
                              d=" M140.60000610351562,8.267999649047852 C140.60000610351562,8.267999649047852 -140.60000610351562,8.267999649047852 -140.60000610351562,8.267999649047852 C-145.16600036621094,8.267999649047852 -148.86700439453125,4.565999984741211 -148.86700439453125,0 C-148.86700439453125,0 -148.86700439453125,0 -148.86700439453125,0 C-148.86700439453125,-4.565999984741211 -145.16600036621094,-8.267999649047852 -140.60000610351562,-8.267999649047852 C-140.60000610351562,-8.267999649047852 140.60000610351562,-8.267999649047852 140.60000610351562,-8.267999649047852 C145.16600036621094,-8.267999649047852 148.86700439453125,-4.565999984741211 148.86700439453125,0 C148.86700439453125,0 148.86700439453125,0 148.86700439453125,0 C148.86700439453125,4.565999984741211 145.16600036621094,8.267999649047852 140.60000610351562,8.267999649047852 C140.60000610351562,8.267999649047852 140.60000610351562,8.267999649047852 140.60000610351562,8.267999649047852z"
                            ></path>
                          </g>
                          <g
                            opacity="1"
                            transform="matrix(1,0,0,1,50.009033203125,88)"
                          >
                            <path
                              fill="rgb(255,133,73)"
                              fill-opacity="1"
                              d=" M187.28799438476562,8.267999649047852 C187.28799438476562,8.267999649047852 -187.28799438476562,8.267999649047852 -187.28799438476562,8.267999649047852 C-191.85400390625,8.267999649047852 -195.55599975585938,4.565999984741211 -195.55599975585938,0 C-195.55599975585938,0 -195.55599975585938,0 -195.55599975585938,0 C-195.55599975585938,-4.565999984741211 -191.85400390625,-8.267999649047852 -187.28799438476562,-8.267999649047852 C-187.28799438476562,-8.267999649047852 187.28799438476562,-8.267999649047852 187.28799438476562,-8.267999649047852 C191.85400390625,-8.267999649047852 195.55599975585938,-4.565999984741211 195.55599975585938,0 C195.55599975585938,0 195.55599975585938,0 195.55599975585938,0 C195.55599975585938,4.565999984741211 191.85400390625,8.267999649047852 187.28799438476562,8.267999649047852 C187.28799438476562,8.267999649047852 187.28799438476562,8.267999649047852 187.28799438476562,8.267999649047852z"
                            ></path>
                          </g>
                          <g
                            opacity="1"
                            transform="matrix(1,0,0,1,50.009033203125,47.9610595703125)"
                          >
                            <path
                              fill="rgb(255,133,73)"
                              fill-opacity="1"
                              d=" M187.28799438476562,8.267999649047852 C187.28799438476562,8.267999649047852 -187.28799438476562,8.267999649047852 -187.28799438476562,8.267999649047852 C-191.85400390625,8.267999649047852 -195.55599975585938,4.565999984741211 -195.55599975585938,0 C-195.55599975585938,0 -195.55599975585938,0 -195.55599975585938,0 C-195.55599975585938,-4.565999984741211 -191.85400390625,-8.267999649047852 -187.28799438476562,-8.267999649047852 C-187.28799438476562,-8.267999649047852 187.28799438476562,-8.267999649047852 187.28799438476562,-8.267999649047852 C191.85400390625,-8.267999649047852 195.55599975585938,-4.565999984741211 195.55599975585938,0 C195.55599975585938,0 195.55599975585938,0 195.55599975585938,0 C195.55599975585938,4.565999984741211 191.85400390625,8.267999649047852 187.28799438476562,8.267999649047852 C187.28799438476562,8.267999649047852 187.28799438476562,8.267999649047852 187.28799438476562,8.267999649047852z"
                            ></path>
                          </g>
                          <g
                            opacity="1"
                            transform="matrix(1,0,0,1,50.009033203125,7.9210205078125)"
                          >
                            <path
                              fill="rgb(255,133,73)"
                              fill-opacity="1"
                              d=" M187.28799438476562,8.267999649047852 C187.28799438476562,8.267999649047852 -187.28799438476562,8.267999649047852 -187.28799438476562,8.267999649047852 C-191.85400390625,8.267999649047852 -195.55599975585938,4.565999984741211 -195.55599975585938,0 C-195.55599975585938,0 -195.55599975585938,0 -195.55599975585938,0 C-195.55599975585938,-4.565999984741211 -191.85400390625,-8.267999649047852 -187.28799438476562,-8.267999649047852 C-187.28799438476562,-8.267999649047852 187.28799438476562,-8.267999649047852 187.28799438476562,-8.267999649047852 C191.85400390625,-8.267999649047852 195.55599975585938,-4.565999984741211 195.55599975585938,0 C195.55599975585938,0 195.55599975585938,0 195.55599975585938,0 C195.55599975585938,4.565999984741211 191.85400390625,8.267999649047852 187.28799438476562,8.267999649047852 C187.28799438476562,8.267999649047852 187.28799438476562,8.267999649047852 187.28799438476562,8.267999649047852z"
                            ></path>
                          </g>
                        </g>
                        <g
                          opacity="1"
                          transform="matrix(1,0,0,1,16.02398681640625,-148.510986328125)"
                        >
                          <path
                            fill="rgb(255,255,255)"
                            fill-opacity="1"
                            d=" M135.4290008544922,25.12700080871582 C135.4290008544922,25.12700080871582 -135.4290008544922,25.12700080871582 -135.4290008544922,25.12700080871582 C-149.30599975585938,25.12700080871582 -160.5570068359375,13.876999855041504 -160.5570068359375,0 C-160.5570068359375,0 -160.5570068359375,0 -160.5570068359375,0 C-160.5570068359375,-13.876999855041504 -149.30599975585938,-25.12700080871582 -135.4290008544922,-25.12700080871582 C-135.4290008544922,-25.12700080871582 135.4290008544922,-25.12700080871582 135.4290008544922,-25.12700080871582 C149.30599975585938,-25.12700080871582 160.5570068359375,-13.876999855041504 160.5570068359375,0 C160.5570068359375,0 160.5570068359375,0 160.5570068359375,0 C160.5570068359375,13.876999855041504 149.30599975585938,25.12700080871582 135.4290008544922,25.12700080871582 C135.4290008544922,25.12700080871582 135.4290008544922,25.12700080871582 135.4290008544922,25.12700080871582z"
                          ></path>
                          <path
                            stroke-linecap="round"
                            stroke-linejoin="round"
                            fill-opacity="0"
                            stroke="rgb(53,49,72)"
                            stroke-opacity="1"
                            stroke-width="3"
                            d=" M135.4290008544922,25.12700080871582 C135.4290008544922,25.12700080871582 -135.4290008544922,25.12700080871582 -135.4290008544922,25.12700080871582 C-149.30599975585938,25.12700080871582 -160.5570068359375,13.876999855041504 -160.5570068359375,0 C-160.5570068359375,0 -160.5570068359375,0 -160.5570068359375,0 C-160.5570068359375,-13.876999855041504 -149.30599975585938,-25.12700080871582 -135.4290008544922,-25.12700080871582 C-135.4290008544922,-25.12700080871582 135.4290008544922,-25.12700080871582 135.4290008544922,-25.12700080871582 C149.30599975585938,-25.12700080871582 160.5570068359375,-13.876999855041504 160.5570068359375,0 C160.5570068359375,0 160.5570068359375,0 160.5570068359375,0 C160.5570068359375,13.876999855041504 149.30599975585938,25.12700080871582 135.4290008544922,25.12700080871582 C135.4290008544922,25.12700080871582 135.4290008544922,25.12700080871582 135.4290008544922,25.12700080871582z"
                          ></path>
                        </g>
                        <g
                          opacity="1"
                          transform="matrix(1,0,0,1,16.02398681640625,-64.198974609375)"
                        >
                          <path
                            fill="rgb(255,255,255)"
                            fill-opacity="1"
                            d=" M135.4290008544922,25.12700080871582 C135.4290008544922,25.12700080871582 -135.4290008544922,25.12700080871582 -135.4290008544922,25.12700080871582 C-149.30599975585938,25.12700080871582 -160.5570068359375,13.876999855041504 -160.5570068359375,0 C-160.5570068359375,0 -160.5570068359375,0 -160.5570068359375,0 C-160.5570068359375,-13.876999855041504 -149.30599975585938,-25.12700080871582 -135.4290008544922,-25.12700080871582 C-135.4290008544922,-25.12700080871582 135.4290008544922,-25.12700080871582 135.4290008544922,-25.12700080871582 C149.30599975585938,-25.12700080871582 160.5570068359375,-13.876999855041504 160.5570068359375,0 C160.5570068359375,0 160.5570068359375,0 160.5570068359375,0 C160.5570068359375,13.876999855041504 149.30599975585938,25.12700080871582 135.4290008544922,25.12700080871582 C135.4290008544922,25.12700080871582 135.4290008544922,25.12700080871582 135.4290008544922,25.12700080871582z"
                          ></path>
                          <path
                            stroke-linecap="round"
                            stroke-linejoin="round"
                            fill-opacity="0"
                            stroke="rgb(53,49,72)"
                            stroke-opacity="1"
                            stroke-width="3"
                            d=" M135.4290008544922,25.12700080871582 C135.4290008544922,25.12700080871582 -135.4290008544922,25.12700080871582 -135.4290008544922,25.12700080871582 C-149.30599975585938,25.12700080871582 -160.5570068359375,13.876999855041504 -160.5570068359375,0 C-160.5570068359375,0 -160.5570068359375,0 -160.5570068359375,0 C-160.5570068359375,-13.876999855041504 -149.30599975585938,-25.12700080871582 -135.4290008544922,-25.12700080871582 C-135.4290008544922,-25.12700080871582 135.4290008544922,-25.12700080871582 135.4290008544922,-25.12700080871582 C149.30599975585938,-25.12700080871582 160.5570068359375,-13.876999855041504 160.5570068359375,0 C160.5570068359375,0 160.5570068359375,0 160.5570068359375,0 C160.5570068359375,13.876999855041504 149.30599975585938,25.12700080871582 135.4290008544922,25.12700080871582 C135.4290008544922,25.12700080871582 135.4290008544922,25.12700080871582 135.4290008544922,25.12700080871582z"
                          ></path>
                        </g>
                        <g
                          opacity="1"
                          transform="matrix(1,0,0,1,50.009033203125,216.387939453125)"
                        >
                          <path
                            fill="rgb(255,133,73)"
                            fill-opacity="1"
                            d=" M48.31399917602539,18.724000930786133 C48.31399917602539,18.724000930786133 -48.31399917602539,18.724000930786133 -48.31399917602539,18.724000930786133 C-57.42300033569336,18.724000930786133 -64.80699920654297,11.340999603271484 -64.80699920654297,2.2320001125335693 C-64.80699920654297,2.2320001125335693 -64.80699920654297,-2.2320001125335693 -64.80699920654297,-2.2320001125335693 C-64.80699920654297,-11.340999603271484 -57.42300033569336,-18.724000930786133 -48.31399917602539,-18.724000930786133 C-48.31399917602539,-18.724000930786133 48.31399917602539,-18.724000930786133 48.31399917602539,-18.724000930786133 C57.42300033569336,-18.724000930786133 64.80699920654297,-11.340999603271484 64.80699920654297,-2.2320001125335693 C64.80699920654297,-2.2320001125335693 64.80699920654297,2.2320001125335693 64.80699920654297,2.2320001125335693 C64.80699920654297,11.340999603271484 57.42300033569336,18.724000930786133 48.31399917602539,18.724000930786133 C48.31399917602539,18.724000930786133 48.31399917602539,18.724000930786133 48.31399917602539,18.724000930786133z"
                          ></path>
                        </g>
                        <g
                          opacity="1"
                          transform="matrix(1,0,0,1,50.009033203125,-239.198974609375)"
                        >
                          <path
                            fill="rgb(255,133,73)"
                            fill-opacity="1"
                            d=" M92.08799743652344,18.724000930786133 C92.08799743652344,18.724000930786133 -92.08799743652344,18.724000930786133 -92.08799743652344,18.724000930786133 C-102.42900085449219,18.724000930786133 -110.81300354003906,10.340999603271484 -110.81300354003906,0 C-110.81300354003906,0 -110.81300354003906,0 -110.81300354003906,0 C-110.81300354003906,-10.340999603271484 -102.42900085449219,-18.724000930786133 -92.08799743652344,-18.724000930786133 C-92.08799743652344,-18.724000930786133 92.08799743652344,-18.724000930786133 92.08799743652344,-18.724000930786133 C102.42900085449219,-18.724000930786133 110.81300354003906,-10.340999603271484 110.81300354003906,0 C110.81300354003906,0 110.81300354003906,0 110.81300354003906,0 C110.81300354003906,10.340999603271484 102.42900085449219,18.724000930786133 92.08799743652344,18.724000930786133 C92.08799743652344,18.724000930786133 92.08799743652344,18.724000930786133 92.08799743652344,18.724000930786133z"
                          ></path>
                        </g>
                      </g>
                      <g
                        opacity="1"
                        transform="matrix(1,0,0,1,-129.5679931640625,-168.37600708007812)"
                      >
                        <path
                          stroke-linecap="round"
                          stroke-linejoin="round"
                          fill-opacity="0"
                          stroke="rgb(53,49,72)"
                          stroke-opacity="1"
                          stroke-width="1.675"
                          d=" M-58.77199935913086,0 C-58.77199935913086,0 58.77199935913086,0 58.77199935913086,0"
                        ></path>
                      </g>
                      <g
                        opacity="1"
                        transform="matrix(1,0,0,1,-25.160999298095703,-168.37600708007812)"
                      >
                        <path
                          stroke-linecap="round"
                          stroke-linejoin="round"
                          fill-opacity="0"
                          stroke="rgb(53,49,72)"
                          stroke-opacity="1"
                          stroke-width="3"
                          d=" M-17.768999099731445,0 C-17.768999099731445,0 17.768999099731445,0 17.768999099731445,0"
                        ></path>
                      </g>
                      <g
                        opacity="1"
                        transform="matrix(1,0,0,1,-162.072998046875,-84.06400299072266)"
                      >
                        <path
                          stroke-linecap="round"
                          stroke-linejoin="round"
                          fill-opacity="0"
                          stroke="rgb(53,49,72)"
                          stroke-opacity="1"
                          stroke-width="3"
                          d=" M-26.266000747680664,0 C-26.266000747680664,0 -21.454999923706055,0 -13.255000114440918,0"
                        ></path>
                      </g>
                      <g
                        opacity="1"
                        transform="matrix(1,0,0,1,-82.68399810791016,328.697998046875)"
                      >
                        <path
                          fill="rgb(53,49,72)"
                          fill-opacity="1"
                          d=" M241.86199951171875,29.78693962097168 C241.86199951171875,29.78693962097168 -181.11099243164062,29.78693962097168 -181.11099243164062,29.78693962097168 C-181.8090057373047,29.78693962097168 -182.5070037841797,29.772939682006836 -183.1909942626953,29.743938446044922 C-215.781005859375,28.660938262939453 -241.86199951171875,1.8969389200210571 -241.86199951171875,-30.949060440063477 C-241.86199951171875,-30.949060440063477 -241.86199951171875,-60.28812026977539 -241.86199951171875,-60.28812026977539 C-241.86199951171875,-60.28812026977539 181.11099243164062,-60.28812026977539 181.11099243164062,-60.28812026977539 C181.11099243164062,-60.28812026977539 181.11099243164062,-30.949060440063477 181.11099243164062,-30.949060440063477 C181.11099243164062,2.5949389934539795 208.3179931640625,29.78693962097168 241.86199951171875,29.78693962097168 C241.86199951171875,29.78693962097168 241.86199951171875,29.78693962097168 241.86199951171875,29.78693962097168z"
                        ></path>
                        <path
                          stroke-linecap="round"
                          stroke-linejoin="round"
                          fill-opacity="0"
                          stroke="rgb(53,49,72)"
                          stroke-opacity="1"
                          stroke-width="1.675"
                          d=" M241.86199951171875,29.78693962097168 C241.86199951171875,29.78693962097168 -181.11099243164062,29.78693962097168 -181.11099243164062,29.78693962097168 C-181.8090057373047,29.78693962097168 -182.5070037841797,29.772939682006836 -183.1909942626953,29.743938446044922 C-215.781005859375,28.660938262939453 -241.86199951171875,1.8969389200210571 -241.86199951171875,-30.949060440063477 C-241.86199951171875,-30.949060440063477 -241.86199951171875,-60.28812026977539 -241.86199951171875,-60.28812026977539 C-241.86199951171875,-60.28812026977539 181.11099243164062,-60.28812026977539 181.11099243164062,-60.28812026977539 C181.11099243164062,-60.28812026977539 181.11099243164062,-30.949060440063477 181.11099243164062,-30.949060440063477 C181.11099243164062,2.5949389934539795 208.3179931640625,29.78693962097168 241.86199951171875,29.78693962097168 C241.86199951171875,29.78693962097168 241.86199951171875,29.78693962097168 241.86199951171875,29.78693962097168z"
                        ></path>
                      </g>
                    </g>
                    <g
                      opacity="1"
                      transform="matrix(1,0,0,1,242.66900634765625,1081.425537109375)"
                    >
                      <g
                        opacity="1"
                        transform="matrix(0.9957329034805298,-0.09228230267763138,0.09228230267763138,0.9957329034805298,-431.5137939453125,-1158.1575927734375)"
                      >
                        <g
                          opacity="1"
                          transform="matrix(1,0,0,1,504.4110107421875,1179.593994140625)"
                        >
                          <path
                            fill="rgb(53,49,72)"
                            fill-opacity="1"
                            d=" M-50.39899826049805,-97.10399627685547 C-61.790000915527344,-91.19200134277344 -48.459999084472656,-42.92499923706055 -20.625,10.704000473022461 C7.210000038146973,64.33300018310547 39.007999420166016,103.01599884033203 50.39899826049805,97.10399627685547 C61.790000915527344,91.19200134277344 48.459999084472656,42.92499923706055 20.625,-10.704000473022461 C-7.210000038146973,-64.33300018310547 -39.007999420166016,-103.01599884033203 -50.39899826049805,-97.10399627685547 C-50.39899826049805,-97.10399627685547 -50.39899826049805,-97.10399627685547 -50.39899826049805,-97.10399627685547z"
                          ></path>
                        </g>
                        <g
                          opacity="1"
                          transform="matrix(0.9715168476104736,0.23697054386138916,-0.23697054386138916,0.9715168476104736,287.1365051269531,-102.10107421875)"
                        >
                          <g opacity="1" transform="matrix(1,0,0,1,0,0)">
                            <g opacity="1" transform="matrix(1,0,0,1,0,0)">
                              <g
                                opacity="1"
                                transform="matrix(1,0,0,1,750.4400024414062,930.6909790039062)"
                              >
                                <path
                                  fill="rgb(53,49,72)"
                                  fill-opacity="1"
                                  d=" M35.60900115966797,24.062999725341797 C34.6349983215332,30.88800048828125 31.20800018310547,58.47700119018555 10.951000213623047,57.89400100708008 C-4.874000072479248,57.4379997253418 -12.64799976348877,37.417999267578125 -19.035999298095703,11.812000274658203 C-22.17099952697754,-0.7549999952316284 -36.87799835205078,-48.590999603271484 -36.14699935913086,-46.87200164794922 C-36.14699935913086,-46.87200164794922 33.27399826049805,-57.90399932861328 33.27399826049805,-57.90399932861328 C33.27399826049805,-57.90399932861328 37.709999084472656,9.33899974822998 35.60900115966797,24.062999725341797 C35.60900115966797,24.062999725341797 35.60900115966797,24.062999725341797 35.60900115966797,24.062999725341797z"
                                ></path>
                              </g>
                              <g
                                opacity="1"
                                transform="matrix(1,0,0,1,748.5380249023438,875.125)"
                              >
                                <path
                                  fill="rgb(53,49,72)"
                                  fill-opacity="1"
                                  d=" M32.47999954223633,-13.807000160217285 C24.854000091552734,-31.7450008392334 4.13100004196167,-40.10599899291992 -13.807000160217285,-32.47999954223633 C-31.7450008392334,-24.854000091552734 -40.10599899291992,-4.13100004196167 -32.47999954223633,13.807000160217285 C-24.854000091552734,31.7450008392334 -4.13100004196167,40.10599899291992 13.807000160217285,32.47999954223633 C31.7450008392334,24.854000091552734 40.10599899291992,4.13100004196167 32.47999954223633,-13.807000160217285 C32.47999954223633,-13.807000160217285 32.47999954223633,-13.807000160217285 32.47999954223633,-13.807000160217285z"
                                ></path>
                              </g>
                            </g>
                            <g opacity="1" transform="matrix(1,0,0,1,0,0)">
                              <g
                                opacity="1"
                                transform="matrix(1,0,0,1,651.593017578125,912.3519897460938)"
                              >
                                <path
                                  fill="rgb(53,49,72)"
                                  fill-opacity="1"
                                  d=" M-17.937999725341797,-30.393999099731445 C-34.7239990234375,-20.48699951171875 -40.30099868774414,1.1519999504089355 -30.393999099731445,17.937999725341797 C-20.48699951171875,34.7239990234375 1.1519999504089355,40.30099868774414 17.937999725341797,30.393999099731445 C34.7239990234375,20.48699951171875 40.30099868774414,-1.1519999504089355 30.393999099731445,-17.937999725341797 C20.48699951171875,-34.7239990234375 -1.1519999504089355,-40.30099868774414 -17.937999725341797,-30.393999099731445 C-17.937999725341797,-30.393999099731445 -17.937999725341797,-30.393999099731445 -17.937999725341797,-30.393999099731445z"
                                ></path>
                              </g>
                              <g
                                opacity="1"
                                transform="matrix(1,0,0,1,699.3309936523438,893.27099609375)"
                              >
                                <path
                                  fill="rgb(53,49,72)"
                                  fill-opacity="1"
                                  d=" M62.30699920654297,14.668000221252441 C62.30699920654297,14.668000221252441 -37.016998291015625,52.7140007019043 -37.016998291015625,52.7140007019043 C-37.016998291015625,52.7140007019043 -62.30699920654297,-13.067000389099121 -62.30699920654297,-13.067000389099121 C-62.30699920654297,-13.067000389099121 31.649999618530273,-52.185001373291016 42.2869987487793,-52.7140007019043 C42.2869987487793,-52.7140007019043 62.30699920654297,14.668000221252441 62.30699920654297,14.668000221252441 C62.30699920654297,14.668000221252441 62.30699920654297,14.668000221252441 62.30699920654297,14.668000221252441z"
                                ></path>
                              </g>
                            </g>
                          </g>
                          <g opacity="1" transform="matrix(1,0,0,1,0,0)">
                            <path
                              stroke-linecap="butt"
                              stroke-linejoin="miter"
                              fill-opacity="0"
                              stroke-miterlimit="4"
                              stroke="rgb(0,0,0)"
                              stroke-opacity="1"
                              stroke-width="4"
                              d=" M570.85,866.39 C598.07,842.87 616.68,852.49 616.68,852.49 C643.32,843.31 665.87,862.06 665.87,862.06 C697.79,844.54 714.62,849.25 714.62,849.25 C714.62,849.25 731.07,960.08 731.07,960.08 C719.2,1005 757.1,1023.04 755.91,1023.79 C755.91,1023.79 773.36,1098.11 773.36,1098.11 C722.72,1142.8 676.58,1166.53 617,1216.66 C617,1216.66 485.71,1113.25 485.71,1113.25 C496.71,1078.28 547.27,886.77 570.85,866.39 C570.85,866.39 570.85,866.39 570.85,866.39z M745.14,1014.14 C745.14,1014.14 725,997.43 729.12,974.06 M664.66,860.24 C664.66,860.24 639.98,878.19 639.98,878.19 M616.67,852.49 C616.67,852.49 593.31,870.61 593.31,870.61"
                            ></path>
                            <g
                              opacity="1"
                              transform="matrix(1,0,0,1,629.5380249023438,1032.6669921875)"
                            >
                              <path
                                fill="rgb(255,133,73)"
                                fill-opacity="1"
                                d=" M-58.691001892089844,-166.2740020751953 C-31.472999572753906,-189.7949981689453 -12.86299991607666,-180.1790008544922 -12.86299991607666,-180.1790008544922 C13.777000427246094,-189.35899353027344 36.332000732421875,-170.60899353027344 36.332000732421875,-170.60899353027344 C68.25599670410156,-188.1219940185547 85.0780029296875,-183.4149932861328 85.0780029296875,-183.4149932861328 C85.0780029296875,-183.4149932861328 101.53199768066406,-72.59100341796875 101.53199768066406,-72.59100341796875 C89.66500091552734,-27.663000106811523 127.56099700927734,-9.621999740600586 126.37200164794922,-8.878999710083008 C126.37200164794922,-8.878999710083008 143.8249969482422,65.44400024414062 143.8249969482422,65.44400024414062 C93.18199920654297,110.13600158691406 47.04399871826172,133.86300659179688 -12.53600025177002,183.99099731445312 C-12.53600025177002,183.99099731445312 -143.8249969482422,80.58200073242188 -143.8249969482422,80.58200073242188 C-132.83099365234375,45.611000061035156 -82.26899719238281,-145.8990020751953 -58.691001892089844,-166.2740020751953 C-58.691001892089844,-166.2740020751953 -58.691001892089844,-166.2740020751953 -58.691001892089844,-166.2740020751953z"
                              ></path>
                            </g>
                            <g
                              opacity="1"
                              transform="matrix(1,0,0,1,738.6519775390625,1020.4119873046875)"
                            >
                              <path
                                stroke-linecap="round"
                                stroke-linejoin="round"
                                fill-opacity="0"
                                stroke="rgb(53,49,72)"
                                stroke-opacity="1"
                                stroke-width="1.675"
                                d="M0 0"
                              ></path>
                            </g>
                            <g
                              opacity="1"
                              transform="matrix(1,0,0,1,652.322021484375,869.2150268554688)"
                            >
                              <path
                                stroke-linecap="round"
                                stroke-linejoin="round"
                                fill-opacity="0"
                                stroke="rgb(53,49,72)"
                                stroke-opacity="1"
                                stroke-width="1.675"
                                d="M0 0"
                              ></path>
                            </g>
                            <g
                              opacity="1"
                              transform="matrix(1,0,0,1,604.9949951171875,861.551025390625)"
                            >
                              <path
                                stroke-linecap="round"
                                stroke-linejoin="round"
                                fill-opacity="0"
                                stroke="rgb(53,49,72)"
                                stroke-opacity="1"
                                stroke-width="1.675"
                                d="M0 0"
                              ></path>
                            </g>
                          </g>
                          <g opacity="1" transform="matrix(1,0,0,1,0,0)">
                            <g opacity="1" transform="matrix(1,0,0,1,0,0)">
                              <g
                                opacity="1"
                                transform="matrix(1,0,0,1,776.9359741210938,891.56298828125)"
                              >
                                <path
                                  fill="rgb(255,133,73)"
                                  fill-opacity="1"
                                  d=" M45.39500045776367,16.273000717163086 C47.165000915527344,22.93600082397461 54.78799819946289,49.672000885009766 35.91299819946289,57.04899978637695 C21.16699981689453,62.8120002746582 6.190999984741211,47.41899871826172 -9.692999839782715,26.343000411987305 C-17.48900032043457,15.99899959564209 -49.715999603271484,-22.290000915527344 -48.37099838256836,-20.993000030517578 C-48.37099838256836,-20.993000030517578 11.223999977111816,-58.268001556396484 11.223999977111816,-58.268001556396484 C11.223999977111816,-58.268001556396484 41.57699966430664,1.8980000019073486 45.39500045776367,16.273000717163086 C45.39500045776367,16.273000717163086 45.39500045776367,16.273000717163086 45.39500045776367,16.273000717163086z"
                                ></path>
                              </g>
                              <g
                                opacity="1"
                                transform="matrix(1,0,0,1,756.6929931640625,849.1890258789062)"
                              >
                                <path
                                  fill="rgb(255,133,73)"
                                  fill-opacity="1"
                                  d=" M24.5049991607666,-25.39900016784668 C10.477999687194824,-38.93299865722656 -11.864999771118164,-38.53200149536133 -25.39900016784668,-24.5049991607666 C-38.93299865722656,-10.477999687194824 -38.53200149536133,11.864999771118164 -24.5049991607666,25.39900016784668 C-10.477999687194824,38.93299865722656 11.864999771118164,38.53200149536133 25.39900016784668,24.5049991607666 C38.93299865722656,10.477999687194824 38.53200149536133,-11.864999771118164 24.5049991607666,-25.39900016784668 C24.5049991607666,-25.39900016784668 24.5049991607666,-25.39900016784668 24.5049991607666,-25.39900016784668z"
                                ></path>
                              </g>
                            </g>
                            <g opacity="1" transform="matrix(1,0,0,1,0,0)">
                              <g
                                opacity="1"
                                transform="matrix(1,0,0,1,704.3289794921875,938.8670043945312)"
                              >
                                <path
                                  fill="rgb(255,133,73)"
                                  fill-opacity="1"
                                  d=" M-33.00600051879883,-12.496999740600586 C-39.90800094604492,5.73199987411499 -30.72599983215332,26.104000091552734 -12.496999740600586,33.00600051879883 C5.73199987411499,39.90800094604492 26.104000091552734,30.72599983215332 33.00600051879883,12.496999740600586 C39.90800094604492,-5.73199987411499 30.72599983215332,-26.104000091552734 12.496999740600586,-33.00600051879883 C-5.73199987411499,-39.90800094604492 -26.104000091552734,-30.72599983215332 -33.00600051879883,-12.496999740600586 C-33.00600051879883,-12.496999740600586 -33.00600051879883,-12.496999740600586 -33.00600051879883,-12.496999740600586z"
                                ></path>
                              </g>
                              <g
                                opacity="1"
                                transform="matrix(1,0,0,1,730.14599609375,892.4739990234375)"
                              >
                                <path
                                  fill="rgb(255,133,73)"
                                  fill-opacity="1"
                                  d=" M57.290000915527344,-25.874000549316406 C57.290000915527344,-25.874000549316406 3.5829999446868896,65.93099975585938 3.5829999446868896,65.93099975585938 C3.5829999446868896,65.93099975585938 -57.290000915527344,30.41900062561035 -57.290000915527344,30.41900062561035 C-57.290000915527344,30.41900062561035 -8.440999984741211,-58.86600112915039 -0.47200000286102295,-65.93099975585938 C-0.47200000286102295,-65.93099975585938 57.290000915527344,-25.874000549316406 57.290000915527344,-25.874000549316406 C57.290000915527344,-25.874000549316406 57.290000915527344,-25.874000549316406 57.290000915527344,-25.874000549316406z"
                                ></path>
                              </g>
                              <g
                                opacity="1"
                                transform="matrix(1,0,0,1,700.2039794921875,875.4359741210938)"
                              >
                                <path
                                  stroke-linecap="round"
                                  stroke-linejoin="round"
                                  fill-opacity="0"
                                  stroke="rgb(53,49,72)"
                                  stroke-opacity="1"
                                  stroke-width="1.675"
                                  d=" M14.409000396728516,-23.57200050354004 C14.409000396728516,-23.57200050354004 -14.409000396728516,23.57200050354004 -14.409000396728516,23.57200050354004"
                                ></path>
                              </g>
                            </g>
                          </g>
                          <g
                            opacity="1"
                            transform="matrix(1,0,0,1,568.2919921875,1143.3900146484375)"
                          >
                            <path
                              fill="rgb(255,133,73)"
                              fill-opacity="1"
                              d=" M84.6050033569336,-23.926000595092773 C71.39099884033203,-70.6520004272461 22.799999237060547,-97.81900024414062 -23.926000595092773,-84.6050033569336 C-70.6520004272461,-71.39099884033203 -97.81900024414062,-22.799999237060547 -84.6050033569336,23.926000595092773 C-71.39099884033203,70.6520004272461 -22.799999237060547,97.81900024414062 23.926000595092773,84.6050033569336 C70.6520004272461,71.39099884033203 97.81900024414062,22.799999237060547 84.6050033569336,-23.926000595092773 C84.6050033569336,-23.926000595092773 84.6050033569336,-23.926000595092773 84.6050033569336,-23.926000595092773z"
                            ></path>
                          </g>
                          <g
                            opacity="1"
                            transform="matrix(0.9702957272529602,-0.24192190170288086,0.24192190170288086,0.9702957272529602,1048.1448974609375,930.555419921875)"
                          >
                            <g
                              opacity="1"
                              transform="matrix(1,0,0,1,-145.26397705078125,-10.16802978515625)"
                            >
                              <path
                                fill="rgb(255,205,180)"
                                fill-opacity="1"
                                d=" M52.42900085449219,34.12699890136719 C52.42900085449219,34.12699890136719 10.710000038146973,24.42300033569336 10.710000038146973,24.42300033569336 C10.710000038146973,24.42300033569336 -52.42900085449219,9.86400032043457 -52.42900085449219,9.86400032043457 C-52.42900085449219,9.86400032043457 -30.7549991607666,-34.12699890136719 -30.7549991607666,-34.12699890136719 C-30.7549991607666,-34.12699890136719 18.472000122070312,6.354000091552734 18.472000122070312,6.354000091552734 C18.472000122070312,6.354000091552734 52.42900085449219,34.12699890136719 52.42900085449219,34.12699890136719 C52.42900085449219,34.12699890136719 52.42900085449219,34.12699890136719 52.42900085449219,34.12699890136719z"
                              ></path>
                            </g>
                            <g
                              opacity="1"
                              transform="matrix(1,0,0,1,-400.9609680175781,-128.6649932861328)"
                            >
                              <path
                                stroke-linecap="butt"
                                stroke-linejoin="miter"
                                fill-opacity="0"
                                stroke-miterlimit="4"
                                stroke="rgb(0,0,0)"
                                stroke-opacity="1"
                                stroke-width="4"
                                d=" M202.33900451660156,128 C202.33900451660156,128 -228.33299255371094,-84.47200012207031 -228.33299255371094,-84.47200012207031 C-228.33299255371094,-84.47200012207031 -206.55999755859375,-128.60299682617188 -206.55999755859375,-128.60299682617188 C-206.55999755859375,-128.60299682617188 223.9510040283203,83.78900146484375 224.11199951171875,83.86799621582031 C229.89700317382812,86.72200012207031 229.71299743652344,98.91500091552734 223.6999969482422,111.10199737548828 C217.68699645996094,123.28900146484375 208.11700439453125,130.85800170898438 202.33900451660156,128 C202.33900451660156,128 202.33900451660156,128 202.33900451660156,128z"
                              ></path>
                              <path
                                fill="rgb(54,49,72)"
                                fill-opacity="1"
                                d=" M202.33900451660156,128 C202.33900451660156,128 -228.33299255371094,-84.47200012207031 -228.33299255371094,-84.47200012207031 C-228.33299255371094,-84.47200012207031 -206.55999755859375,-128.60299682617188 -206.55999755859375,-128.60299682617188 C-206.55999755859375,-128.60299682617188 223.9510040283203,83.78900146484375 224.11199951171875,83.86799621582031 C229.89700317382812,86.72200012207031 229.71299743652344,98.91500091552734 223.6999969482422,111.10199737548828 C217.68699645996094,123.28900146484375 208.11700439453125,130.85800170898438 202.33900451660156,128 C202.33900451660156,128 202.33900451660156,128 202.33900451660156,128z"
                              ></path>
                            </g>
                            <g
                              opacity="1"
                              transform="matrix(1,0,0,1,-114.22198486328125,10.072021484375)"
                            >
                              <path
                                fill="rgb(255,206,181)"
                                fill-opacity="1"
                                d=" M21.386999130249023,13.88599967956543 C21.386999130249023,13.88599967956543 -21.386999130249023,3.937000036239624 -21.386999130249023,3.937000036239624 C-21.386999130249023,3.937000036239624 -16.66699981689453,0.7160000205039978 -14.71500015258789,-3.5420000553131104 C-12.217000007629395,-8.991000175476074 -12.569000244140625,-13.88599967956543 -12.569000244140625,-13.88599967956543 C-12.569000244140625,-13.88599967956543 21.386999130249023,13.88599967956543 21.386999130249023,13.88599967956543 C21.386999130249023,13.88599967956543 21.386999130249023,13.88599967956543 21.386999130249023,13.88599967956543z"
                              ></path>
                            </g>
                            <g
                              opacity="1"
                              transform="matrix(1,0,0,1,-618.4100341796875,-235.20599365234375)"
                            >
                              <path
                                fill="rgb(255,205,180)"
                                fill-opacity="1"
                                d=" M10.470999717712402,5.166999816894531 C4.456999778747559,17.354000091552734 -5.105999946594238,24.92099952697754 -10.888999938964844,22.066999435424805 C-16.672000885009766,19.21299934387207 -16.485000610351562,7.019999980926514 -10.470999717712402,-5.166999816894531 C-4.456999778747559,-17.354000091552734 5.105999946594238,-24.92099952697754 10.888999938964844,-22.066999435424805 C16.672000885009766,-19.21299934387207 16.485000610351562,-7.019999980926514 10.470999717712402,5.166999816894531 C10.470999717712402,5.166999816894531 10.470999717712402,5.166999816894531 10.470999717712402,5.166999816894531z"
                              ></path>
                            </g>
                            <g
                              opacity="1"
                              transform="matrix(1,0,0,1,-566.7030029296875,-210.43202209472656)"
                            >
                              <path
                                stroke-linecap="butt"
                                stroke-linejoin="miter"
                                fill-opacity="0"
                                stroke-miterlimit="4"
                                stroke="rgb(255,205,180)"
                                stroke-opacity="1"
                                stroke-width="1.675"
                                d=" M8.779999732971191,-22.368000030517578 C14.562999725341797,-19.513999938964844 14.37600040435791,-7.321000099182129 8.362000465393066,4.866000175476074 C2.3480000495910645,17.05299949645996 -7.215000152587891,24.6200008392334 -12.998000144958496,21.766000747680664"
                              ></path>
                            </g>
                          </g>
                          <g opacity="1" transform="matrix(1,0,0,1,1000,1000)">
                            <g opacity="1" transform="matrix(1,0,0,1,0,0)">
                              <g
                                opacity="1"
                                transform="matrix(1,0,0,1,-173.75503540039062,-10.754977226257324)"
                              >
                                <path
                                  fill="rgb(255,133,73)"
                                  fill-opacity="1"
                                  d=" M34.96799850463867,-48.18000030517578 C5.427000045776367,-65.6709976196289 -14.401000022888184,-40.42499923706055 -36.47800064086914,7.633999824523926 C-39.29899978637695,13.77400016784668 -42.16400146484375,19.04599952697754 -44.78900146484375,24.57900047302246 C-44.78900146484375,24.57900047302246 21.878999710083008,53.733001708984375 21.878999710083008,53.733001708984375 C40.198001861572266,11.864999771118164 55.5359992980957,-36.00199890136719 34.96799850463867,-48.18000030517578 C34.96799850463867,-48.18000030517578 34.96799850463867,-48.18000030517578 34.96799850463867,-48.18000030517578z"
                                ></path>
                              </g>
                              <g
                                opacity="1"
                                transform="matrix(1,0,0,1,-185.53399658203125,29.1280517578125)"
                              >
                                <path
                                  fill="rgb(255,133,73)"
                                  fill-opacity="1"
                                  d=" M25.631000518798828,25.836000442504883 C11.362000465393066,39.992000579833984 -11.680000305175781,39.900001525878906 -25.836000442504883,25.631000518798828 C-39.992000579833984,11.362000465393066 -39.900001525878906,-11.680000305175781 -25.631000518798828,-25.836000442504883 C-11.362000465393066,-39.992000579833984 11.680000305175781,-39.900001525878906 25.836000442504883,-25.631000518798828 C39.992000579833984,-11.362000465393066 39.900001525878906,11.680000305175781 25.631000518798828,25.836000442504883 C25.631000518798828,25.836000442504883 25.631000518798828,25.836000442504883 25.631000518798828,25.836000442504883z"
                                ></path>
                              </g>
                            </g>
                            <g
                              opacity="1"
                              transform="matrix(1,0,0,1,-1000,-1000)"
                            >
                              <g
                                opacity="1"
                                transform="matrix(1,0,0,1,753.7219848632812,1067.5889892578125)"
                              >
                                <path
                                  fill="rgb(255,133,73)"
                                  fill-opacity="1"
                                  d=" M8.541999816894531,35.37699890136719 C-10.996000289916992,40.095001220703125 -30.659000396728516,28.079999923706055 -35.37699890136719,8.541999816894531 C-40.095001220703125,-10.996000289916992 -28.079999923706055,-30.659000396728516 -8.541999816894531,-35.37699890136719 C10.996000289916992,-40.095001220703125 30.659000396728516,-28.079999923706055 35.37699890136719,-8.541999816894531 C40.095001220703125,10.996000289916992 28.079999923706055,30.659000396728516 8.541999816894531,35.37699890136719 C8.541999816894531,35.37699890136719 8.541999816894531,35.37699890136719 8.541999816894531,35.37699890136719z"
                                ></path>
                              </g>
                              <g
                                opacity="1"
                                transform="matrix(1,0,0,1,786.0280151367188,1048.9549560546875)"
                              >
                                <path
                                  fill="rgb(255,133,73)"
                                  fill-opacity="1"
                                  d=" M49.819000244140625,9.553999900817871 C49.819000244140625,9.553999900817871 8.012999534606934,-49.92599868774414 8.012999534606934,-49.92599868774414 C-26.881000518798828,-26.898000717163086 -49.819000244140625,-13.368000030517578 -49.819000244140625,-13.368000030517578 C-49.819000244140625,-13.368000030517578 -13.829000473022461,49.92599868774414 -13.829000473022461,49.92599868774414 C-13.829000473022461,49.92599868774414 17.649999618530273,32.222999572753906 49.819000244140625,9.553999900817871 C49.819000244140625,9.553999900817871 49.819000244140625,9.553999900817871 49.819000244140625,9.553999900817871z"
                                ></path>
                              </g>
                            </g>
                          </g>
                        </g>
                        <g
                          opacity="1"
                          transform="matrix(0.9984707236289978,-0.05528333783149719,0.05528333783149719,0.9984707236289978,-66.2249755859375,26.2017822265625)"
                        >
                          <g
                            opacity="1"
                            transform="matrix(1,0,0,1,440.4800109863281,1210.10400390625)"
                          >
                            <path
                              fill="rgb(255,133,73)"
                              fill-opacity="1"
                              d=" M164.13400268554688,13.392000198364258 C164.13400268554688,13.392000198364258 -82.87699890136719,142.30499267578125 -82.87699890136719,142.30499267578125 C-82.87699890136719,142.30499267578125 -164.13400268554688,-13.392000198364258 -164.13400268554688,-13.392000198364258 C-164.13400268554688,-13.392000198364258 82.87699890136719,-142.30499267578125 82.87699890136719,-142.30499267578125 C82.87699890136719,-142.30499267578125 164.13400268554688,13.392000198364258 164.13400268554688,13.392000198364258 C164.13400268554688,13.392000198364258 164.13400268554688,13.392000198364258 164.13400268554688,13.392000198364258z"
                            ></path>
                          </g>
                        </g>
                        <g
                          opacity="1"
                          transform="matrix(1,0,0,1,429.1260070800781,1207.885986328125)"
                        >
                          <path
                            fill="rgb(53,49,72)"
                            fill-opacity="1"
                            d=" M-57.564998626708984,-110.91100311279297 C-70.57499694824219,-104.15799713134766 -55.3489990234375,-49.027000427246094 -23.55699920654297,12.22700023651123 C8.234999656677246,73.48100280761719 44.55500030517578,117.66400146484375 57.564998626708984,110.91100311279297 C70.57499694824219,104.15799713134766 55.3489990234375,49.027000427246094 23.55699920654297,-12.22700023651123 C-8.234999656677246,-73.48100280761719 -44.55500030517578,-117.66400146484375 -57.564998626708984,-110.91100311279297 C-57.564998626708984,-110.91100311279297 -57.564998626708984,-110.91100311279297 -57.564998626708984,-110.91100311279297z"
                          ></path>
                        </g>
                        <g opacity="1" transform="matrix(1,0,0,1,0,0)">
                          <g
                            opacity="1"
                            transform="matrix(1,0,0,1,458.12200927734375,1195.9930419921875)"
                          >
                            <path
                              fill="rgb(255,205,180)"
                              fill-opacity="1"
                              d=" M8.180999755859375,112.90599822998047 C-3.2100000381469727,118.81800079345703 -35.007999420166016,80.13500213623047 -62.84299850463867,26.506000518798828 C-90.6780014038086,-27.12299919128418 -104.00800323486328,-75.38999938964844 -92.61699676513672,-81.302001953125 C-92.61699676513672,-81.302001953125 -4.110000133514404,-113.50299835205078 -4.110000133514404,-113.50299835205078 C-15.50100040435791,-107.59100341796875 -2.1700000762939453,-59.323001861572266 25.665000915527344,-5.693999767303467 C53.5,47.935001373291016 85.2969970703125,86.61799621582031 96.68800354003906,80.70600128173828 C96.68800354003906,80.70600128173828 8.180999755859375,112.90599822998047 8.180999755859375,112.90599822998047 C8.180999755859375,112.90599822998047 8.180999755859375,112.90599822998047 8.180999755859375,112.90599822998047z"
                            ></path>
                          </g>
                          <g
                            opacity="1"
                            transform="matrix(1,0,0,1,490.0840148925781,1273.2860107421875)"
                          >
                            <path
                              fill="rgb(54,49,72)"
                              fill-opacity="1"
                              d=" M-14.069000244140625,-6.2210001945495605 C-17.5049991607666,1.5490000247955322 -13.991000175476074,10.633000373840332 -6.2210001945495605,14.069000244140625 C1.5490000247955322,17.5049991607666 10.633000373840332,13.991000175476074 14.069000244140625,6.2210001945495605 C17.5049991607666,-1.5490000247955322 13.991000175476074,-10.633000373840332 6.2210001945495605,-14.069000244140625 C-1.5490000247955322,-17.5049991607666 -10.633000373840332,-13.991000175476074 -14.069000244140625,-6.2210001945495605 C-14.069000244140625,-6.2210001945495605 -14.069000244140625,-6.2210001945495605 -14.069000244140625,-6.2210001945495605z"
                            ></path>
                          </g>
                        </g>
                        <g
                          opacity="1"
                          transform="matrix(1,0,0,1,348.1099853515625,1253.5670166015625)"
                        >
                          <path
                            fill="rgb(54,49,72)"
                            fill-opacity="1"
                            d=" M-20.21500015258789,155.6820068359375 C-70.88099670410156,174.31300354003906 -176.1699981689453,-98.99199676513672 -124.8290023803711,-117.83599853515625 C-124.8290023803711,-117.83599853515625 23.451000213623047,-156.5919952392578 23.451000213623047,-156.5919952392578 C10.440999984741211,-149.83900451660156 25.66699981689453,-94.70899963378906 57.45899963378906,-33.45500183105469 C89.2509994506836,27.799999237060547 125.57099914550781,71.98300170898438 138.58099365234375,65.2300033569336 C138.58099365234375,65.2300033569336 -20.21500015258789,155.6820068359375 -20.21500015258789,155.6820068359375 C-20.21500015258789,155.6820068359375 -20.21500015258789,155.6820068359375 -20.21500015258789,155.6820068359375z"
                          ></path>
                        </g>
                      </g>
                    </g>
                  </g>
                </g>
              </svg>