<svg
                xmlns="http://www.w3.org/2000/svg"
                xmlns:xlink="http://www.w3.org/1999/xlink"
                viewBox="0 0 765 612"
                width="765"
                height="612"
                preserveAspectRatio="xMidYMid meet"
                style="
                  width: 100%;
                  height: 100%;
                  transform: translate3d(0px, 0px, 0px);
                  content-visibility: visible;
                "
              >
                <defs>
                  <clipPath id="__lottie_element_21">
                    <rect width="765" height="612" x="0" y="0"></rect>
                  </clipPath>
                  <clipPath id="__lottie_element_29">
                    <path d="M0,0 L572,0 L572,678 L0,678z"></path>
                  </clipPath>
                  <clipPath id="__lottie_element_39">
                    <path d="M0,0 L572,0 L572,678 L0,678z"></path>
                  </clipPath>
                  <g id="__lottie_element_42">
                    <g
                      transform="matrix(1,0,0,1,286.5,339.5)"
                      opacity="1"
                      style="display: block"
                    >
                      <path
                        fill="rgb(0,0,0)"
                        fill-opacity="1"
                        d=" M285.5,-338.5 C285.5,-338.5 285.5,338.5 285.5,338.5 C285.5,338.5 -285.5,338.5 -285.5,338.5 C-285.5,338.5 -285.5,-338.5 -285.5,-338.5 C-285.5,-338.5 285.5,-338.5 285.5,-338.5z"
                      ></path>
                    </g>
                  </g>
                  <mask id="__lottie_element_42_1" mask-type="alpha">
                    <use xlink:href="#__lottie_element_42"></use>
                  </mask>
                  <clipPath id="__lottie_element_50">
                    <path d="M0,0 L571,0 L571,678 L0,678z"></path>
                  </clipPath>
                  <clipPath id="__lottie_element_54">
                    <path d="M0,0 L571,0 L571,678 L0,678z"></path>
                  </clipPath>
                  <g id="__lottie_element_57">
                    <g
                      transform="matrix(0.9987472891807556,0.05003839731216431,-0.05003839731216431,0.9987472891807556,237.6355743408203,280.1494140625)"
                      opacity="1"
                      style="display: block"
                    >
                      <g
                        opacity="1"
                        transform="matrix(0.9995591044425964,0,0,1,-483.83551025390625,-648.2650146484375)"
                      >
                        <g
                          opacity="1"
                          transform="matrix(1,0,0,1,534.0709838867188,698.2650146484375)"
                        >
                          <path
                            fill="rgb(255,133,73)"
                            fill-opacity="1"
                            d=" M158.406005859375,-308.8580017089844 C158.406005859375,-308.8580017089844 -214.4510040283203,-263.3070068359375 -214.4510040283203,-263.3070068359375 C-245.00900268554688,-259.5740051269531 -268.322998046875,-244.6179962158203 -264.5899963378906,-214.05999755859375 C-264.5899963378906,-214.05999755859375 -206.56100463867188,260.927001953125 -206.56100463867188,260.927001953125 C-202.8280029296875,291.4849853515625 -192.8040008544922,312.55499267578125 -162.24600219726562,308.8219909667969 C-162.24600219726562,308.8219909667969 214.71299743652344,265.6159973144531 214.71299743652344,265.6159973144531 C269.90399169921875,258.87298583984375 266.9570007324219,233.5989990234375 263.2239990234375,203.04100036621094 C263.2239990234375,203.04100036621094 206.822998046875,-258.6180114746094 206.822998046875,-258.6180114746094 C203.08999633789062,-289.1759948730469 188.96400451660156,-312.59100341796875 158.406005859375,-308.8580017089844 C158.406005859375,-308.8580017089844 158.406005859375,-308.8580017089844 158.406005859375,-308.8580017089844 C158.406005859375,-308.8580017089844 158.406005859375,-308.8580017089844 158.406005859375,-308.8580017089844z"
                          ></path>
                        </g>
                        <g
                          opacity="1"
                          transform="matrix(1,0,0,1,571.7410278320312,565.5460205078125)"
                        >
                          <path
                            stroke-linecap="round"
                            stroke-linejoin="round"
                            fill-opacity="0"
                            stroke="rgb(2,2,2)"
                            stroke-opacity="1"
                            stroke-width="2"
                            d=" M-82.76599884033203,10.111000061035156 C-82.76599884033203,10.111000061035156 -17.11400032043457,-6.315999984741211 82.76599884033203,-10.111000061035156"
                          ></path>
                        </g>
                        <g
                          opacity="1"
                          transform="matrix(1,0,0,1,587.3040161132812,692.9320068359375)"
                        >
                          <path
                            stroke-linecap="round"
                            stroke-linejoin="round"
                            fill-opacity="0"
                            stroke="rgb(2,2,2)"
                            stroke-opacity="1"
                            stroke-width="2"
                            d=" M-82.76599884033203,10.111000061035156 C-82.76599884033203,10.111000061035156 5.47599983215332,10.510000228881836 82.76599884033203,-10.112000465393066"
                          ></path>
                        </g>
                        <g
                          opacity="1"
                          transform="matrix(1,0,0,1,602.8660278320312,820.3179931640625)"
                        >
                          <path
                            stroke-linecap="round"
                            stroke-linejoin="round"
                            fill-opacity="0"
                            stroke="rgb(2,2,2)"
                            stroke-opacity="1"
                            stroke-width="2"
                            d=" M-82.76599884033203,10.111000061035156 C-82.76599884033203,10.111000061035156 -19.09000015258789,-5.646999835968018 82.76599884033203,-10.111000061035156"
                          ></path>
                        </g>
                      </g>
                    </g>
                  </g>
                  <mask id="__lottie_element_57_1" mask-type="alpha">
                    <use xlink:href="#__lottie_element_57"></use>
                  </mask>
                  <clipPath id="__lottie_element_64">
                    <path d="M0,0 L571,0 L571,677 L0,677z"></path>
                  </clipPath>
                  <clipPath id="__lottie_element_68">
                    <path d="M0,0 L571,0 L571,677 L0,677z"></path>
                  </clipPath>
                  <g id="__lottie_element_71">
                    <g
                      transform="matrix(1,0,0,1,285.5,338.5)"
                      opacity="1"
                      style="display: block"
                    >
                      <path
                        fill="rgb(0,0,0)"
                        fill-opacity="1"
                        d=" M-285.5,-338.5 C-285.5,-338.5 285.5,-338.5 285.5,-338.5 C285.5,-338.5 285.5,338.5 285.5,338.5 C285.5,338.5 -285.5,338.5 -285.5,338.5 C-285.5,338.5 -285.5,-338.5 -285.5,-338.5 C-285.5,-338.5 -285.5,-338.5 -285.5,-338.5z"
                      ></path>
                    </g>
                  </g>
                  <mask id="__lottie_element_71_1" mask-type="alpha">
                    <use xlink:href="#__lottie_element_71"></use>
                  </mask>
                </defs>
                <g clip-path="url(#__lottie_element_21)">
                  <g
                    transform="matrix(0.5677143931388855,0.028443150222301483,-0.028443150222301483,0.5677143931388855,146.6909637451172,225.56594848632812)"
                    opacity="1"
                    style="display: block"
                  >
                    <g
                      opacity="1"
                      transform="matrix(0.9995591044425964,0,0,1,-483.83551025390625,-648.2650146484375)"
                    >
                      <g
                        opacity="1"
                        transform="matrix(1,0,0,1,534.0709838867188,698.2650146484375)"
                      >
                        <path
                          stroke-linecap="butt"
                          stroke-linejoin="miter"
                          fill-opacity="0"
                          stroke-miterlimit="4"
                          stroke="rgb(0,0,0)"
                          stroke-opacity="1"
                          stroke-width="3"
                          d=" M158.406005859375,-308.8580017089844 C158.406005859375,-308.8580017089844 -214.4510040283203,-263.3070068359375 -214.4510040283203,-263.3070068359375 C-245.00900268554688,-259.5740051269531 -268.322998046875,-244.6179962158203 -264.5899963378906,-214.05999755859375 C-264.5899963378906,-214.05999755859375 -206.56100463867188,260.927001953125 -206.56100463867188,260.927001953125 C-202.8280029296875,291.4849853515625 -192.8040008544922,312.55499267578125 -162.24600219726562,308.8219909667969 C-162.24600219726562,308.8219909667969 214.71299743652344,265.6159973144531 214.71299743652344,265.6159973144531 C269.90399169921875,258.87298583984375 266.9570007324219,233.5989990234375 263.2239990234375,203.04100036621094 C263.2239990234375,203.04100036621094 206.822998046875,-258.6180114746094 206.822998046875,-258.6180114746094 C203.08999633789062,-289.1759948730469 188.96400451660156,-312.59100341796875 158.406005859375,-308.8580017089844 C158.406005859375,-308.8580017089844 158.406005859375,-308.8580017089844 158.406005859375,-308.8580017089844 C158.406005859375,-308.8580017089844 158.406005859375,-308.8580017089844 158.406005859375,-308.8580017089844z"
                        ></path>
                        <path
                          fill="rgb(255,133,73)"
                          fill-opacity="1"
                          d=" M158.406005859375,-308.8580017089844 C158.406005859375,-308.8580017089844 -214.4510040283203,-263.3070068359375 -214.4510040283203,-263.3070068359375 C-245.00900268554688,-259.5740051269531 -268.322998046875,-244.6179962158203 -264.5899963378906,-214.05999755859375 C-264.5899963378906,-214.05999755859375 -206.56100463867188,260.927001953125 -206.56100463867188,260.927001953125 C-202.8280029296875,291.4849853515625 -192.8040008544922,312.55499267578125 -162.24600219726562,308.8219909667969 C-162.24600219726562,308.8219909667969 214.71299743652344,265.6159973144531 214.71299743652344,265.6159973144531 C269.90399169921875,258.87298583984375 266.9570007324219,233.5989990234375 263.2239990234375,203.04100036621094 C263.2239990234375,203.04100036621094 206.822998046875,-258.6180114746094 206.822998046875,-258.6180114746094 C203.08999633789062,-289.1759948730469 188.96400451660156,-312.59100341796875 158.406005859375,-308.8580017089844 C158.406005859375,-308.8580017089844 158.406005859375,-308.8580017089844 158.406005859375,-308.8580017089844 C158.406005859375,-308.8580017089844 158.406005859375,-308.8580017089844 158.406005859375,-308.8580017089844z"
                        ></path>
                      </g>
                      <g
                        opacity="1"
                        transform="matrix(1,0,0,1,571.7410278320312,565.5460205078125)"
                      >
                        <path
                          stroke-linecap="round"
                          stroke-linejoin="round"
                          fill-opacity="0"
                          stroke="rgb(2,2,2)"
                          stroke-opacity="1"
                          stroke-width="3"
                          d=" M-82.76599884033203,10.111000061035156 C-82.76599884033203,10.111000061035156 -17.11400032043457,-6.315999984741211 82.76599884033203,-10.111000061035156"
                        ></path>
                      </g>
                      <g
                        opacity="1"
                        transform="matrix(1,0,0,1,587.3040161132812,692.9320068359375)"
                      >
                        <path
                          stroke-linecap="round"
                          stroke-linejoin="round"
                          fill-opacity="0"
                          stroke="rgb(2,2,2)"
                          stroke-opacity="1"
                          stroke-width="3"
                          d=" M-82.76599884033203,10.111000061035156 C-82.76599884033203,10.111000061035156 5.47599983215332,10.510000228881836 82.76599884033203,-10.112000465393066"
                        ></path>
                      </g>
                      <g
                        opacity="1"
                        transform="matrix(1,0,0,1,602.8660278320312,820.3179931640625)"
                      >
                        <path
                          stroke-linecap="round"
                          stroke-linejoin="round"
                          fill-opacity="0"
                          stroke="rgb(2,2,2)"
                          stroke-opacity="1"
                          stroke-width="3"
                          d=" M-82.76599884033203,10.111000061035156 C-82.76599884033203,10.111000061035156 -19.09000015258789,-5.646999835968018 82.76599884033203,-10.111000061035156"
                        ></path>
                      </g>
                    </g>
                  </g>
                  <g
                    clip-path="url(#__lottie_element_29)"
                    transform="matrix(0.5684264898300171,0,0,0.5684264898300171,11.044195175170898,66.32160949707031)"
                    opacity="1"
                    style="display: block"
                  >
                    <g
                      mask="url(#__lottie_element_42_1)"
                      style="display: block"
                    >
                      <g
                        clip-path="url(#__lottie_element_39)"
                        transform="matrix(1,0,0,1,0,0)"
                        opacity="1"
                      >
                        <g
                          transform="matrix(1,0,0,1,1,1)"
                          opacity="1"
                          style="display: block"
                        >
                          <path
                            fill="rgb(0,0,0)"
                            fill-opacity="0"
                            d=" M571,-1 C571,-1 571,677 571,677 C571,677 -1,677 -1,677 C-1,677 -1,-1 -1,-1 C-1,-1 571,-1 571,-1z"
                          ></path>
                        </g>
                        <g
                          clip-path="url(#__lottie_element_50)"
                          transform="matrix(1,0,0,1,1,0)"
                          opacity="1"
                          style="display: block"
                        >
                          <g
                            mask="url(#__lottie_element_57_1)"
                            style="display: block"
                          >
                            <g
                              clip-path="url(#__lottie_element_54)"
                              transform="matrix(1,0,0,1,0,0)"
                              opacity="1"
                            >
                              <g
                                transform="matrix(1,0,0,1,0,1)"
                                opacity="1"
                                style="display: block"
                              >
                                <path
                                  fill="rgb(0,0,0)"
                                  fill-opacity="0"
                                  d=" M571,-1 C571,-1 571,677 571,677 C571,677 0,677 0,677 C0,677 0,-1 0,-1 C0,-1 571,-1 571,-1z"
                                ></path>
                              </g>
                              <g
                                clip-path="url(#__lottie_element_64)"
                                transform="matrix(1,0,0,1,0,1)"
                                opacity="1"
                                style="display: block"
                              >
                                <g
                                  mask="url(#__lottie_element_71_1)"
                                  style="display: block"
                                >
                                  <g
                                    clip-path="url(#__lottie_element_68)"
                                    transform="matrix(1,0,0,1,0,0)"
                                    opacity="1"
                                  >
                                    <g
                                      transform="matrix(1,0,0,1,0,0)"
                                      opacity="1"
                                      style="display: block"
                                    >
                                      <path
                                        fill="rgb(0,0,0)"
                                        fill-opacity="0"
                                        d=" M571,0 C571,0 571,677 571,677 C571,677 0,677 0,677 C0,677 0,0 0,0 C0,0 571,0 571,0z"
                                      ></path>
                                    </g>
                                    <g
                                      transform="matrix(1,0,0,1,285.5,338.5)"
                                      opacity="1"
                                      style="display: block"
                                    >
                                      <path
                                        fill="rgb(0,0,0)"
                                        fill-opacity="0"
                                        d=" M285.5,-338.5 C285.5,-338.5 285.5,338.5 285.5,338.5 C285.5,338.5 -285.5,338.5 -285.5,338.5 C-285.5,338.5 -285.5,-338.5 -285.5,-338.5 C-285.5,-338.5 285.5,-338.5 285.5,-338.5z"
                                      ></path>
                                    </g>
                                    <g
                                      transform="matrix(0.9999882578849792,-0.0048499018885195255,0.0048499018885195255,0.9999882578849792,662.319091796875,559.9284057617188)"
                                      opacity="1"
                                      style="display: block"
                                    >
                                      <g
                                        opacity="1"
                                        transform="matrix(1,0,0,1,-62.5419921875,-61.3280029296875)"
                                      >
                                        <path
                                          fill="rgb(54,49,72)"
                                          fill-opacity="1"
                                          d=" M251.4759979248047,-241.2689971923828 C251.4759979248047,-241.2689971923828 -115.68900299072266,-320.5580139160156 -115.68900299072266,-320.5580139160156 C-145.77999877929688,-327.0559997558594 -172.71099853515625,-320.5769958496094 -179.20899963378906,-290.4859924316406 C-179.20899963378906,-290.4859924316406 -280.21600341796875,177.25100708007812 -280.21600341796875,177.25100708007812 C-286.7139892578125,207.3419952392578 -284.1579895019531,230.53500366210938 -254.0659942626953,237.0330047607422 C-254.0659942626953,237.0330047607422 116.2040023803711,319.8840026855469 116.2040023803711,319.8840026855469 C170.552001953125,331.6210021972656 176.06100463867188,306.7770080566406 182.5590057373047,276.6860046386719 C182.5590057373047,276.6860046386719 280.73199462890625,-177.9250030517578 280.73199462890625,-177.9250030517578 C287.2300109863281,-208.01600646972656 281.5669860839844,-234.77099609375 251.4759979248047,-241.2689971923828 C251.4759979248047,-241.2689971923828 251.4759979248047,-241.2689971923828 251.4759979248047,-241.2689971923828 C251.4759979248047,-241.2689971923828 251.4759979248047,-241.2689971923828 251.4759979248047,-241.2689971923828z"
                                        ></path>
                                      </g>
                                    </g>
                                  </g>
                                </g>
                              </g>
                            </g>
                          </g>
                        </g>
                      </g>
                    </g>
                  </g>
                  <g
                    transform="matrix(0.5677143931388855,0.028443150222301483,-0.028443150222301483,0.5677143931388855,146.6909637451172,225.56594848632812)"
                    opacity="1"
                    style="display: block"
                  >
                    <g
                      opacity="1"
                      transform="matrix(0.9995591044425964,0,0,1,-483.83551025390625,-648.2650146484375)"
                    >
                      <g opacity="1" transform="matrix(1,0,0,1,800,800)">
                        <g opacity="1" transform="matrix(1,0,0,1,0,0)">
                          <path
                            stroke-linecap="round"
                            stroke-linejoin="round"
                            fill-opacity="0"
                            stroke="rgb(53,49,72)"
                            stroke-opacity="1"
                            stroke-width="15"
                            d=" M-410.43798828125,-216.14100646972656 C-410.43798828125,-216.14100646972656 -393.875,-194.625 -383.375,-196.375 C-371.125,-205.125 -363.25,-220.875 -352.781005859375,-237.906005859375"
                          ></path>
                        </g>
                        <g opacity="1" transform="matrix(1,0,0,1,15.5,127.5)">
                          <path
                            stroke-linecap="round"
                            stroke-linejoin="round"
                            fill-opacity="0"
                            stroke="rgb(53,49,72)"
                            stroke-opacity="1"
                            stroke-width="15"
                            d=" M-410.43798828125,-216.14100646972656 C-410.43798828125,-216.14100646972656 -393.875,-194.625 -383.375,-196.375 C-375.4679870605469,-202.0229949951172 -369.3840026855469,-210.58700561523438 -363.2489929199219,-220.5290069580078"
                          ></path>
                        </g>
                        <g opacity="1" transform="matrix(1,0,0,1,31,254.75)">
                          <path
                            stroke-linecap="round"
                            stroke-linejoin="round"
                            fill-opacity="0"
                            stroke="rgb(53,49,72)"
                            stroke-opacity="1"
                            stroke-width="15"
                            d="M0 0"
                          ></path>
                        </g>
                      </g>
                    </g>
                  </g>
                  <g
                    transform="matrix(0.5684198141098022,-0.002756812609732151,0.002756812609732151,0.5684198141098022,388.09234619140625,385.16815185546875)"
                    opacity="1"
                    style="display: block"
                  >
                    <g
                      opacity="1"
                      transform="matrix(1,0,0,1,88.44000244140625,50.87699508666992)"
                    >
                      <g
                        opacity="1"
                        transform="matrix(1,0,0,1,-124.08101654052734,-111.86703491210938)"
                      >
                        <path
                          stroke-linecap="butt"
                          stroke-linejoin="miter"
                          fill-opacity="0"
                          stroke-miterlimit="4"
                          stroke="rgb(0,0,0)"
                          stroke-opacity="1"
                          stroke-width="3"
                          d=" M251.4759979248047,-241.2689971923828 C251.4759979248047,-241.2689971923828 -115.68900299072266,-320.5580139160156 -115.68900299072266,-320.5580139160156 C-145.77999877929688,-327.0559997558594 -172.71099853515625,-320.5769958496094 -179.20899963378906,-290.4859924316406 C-179.20899963378906,-290.4859924316406 -280.21600341796875,177.25100708007812 -280.21600341796875,177.25100708007812 C-286.7139892578125,207.3419952392578 -284.1579895019531,230.53500366210938 -254.0659942626953,237.0330047607422 C-254.0659942626953,237.0330047607422 116.2040023803711,319.8840026855469 116.2040023803711,319.8840026855469 C170.552001953125,331.6210021972656 176.06100463867188,306.7770080566406 182.5590057373047,276.6860046386719 C182.5590057373047,276.6860046386719 280.73199462890625,-177.9250030517578 280.73199462890625,-177.9250030517578 C287.2300109863281,-208.01600646972656 281.5669860839844,-234.77099609375 251.4759979248047,-241.2689971923828 C251.4759979248047,-241.2689971923828 251.4759979248047,-241.2689971923828 251.4759979248047,-241.2689971923828 C251.4759979248047,-241.2689971923828 251.4759979248047,-241.2689971923828 251.4759979248047,-241.2689971923828z"
                        ></path>
                        <path
                          fill="rgb(255,133,73)"
                          fill-opacity="1"
                          d=" M251.4759979248047,-241.2689971923828 C251.4759979248047,-241.2689971923828 -115.68900299072266,-320.5580139160156 -115.68900299072266,-320.5580139160156 C-145.77999877929688,-327.0559997558594 -172.71099853515625,-320.5769958496094 -179.20899963378906,-290.4859924316406 C-179.20899963378906,-290.4859924316406 -280.21600341796875,177.25100708007812 -280.21600341796875,177.25100708007812 C-286.7139892578125,207.3419952392578 -284.1579895019531,230.53500366210938 -254.0659942626953,237.0330047607422 C-254.0659942626953,237.0330047607422 116.2040023803711,319.8840026855469 116.2040023803711,319.8840026855469 C170.552001953125,331.6210021972656 176.06100463867188,306.7770080566406 182.5590057373047,276.6860046386719 C182.5590057373047,276.6860046386719 280.73199462890625,-177.9250030517578 280.73199462890625,-177.9250030517578 C287.2300109863281,-208.01600646972656 281.5669860839844,-234.77099609375 251.4759979248047,-241.2689971923828 C251.4759979248047,-241.2689971923828 251.4759979248047,-241.2689971923828 251.4759979248047,-241.2689971923828 C251.4759979248047,-241.2689971923828 251.4759979248047,-241.2689971923828 251.4759979248047,-241.2689971923828z"
                        ></path>
                      </g>
                      <g opacity="1" transform="matrix(1,0,0,1,-1000,-1000)">
                        <g
                          opacity="1"
                          transform="matrix(1,0,0,1,910.2680053710938,711.8790283203125)"
                        >
                          <path
                            stroke-linecap="round"
                            stroke-linejoin="round"
                            fill-opacity="0"
                            stroke="rgb(2,2,2)"
                            stroke-opacity="1"
                            stroke-width="3"
                            d=" M-158.53599548339844,-36.499000549316406 C-158.53599548339844,-36.499000549316406 84.02899932861328,11.763999938964844 158.53599548339844,36.499000549316406"
                          ></path>
                        </g>
                        <g
                          opacity="1"
                          transform="matrix(1,0,0,1,893.2219848632812,799.8369750976562)"
                        >
                          <path
                            stroke-linecap="round"
                            stroke-linejoin="round"
                            fill-opacity="0"
                            stroke="rgb(2,2,2)"
                            stroke-opacity="1"
                            stroke-width="3"
                            d=" M-158.53599548339844,-36.499000549316406 C-158.53599548339844,-36.499000549316406 44.821998596191406,20.481000900268555 158.53599548339844,36.499000549316406"
                          ></path>
                        </g>
                        <g
                          opacity="1"
                          transform="matrix(1,0,0,1,876.177001953125,887.7949829101562)"
                        >
                          <path
                            stroke-linecap="round"
                            stroke-linejoin="round"
                            fill-opacity="0"
                            stroke="rgb(2,2,2)"
                            stroke-opacity="1"
                            stroke-width="3"
                            d=" M-158.53599548339844,-36.499000549316406 C-158.53599548339844,-36.499000549316406 75.16300201416016,11.255000114440918 158.53599548339844,36.499000549316406"
                          ></path>
                        </g>
                        <g
                          opacity="1"
                          transform="matrix(1,0,0,1,859.1320190429688,975.7529907226562)"
                        >
                          <path
                            stroke-linecap="round"
                            stroke-linejoin="round"
                            fill-opacity="0"
                            stroke="rgb(2,2,2)"
                            stroke-opacity="1"
                            stroke-width="3"
                            d=" M-158.53599548339844,-36.499000549316406 C-158.53599548339844,-36.499000549316406 44.13800048828125,14.755000114440918 158.53599548339844,36.499000549316406"
                          ></path>
                        </g>
                        <g
                          opacity="1"
                          transform="matrix(1,0,0,1,842.0859985351562,1063.7120361328125)"
                        >
                          <path
                            stroke-linecap="round"
                            stroke-linejoin="round"
                            fill-opacity="0"
                            stroke="rgb(2,2,2)"
                            stroke-opacity="1"
                            stroke-width="3"
                            d="M0 0"
                          ></path>
                        </g>
                      </g>
                    </g>
                    <g
                      opacity="1"
                      transform="matrix(0.7690319418907166,0.6392103433609009,-0.6392103433609009,0.7690319418907166,-802.5738525390625,-1462.602294921875)"
                    >
                      <g
                        opacity="1"
                        transform="matrix(1,0,0,1,1436.115966796875,719.4229736328125)"
                      >
                        <path
                          fill="rgb(54,49,72)"
                          fill-opacity="1"
                          d=" M7.159999847412109,-19.298999786376953 C7.159999847412109,-19.298999786376953 -7.159999847412109,-19.298999786376953 -7.159999847412109,-19.298999786376953 C-7.159999847412109,-19.298999786376953 -7.159999847412109,12.138999938964844 -7.159999847412109,12.138999938964844 C-7.159999847412109,16.093000411987305 -3.9539999961853027,19.298999786376953 0,19.298999786376953 C0,19.298999786376953 0,19.298999786376953 0,19.298999786376953 C3.9539999961853027,19.298999786376953 7.159999847412109,16.093000411987305 7.159999847412109,12.138999938964844 C7.159999847412109,12.138999938964844 7.159999847412109,-19.298999786376953 7.159999847412109,-19.298999786376953 C7.159999847412109,-19.298999786376953 7.159999847412109,-19.298999786376953 7.159999847412109,-19.298999786376953 C7.159999847412109,-19.298999786376953 7.159999847412109,-19.298999786376953 7.159999847412109,-19.298999786376953z"
                        ></path>
                      </g>
                      <g
                        opacity="1"
                        transform="matrix(1,0,0,1,1436.115966796875,372.89599609375)"
                      >
                        <path
                          stroke-linecap="butt"
                          stroke-linejoin="miter"
                          fill-opacity="0"
                          stroke-miterlimit="4"
                          stroke="rgb(52,48,71)"
                          stroke-opacity="1"
                          stroke-width="3"
                          d=" M38.6609992980957,234.39300537109375 C38.6609992980957,234.39300537109375 -38.6609992980957,234.39300537109375 -38.6609992980957,234.39300537109375 C-38.6609992980957,234.39300537109375 -38.6609992980957,-195.7310028076172 -38.6609992980957,-195.7310028076172 C-38.6609992980957,-217.08299255371094 -21.351999282836914,-234.39300537109375 0,-234.39300537109375 C0,-234.39300537109375 0,-234.39300537109375 0,-234.39300537109375 C21.351999282836914,-234.39300537109375 38.6609992980957,-217.08299255371094 38.6609992980957,-195.7310028076172 C38.6609992980957,-195.7310028076172 38.6609992980957,234.39300537109375 38.6609992980957,234.39300537109375 C38.6609992980957,234.39300537109375 38.6609992980957,234.39300537109375 38.6609992980957,234.39300537109375 C38.6609992980957,234.39300537109375 38.6609992980957,234.39300537109375 38.6609992980957,234.39300537109375z"
                        ></path>
                        <path
                          fill="rgb(54,49,72)"
                          fill-opacity="1"
                          d=" M38.6609992980957,234.39300537109375 C38.6609992980957,234.39300537109375 -38.6609992980957,234.39300537109375 -38.6609992980957,234.39300537109375 C-38.6609992980957,234.39300537109375 -38.6609992980957,-195.7310028076172 -38.6609992980957,-195.7310028076172 C-38.6609992980957,-217.08299255371094 -21.351999282836914,-234.39300537109375 0,-234.39300537109375 C0,-234.39300537109375 0,-234.39300537109375 0,-234.39300537109375 C21.351999282836914,-234.39300537109375 38.6609992980957,-217.08299255371094 38.6609992980957,-195.7310028076172 C38.6609992980957,-195.7310028076172 38.6609992980957,234.39300537109375 38.6609992980957,234.39300537109375 C38.6609992980957,234.39300537109375 38.6609992980957,234.39300537109375 38.6609992980957,234.39300537109375 C38.6609992980957,234.39300537109375 38.6609992980957,234.39300537109375 38.6609992980957,234.39300537109375z"
                        ></path>
                      </g>
                      <g
                        opacity="1"
                        transform="matrix(1,0,0,1,1436.115966796875,657.3330078125)"
                      >
                        <path
                          stroke-linecap="butt"
                          stroke-linejoin="miter"
                          fill-opacity="0"
                          stroke-miterlimit="4"
                          stroke="rgb(54,49,72)"
                          stroke-opacity="1"
                          stroke-width="3"
                          d=" M38.6609992980957,-50.04399871826172 C38.6609992980957,-50.04399871826172 -38.6609992980957,-50.04399871826172 -38.6609992980957,-50.04399871826172 C-38.6609992980957,-50.04399871826172 -38.6609992980957,11.383000373840332 -38.6609992980957,11.383000373840332 C-38.6609992980957,32.73500061035156 -21.351999282836914,50.04399871826172 0,50.04399871826172 C0,50.04399871826172 0,50.04399871826172 0,50.04399871826172 C21.351999282836914,50.04399871826172 38.6609992980957,32.73500061035156 38.6609992980957,11.383000373840332 C38.6609992980957,11.383000373840332 38.6609992980957,-50.04399871826172 38.6609992980957,-50.04399871826172 C38.6609992980957,-50.04399871826172 38.6609992980957,-50.04399871826172 38.6609992980957,-50.04399871826172 C38.6609992980957,-50.04399871826172 38.6609992980957,-50.04399871826172 38.6609992980957,-50.04399871826172z"
                        ></path>
                        <path
                          fill="rgb(255,198,171)"
                          fill-opacity="1"
                          d=" M38.6609992980957,-50.04399871826172 C38.6609992980957,-50.04399871826172 -38.6609992980957,-50.04399871826172 -38.6609992980957,-50.04399871826172 C-38.6609992980957,-50.04399871826172 -38.6609992980957,11.383000373840332 -38.6609992980957,11.383000373840332 C-38.6609992980957,32.73500061035156 -21.351999282836914,50.04399871826172 0,50.04399871826172 C0,50.04399871826172 0,50.04399871826172 0,50.04399871826172 C21.351999282836914,50.04399871826172 38.6609992980957,32.73500061035156 38.6609992980957,11.383000373840332 C38.6609992980957,11.383000373840332 38.6609992980957,-50.04399871826172 38.6609992980957,-50.04399871826172 C38.6609992980957,-50.04399871826172 38.6609992980957,-50.04399871826172 38.6609992980957,-50.04399871826172 C38.6609992980957,-50.04399871826172 38.6609992980957,-50.04399871826172 38.6609992980957,-50.04399871826172z"
                        ></path>
                      </g>
                      <g
                        opacity="1"
                        transform="matrix(0.8141155242919922,-0.5807029604911804,0.5807029604911804,0.8141155242919922,1151.0245361328125,611.8042602539062)"
                      >
                        <g opacity="1" transform="matrix(1,0,0,1,0,0)">
                          <path
                            stroke-linecap="butt"
                            stroke-linejoin="miter"
                            fill-opacity="0"
                            stroke-miterlimit="4"
                            stroke="rgb(54,49,72)"
                            stroke-opacity="1"
                            stroke-width="22.3"
                            d=" M483.7950134277344,-156.625 C483.7950134277344,-156.625 514.4763793945312,-134.33883666992188 514.4763793945312,-134.33883666992188"
                          ></path>
                          <path
                            fill="rgb(247,192,165)"
                            fill-opacity="1"
                            d=" M483.7950134277344,-156.625 C483.7950134277344,-156.625 514.4763793945312,-134.33883666992188 514.4763793945312,-134.33883666992188"
                          ></path>
                        </g>
                        <g
                          opacity="1"
                          transform="matrix(0.8052250742912292,0.5929692387580872,-0.5929692387580872,0.8052250742912292,-591.7833251953125,-1201.20361328125)"
                        >
                          <g
                            opacity="1"
                            transform="matrix(1,0,0,1,1511.281982421875,293.614013671875)"
                          >
                            <path
                              stroke-linecap="butt"
                              stroke-linejoin="miter"
                              fill-opacity="0"
                              stroke-miterlimit="4"
                              stroke="rgb(54,49,72)"
                              stroke-opacity="1"
                              stroke-width="3"
                              d=" M0,101.26000213623047 C0,101.26000213623047 0,101.26000213623047 0,101.26000213623047 C-6.71999979019165,101.26000213623047 -12.168000221252441,95.81199645996094 -12.168000221252441,89.09200286865234 C-12.168000221252441,89.09200286865234 -12.168000221252441,-101.26000213623047 -12.168000221252441,-101.26000213623047 C-12.168000221252441,-101.26000213623047 12.168000221252441,-101.26000213623047 12.168000221252441,-101.26000213623047 C12.168000221252441,-101.26000213623047 12.168000221252441,89.09200286865234 12.168000221252441,89.09200286865234 C12.168000221252441,95.81199645996094 6.71999979019165,101.26000213623047 0,101.26000213623047 C0,101.26000213623047 0,101.26000213623047 0,101.26000213623047 C0,101.26000213623047 0,101.26000213623047 0,101.26000213623047z"
                            ></path>
                            <path
                              fill="rgb(255,198,171)"
                              fill-opacity="1"
                              d=" M0,101.26000213623047 C0,101.26000213623047 0,101.26000213623047 0,101.26000213623047 C-6.71999979019165,101.26000213623047 -12.168000221252441,95.81199645996094 -12.168000221252441,89.09200286865234 C-12.168000221252441,89.09200286865234 -12.168000221252441,-101.26000213623047 -12.168000221252441,-101.26000213623047 C-12.168000221252441,-101.26000213623047 12.168000221252441,-101.26000213623047 12.168000221252441,-101.26000213623047 C12.168000221252441,-101.26000213623047 12.168000221252441,89.09200286865234 12.168000221252441,89.09200286865234 C12.168000221252441,95.81199645996094 6.71999979019165,101.26000213623047 0,101.26000213623047 C0,101.26000213623047 0,101.26000213623047 0,101.26000213623047 C0,101.26000213623047 0,101.26000213623047 0,101.26000213623047z"
                            ></path>
                          </g>
                        </g>
                      </g>
                    </g>
                  </g>
                </g>
              </svg>