<svg xmlns="http://www.w3.org/2000/svg" xmlns:xlink="http://www.w3.org/1999/xlink" viewBox="0 0 222 222" width="222" height="222" preserveAspectRatio="xMidYMid meet" style="width: 100%; height: 100%; transform: translate3d(0px, 0px, 0px); content-visibility: visible;"><defs><clipPath id="__lottie_element_539"><rect width="222" height="222" x="0" y="0"></rect></clipPath></defs><g clip-path="url(#__lottie_element_539)"><g transform="matrix(0.388769268989563,0,0,0.388769268989563,6.023536682128906,8.521781921386719)" opacity="1" style="display: block;"><g opacity="1" transform="matrix(0.13063693046569824,0.9914302825927734,-0.9914302825927734,0.13063693046569824,465.1983337402344,-30.516815185546875)"><g opacity="1" transform="matrix(0.5591928958892822,-0.8290375471115112,0.8290375471115112,0.5591928958892822,-97.04086303710938,315.458740234375)"><g opacity="1" transform="matrix(1,0,0,1,254.7209930419922,363.1419982910156)"><path fill="rgb(76,137,255)" fill-opacity="1" d=" M162.2989959716797,-32.37300109863281 C136.44500732421875,-46.224998474121094 110.29199981689453,-59.50899887084961 83.81099700927734,-72.10900115966797 C69.40799713134766,-44.58300018310547 42.40299987792969,-24.138999938964844 9.362000465393066,-19.493999481201172 C-30.875999450683594,-13.84000015258789 -71.16300201416016,-33.7140007019043 -91.1989974975586,-68.98899841308594 C-91.45500183105469,-68.8550033569336 -99.90899658203125,-73.02799987792969 -104.68000030517578,-72.35700225830078 C-111.63300323486328,-71.37999725341797 -116.89600372314453,-66.072998046875 -118.16500091552734,-59.54800033569336 C-119.47599792480469,-59.755001068115234 -120.83799743652344,-59.7760009765625 -122.22000122070312,-59.582000732421875 C-124.93399810791016,-59.20000076293945 -127.34200286865234,-58.04199981689453 -129.27000427246094,-56.37300109863281 C-132.99200439453125,-59.499000549316406 -137.96099853515625,-61.10599899291992 -143.1529998779297,-60.375999450683594 C-152.8679962158203,-59.01100158691406 -159.63699340820312,-50.02799987792969 -158.27099609375,-40.3120002746582 C-157.83700561523438,-37.2239990234375 -156.62600708007812,-34.43600082397461 -154.87100219726562,-32.106998443603516 C-159.54400634765625,-29.027000427246094 -162.2989959716797,-23.45400047302246 -161.46800231933594,-17.542999267578125 C-160.99200439453125,-14.152000427246094 -159.4010009765625,-11.197999954223633 -157.1320037841797,-8.972000122070312 C-139.6490020751953,15.482999801635742 -116.56900024414062,35.37699890136719 -89.427001953125,49.17399978637695 C-55.064998626708984,66.64099884033203 -16.670000076293945,73.02799987792969 21.607999801635742,67.64900207519531 C84.20700073242188,58.85200119018555 135.2989959716797,19.93899917602539 162.2989959716797,-32.37300109863281 C162.2989959716797,-32.37300109863281 162.2989959716797,-32.37300109863281 162.2989959716797,-32.37300109863281z"></path></g><g opacity="1" transform="matrix(1,0,0,1,254.59100341796875,363.0320129394531)"><path fill="rgb(53,49,72)" fill-opacity="1" d=" M164.6300048828125,-31.079999923706055 C163.16099548339844,-31.868000030517578 161.69500732421875,-32.6619987487793 160.22500610351562,-33.446998596191406 C133.5919952392578,18.187000274658203 83.1709976196289,56.60100173950195 21.389999389648438,65.28299713134766 C-16.378000259399414,70.59100341796875 -54.262001037597656,64.28700256347656 -88.16500091552734,47.05500030517578 C-114.49199676513672,33.672000885009766 -136.94700622558594,14.47700023651123 -154.08799743652344,-9.093000411987305 C-154.3679962158203,-9.47700023651123 -157.33099365234375,-13.336000442504883 -157.33099365234375,-13.336000442504883 C-158.09800720214844,-14.670999526977539 -158.63600158691406,-16.166000366210938 -158.86300659179688,-17.7810001373291 C-159.5279998779297,-22.510000228881836 -157.3699951171875,-27.270999908447266 -153.36700439453125,-29.910999298095703 C-152.7899932861328,-30.29199981689453 -152.39500427246094,-30.89299964904785 -152.2790069580078,-31.572999954223633 C-152.16099548339844,-32.25400161743164 -152.32899475097656,-32.95199966430664 -152.7449951171875,-33.50299835205078 C-154.2969970703125,-35.56100082397461 -155.3070068359375,-37.999000549316406 -155.66600036621094,-40.551998138427734 C-156.83700561523438,-48.88600158691406 -151.00900268554688,-56.619998931884766 -142.6750030517578,-57.79199981689453 C-138.41299438476562,-58.39099884033203 -134.0659942626953,-57.13600158691406 -130.7480010986328,-54.3489990234375 C-129.8070068359375,-53.558998107910156 -128.43299865722656,-53.569000244140625 -127.50499725341797,-54.37200164794922 C-125.86799621582031,-55.78900146484375 -123.875,-56.696998596191406 -121.74299621582031,-56.99700164794922 C-120.63899993896484,-57.152000427246094 -119.52300262451172,-57.141998291015625 -118.4260025024414,-56.96900177001953 C-117.09600067138672,-56.757999420166016 -115.83799743652344,-57.638999938964844 -115.58100128173828,-58.96099853515625 C-114.47899627685547,-64.6259994506836 -109.90599822998047,-68.97100067138672 -104.2020034790039,-69.77200317382812 C-98.76599884033203,-70.53600311279297 -94.80400085449219,-69.69400024414062 -86.30000305175781,-57.0620002746582 C-64.24500274658203,-27.599000930786133 -27.187999725341797,-11.706000328063965 9.838000297546387,-16.909000396728516 C43.742000579833984,-21.674999237060547 71.4469985961914,-42.66699981689453 86.20099639892578,-70.927001953125 C84.69499969482422,-71.6449966430664 83.18599700927734,-72.3550033569336 81.68000030517578,-73.06999969482422 C67.625,-46.277000427246094 41.32099914550781,-26.381999969482422 9.142999649047852,-21.858999252319336 C-26.01300048828125,-16.91900062561035 -61.784000396728516,-32.680999755859375 -82.85700225830078,-60.71799850463867 C-83.76699829101562,-61.92900085449219 -87.58999633789062,-67.59100341796875 -87.59200286865234,-67.58899688720703 C-91.52400207519531,-72.73799896240234 -98.04000091552734,-75.68699645996094 -104.89900207519531,-74.7239990234375 C-111.96199798583984,-73.73100280761719 -117.76000213623047,-68.7760009765625 -119.92400360107422,-62.104000091552734 C-120.76300048828125,-62.117000579833984 -121.60299682617188,-62.064998626708984 -122.43800354003906,-61.948001861572266 C-124.84600067138672,-61.60900115966797 -127.12999725341797,-60.73699951171875 -129.14100646972656,-59.39799880981445 C-133.29200744628906,-62.231998443603516 -138.37600708007812,-63.44300079345703 -143.3719940185547,-62.742000579833984 C-154.43600463867188,-61.18600082397461 -162.17300415039062,-50.91999816894531 -160.6179962158203,-39.854000091552734 C-160.2570037841797,-37.284000396728516 -159.3979949951172,-34.801998138427734 -158.10499572753906,-32.558998107910156 C-162.4219970703125,-28.71500015258789 -164.62899780273438,-22.884000778198242 -163.81399536132812,-17.086000442504883 C-163.3699951171875,-13.92300033569336 -162.08799743652344,-11.085000038146973 -160.24000549316406,-8.743000030517578 C-142.302001953125,17.591999053955078 -119.24600219726562,36.86399841308594 -90.43000030517578,51.512001037597656 C-55.60900115966797,69.21199798583984 -16.70199966430664,75.68599700927734 22.086000442504883,70.23400115966797 C85.50299835205078,61.32099914550781 137.26499938964844,21.908000946044922 164.6300048828125,-31.079999923706055 C164.6300048828125,-31.079999923706055 164.6300048828125,-31.079999923706055 164.6300048828125,-31.079999923706055z"></path></g></g><g opacity="1" transform="matrix(0.5591928958892822,-0.8290375471115112,0.8290375471115112,0.5591928958892822,-96.1884765625,316.173828125)"><g opacity="1" transform="matrix(1,0,0,1,305.1260070800781,317.03900146484375)"><path fill="rgb(76,137,255)" fill-opacity="1" d=" M157.49899291992188,-40.41400146484375 C154.96299743652344,-43.86600112915039 147.46299743652344,-44.47999954223633 141.43800354003906,-37.35300064086914 C136.65499877929688,-31.691999435424805 133.19400024414062,-31.451000213623047 128.0919952392578,-31.266000747680664 C130.98199462890625,-44.332000732421875 132.52000427246094,-57.900001525878906 132.52000427246094,-71.822998046875 C132.52000427246094,-96.08499908447266 112.78199768066406,-115.822998046875 88.5199966430664,-115.822998046875 C64.25900268554688,-115.822998046875 44.52000045776367,-96.08499908447266 44.52000045776367,-71.822998046875 C44.52000045776367,-63.35300064086914 43.45399856567383,-55.12799835205078 41.45500183105469,-47.27000045776367 C36.70600128173828,-50.55699920654297 36.0369987487793,-52.7400016784668 34.185001373291016,-60.82500076293945 C32.0989990234375,-69.9219970703125 26.33799934387207,-71.18099975585938 22.500999450683594,-69.2750015258789 C17.448999404907227,-66.76699829101562 14.371000289916992,-60.4010009765625 21.974000930786133,-44.198001861572266 C25.31399917602539,-37.07899856567383 30.445999145507812,-31.493000030517578 34.32400131225586,-27.947999954223633 C18.069000244140625,5.057000160217285 -15.916999816894531,27.822999954223633 -55.125999450683594,27.822999954223633 C-75.6259994506836,27.822999954223633 -94.69999694824219,21.597999572753906 -110.55899810791016,10.942000389099121 C-126.72100067138672,35.4119987487793 -143.51800537109375,59.4630012512207 -160.83900451660156,83.12899780273438 C-130.71400451660156,103.74600219726562 -94.30599975585938,115.822998046875 -55.125999450683594,115.822998046875 C26.783000946044922,115.822998046875 96.59200286865234,63.064998626708984 122.13200378417969,-10.25 C128.00900268554688,-10.899999618530273 137.7239990234375,-12.807000160217285 144.99899291992188,-18.402000427246094 C159.18600463867188,-29.31599998474121 160.83900451660156,-35.867000579833984 157.49899291992188,-40.41400146484375 C157.49899291992188,-40.41400146484375 157.49899291992188,-40.41400146484375 157.49899291992188,-40.41400146484375z"></path></g><g opacity="1" transform="matrix(1,0,0,1,306.92999267578125,317.03900146484375)"><path fill="rgb(53,49,72)" fill-opacity="1" d=" M159.11199951171875,-42.625999450683594 C157.46600341796875,-45.0890007019043 154.86500549316406,-46.6349983215332 152.00399780273438,-46.85499954223633 C149.40199279785156,-47.060001373291016 145.3560028076172,-46.28200149536133 140.85699462890625,-41.41600036621094 C136.11399841308594,-36.28200149536133 133.69200134277344,-34.48699951171875 129.3719940185547,-33.82699966430664 C131.87600708007812,-46.11000061035156 133.21499633789062,-58.8120002746582 133.21499633789062,-71.822998046875 C133.21499633789062,-97.50399780273438 112.39700317382812,-118.322998046875 86.71499633789062,-118.322998046875 C61.034000396728516,-118.322998046875 40.21500015258789,-97.50399780273438 40.21500015258789,-71.822998046875 C40.21500015258789,-64.7770004272461 39.452999114990234,-57.90800094604492 38.020999908447266,-51.28499984741211 C35.571998596191406,-53.702999114990234 34.49399948120117,-56.564998626708984 33.1510009765625,-62.42399978637695 C31.67099952697754,-68.88300323486328 28.548999786376953,-71.56999969482422 26.18899917602539,-72.68800354003906 C23.583999633789062,-73.9209976196289 20.56999969482422,-73.87200164794922 17.91900062561035,-72.55500030517578 C9.850000381469727,-68.5469970703125 9.28600025177002,-59 16.242000579833984,-44.17599868774414 C19.785999298095703,-36.625 25.174999237060547,-30.76799964904785 29.238000869750977,-27.066999435424805 C13.024999618530273,4.03000020980835 -19.5,25.322999954223633 -56.93000030517578,25.322999954223633 C-76.9229965209961,25.322999954223633 -95.52300262451172,19.25 -110.98799896240234,8.854000091552734 C-111.90399932861328,10.246000289916992 -112.82499694824219,11.635000228881836 -113.74500274658203,13.02299976348877 C-97.48999786376953,23.94300079345703 -77.94200134277344,30.322999954223633 -56.93000030517578,30.322999954223633 C-17.9689998626709,30.322999954223633 15.95300006866455,8.390000343322754 33.172000885009766,-23.77199935913086 C33.18600082397461,-23.76099967956543 34.85599899291992,-26.736000061035156 35.6150016784668,-28.21500015258789 C32.152000427246094,-30.958999633789062 24.94700050354004,-37.395999908447266 20.76799964904785,-46.29999923706055 C15.190999984741211,-58.18600082397461 14.979999542236328,-65.51300048828125 20.14299964904785,-68.07599639892578 C21.415000915527344,-68.70800018310547 22.83799934387207,-68.73999786376953 24.048999786376953,-68.16799926757812 C25.9689998626709,-67.25900268554688 27.47100067138672,-64.82099914550781 28.277999877929688,-61.30699920654297 C30.5310001373291,-51.47700119018555 32.683998107910156,-48.191001892089844 39.79899978637695,-43.72999954223633 C40.970001220703125,-42.99700164794922 42.512001037597656,-43.349998474121094 43.24599838256836,-44.52000045776367 C43.979000091552734,-45.68899917602539 43.62699890136719,-47.231998443603516 42.457000732421875,-47.965999603271484 C42.435001373291016,-47.979000091552734 42.417999267578125,-47.99100112915039 42.395999908447266,-48.00400161743164 C44.23099899291992,-55.650001525878906 45.21500015258789,-63.62300109863281 45.21500015258789,-71.822998046875 C45.21500015258789,-94.70700073242188 63.83300018310547,-113.322998046875 86.71499633789062,-113.322998046875 C109.5979995727539,-113.322998046875 128.21499633789062,-94.70700073242188 128.21499633789062,-71.822998046875 C128.21499633789062,-58.47100067138672 126.77100372314453,-45.45199966430664 124.072998046875,-32.89500045776367 C123.51200103759766,-32.41400146484375 123.16300201416016,-31.700000762939453 123.19400024414062,-30.9060001373291 C123.24800109863281,-29.524999618530273 124.41799926757812,-28.451000213623047 125.78900146484375,-28.506000518798828 C134.1820068359375,-28.834999084472656 137.68499755859375,-30.61400032043457 144.52999877929688,-38.02199935913086 C146.9770050048828,-40.67100143432617 149.49400329589844,-42.0359992980957 151.61199951171875,-41.869998931884766 C152.96200561523438,-41.768001556396484 154.1649932861328,-41.02799987792969 154.9530029296875,-39.847999572753906 C158.1580047607422,-35.055999755859375 154.33099365234375,-28.804000854492188 143.58099365234375,-21.267000198364258 C132.7969970703125,-13.708000183105469 119.0790023803711,-12.666999816894531 118.94400024414062,-12.666999816894531 C118.6510009765625,-12.666999816894531 117.00599670410156,-8.4350004196167 116.89700317382812,-8.140000343322754 C90.87799835205078,62.665000915527344 22.790000915527344,113.322998046875 -56.93000030517578,113.322998046875 C-95.55799865722656,113.322998046875 -131.45700073242188,101.42500305175781 -161.16700744628906,81.11100006103516 C-162.1490020751953,82.45800018310547 -163.1320037841797,83.8030014038086 -164.1179962158203,85.14600372314453 C-133.57899475097656,106.06600189208984 -96.66100311279297,118.322998046875 -56.93000030517578,118.322998046875 C25.527000427246094,118.322998046875 95.87899780273438,65.55999755859375 122.1709976196289,-7.9730000495910645 C126.91100311279297,-8.652000427246094 137.35400390625,-10.79699993133545 146.4510040283203,-17.17099952697754 C159.85899353027344,-26.570999145507812 164.11900329589844,-35.137001037597656 159.11199951171875,-42.625999450683594 C159.11199951171875,-42.625999450683594 159.11199951171875,-42.625999450683594 159.11199951171875,-42.625999450683594z"></path></g><g opacity="1" transform="matrix(1,0,0,1,375.6669921875,238.91799926757812)"><path fill="rgb(0,0,0)" fill-opacity="1" d=" M10.833999633789062,0 C10.833999633789062,5.982999801635742 5.982999801635742,10.833000183105469 0,10.833000183105469 C-5.982999801635742,10.833000183105469 -10.833000183105469,5.982999801635742 -10.833000183105469,0 C-10.833000183105469,-5.982999801635742 -5.982999801635742,-10.833000183105469 0,-10.833000183105469 C5.982999801635742,-10.833000183105469 10.833999633789062,-5.982999801635742 10.833999633789062,0 C10.833999633789062,0 10.833999633789062,0 10.833999633789062,0z"></path></g><g opacity="1" transform="matrix(1,0,0,1,393.1029968261719,262.63800048828125)"><path fill="rgb(0,0,0)" fill-opacity="1" d=" M7.146999835968018,0.15399999916553497 C6.668000221252441,6.117000102996826 3.0820000171661377,9.845000267028809 -0.8659999966621399,9.529000282287598 C-4.814000129699707,9.213000297546387 -7.625999927520752,4.9720001220703125 -7.146999835968018,-0.9919999837875366 C-6.668000221252441,-6.953999996185303 -3.0999999046325684,-9.845999717712402 0.8500000238418579,-9.529999732971191 C4.796999931335449,-9.21399974822998 7.625999927520752,-5.808000087738037 7.146999835968018,0.15399999916553497 C7.146999835968018,0.15399999916553497 7.146999835968018,0.15399999916553497 7.146999835968018,0.15399999916553497z"></path></g><g opacity="1" transform="matrix(1,0,0,1,412,241.08599853515625)"><path fill="rgb(0,0,0)" fill-opacity="1" d=" M10.833000183105469,-0.0010000000474974513 C10.833000183105469,5.98199987411499 5.98199987411499,10.833000183105469 -0.0010000000474974513,10.833000183105469 C-5.984000205993652,10.833000183105469 -10.833999633789062,5.98199987411499 -10.833999633789062,-0.0010000000474974513 C-10.833999633789062,-5.984000205993652 -5.984000205993652,-10.833000183105469 -0.0010000000474974513,-10.833000183105469 C5.98199987411499,-10.833000183105469 10.833000183105469,-5.984000205993652 10.833000183105469,-0.0010000000474974513 C10.833000183105469,-0.0010000000474974513 10.833000183105469,-0.0010000000474974513 10.833000183105469,-0.0010000000474974513z"></path></g><g opacity="1" transform="matrix(1,0,0,1,380.739990234375,222.781005859375)"><path fill="rgb(76,137,255)" fill-opacity="1" d=" M5.072999954223633,2.1559998989105225 C5.072999954223633,2.1559998989105225 2.009000062942505,-2.1559998989105225 -5.072999954223633,-1.281000018119812"></path><path stroke-linecap="round" stroke-linejoin="round" fill-opacity="0" stroke="rgb(53,49,72)" stroke-opacity="1" stroke-width="5" d=" M5.072999954223633,2.1559998989105225 C5.072999954223633,2.1559998989105225 2.009000062942505,-2.1559998989105225 -5.072999954223633,-1.281000018119812"></path></g><g opacity="1" transform="matrix(1,0,0,1,408.739990234375,223.781005859375)"><path fill="rgb(76,137,255)" fill-opacity="1" d=" M-5.072000026702881,2.1559998989105225 C-5.072000026702881,2.1559998989105225 -2.009000062942505,-2.1559998989105225 5.072999954223633,-1.281000018119812"></path><path stroke-linecap="round" stroke-linejoin="round" fill-opacity="0" stroke="rgb(53,49,72)" stroke-opacity="1" stroke-width="5" d=" M-5.072000026702881,2.1559998989105225 C-5.072000026702881,2.1559998989105225 -2.009000062942505,-2.1559998989105225 5.072999954223633,-1.281000018119812"></path></g><g opacity="1" transform="matrix(1,0,0,1,378.62701416015625,235.95899963378906)"><path fill="rgb(250,249,248)" fill-opacity="0.7000000000000001" d=" M2.9590001106262207,0 C2.9590001106262207,1.6339999437332153 1.6339999437332153,2.9590001106262207 0,2.9590001106262207 C-1.6339999437332153,2.9590001106262207 -2.9590001106262207,1.6339999437332153 -2.9590001106262207,0 C-2.9590001106262207,-1.6339999437332153 -1.6339999437332153,-2.9590001106262207 0,-2.9590001106262207 C1.6339999437332153,-2.9590001106262207 2.9590001106262207,-1.6339999437332153 2.9590001106262207,0 C2.9590001106262207,0 2.9590001106262207,0 2.9590001106262207,0z"></path></g><g opacity="1" transform="matrix(1,0,0,1,415.75201416015625,237.83399963378906)"><path fill="rgb(250,249,248)" fill-opacity="0.7000000000000001" d=" M2.9590001106262207,0 C2.9590001106262207,1.6339999437332153 1.6339999437332153,2.9590001106262207 0,2.9590001106262207 C-1.6339999437332153,2.9590001106262207 -2.9590001106262207,1.6339999437332153 -2.9590001106262207,0 C-2.9590001106262207,-1.6339999437332153 -1.6339999437332153,-2.9590001106262207 0,-2.9590001106262207 C1.6339999437332153,-2.9590001106262207 2.9590001106262207,-1.6339999437332153 2.9590001106262207,0 C2.9590001106262207,0 2.9590001106262207,0 2.9590001106262207,0z"></path></g><g opacity="1" transform="matrix(1,0,0,1,374.18798828125,240.7760009765625)"><path fill="rgb(250,249,248)" fill-opacity="0.7000000000000001" d=" M1.437999963760376,0 C1.437999963760376,0.7940000295639038 0.7929999828338623,1.437000036239624 0,1.437000036239624 C-0.7940000295639038,1.437000036239624 -1.437999963760376,0.7940000295639038 -1.437999963760376,0 C-1.437999963760376,-0.7929999828338623 -0.7940000295639038,-1.437000036239624 0,-1.437000036239624 C0.7929999828338623,-1.437000036239624 1.437999963760376,-0.7929999828338623 1.437999963760376,0 C1.437999963760376,0 1.437999963760376,0 1.437999963760376,0z"></path></g><g opacity="1" transform="matrix(1,0,0,1,411.7699890136719,242.86399841308594)"><path fill="rgb(250,249,248)" fill-opacity="0.7000000000000001" d=" M1.437999963760376,0 C1.437999963760376,0.7940000295639038 0.7929999828338623,1.437000036239624 0,1.437000036239624 C-0.7940000295639038,1.437000036239624 -1.437999963760376,0.7940000295639038 -1.437999963760376,0 C-1.437999963760376,-0.7929999828338623 -0.7940000295639038,-1.437000036239624 0,-1.437000036239624 C0.7929999828338623,-1.437000036239624 1.437999963760376,-0.7929999828338623 1.437999963760376,0 C1.437999963760376,0 1.437999963760376,0 1.437999963760376,0z"></path></g><g opacity="1" transform="matrix(1,0,0,1,376.2569885253906,225.61300659179688)"><path stroke-linecap="round" stroke-linejoin="round" fill-opacity="0" stroke="rgb(250,249,248)" stroke-opacity="0.16665078760162602" stroke-width="5" d=" M-17.992000579833984,17.45800018310547 C-17.992000579833984,-2.194999933242798 -3.507999897003174,-17.45800018310547 17.992000579833984,-17.45800018310547"></path></g></g><g opacity="1" transform="matrix(0.7547096014022827,-0.6560590267181396,0.6560590267181396,0.7547096014022827,253.01390075683594,260.6903991699219)"><path stroke-linecap="round" stroke-linejoin="round" fill-opacity="0" stroke="rgb(250,249,248)" stroke-opacity="0.16665078760162602" stroke-width="5" d=" M173.32899475097656,52.185001373291016 C147.8419952392578,119.98300170898438 82.40299987792969,168.2239990234375 5.697000026702881,168.2239990234375 C-26.937000274658203,168.2239990234375 -57.53200149536133,159.49200439453125 -83.87799835205078,144.23699951171875"></path></g><g opacity="1" transform="matrix(0.7986354827880859,-0.6018150448799133,0.6018150448799133,0.7986354827880859,240.1959991455078,247.2752227783203)"><path stroke-linecap="round" stroke-linejoin="round" fill-opacity="0" stroke="rgb(250,249,248)" stroke-opacity="0.16665078760162602" stroke-width="5" d=" M103.83399963378906,46.176998138427734 C85.51300048828125,81.44400024414062 48.6510009765625,105.53299713134766 6.1620001792907715,105.53299713134766 C-18.070999145507812,105.53299713134766 -40.472999572753906,97.6969985961914 -58.64899826049805,84.41999816894531"></path></g><g opacity="1" transform="matrix(0.5591928958892822,-0.8290375471115112,0.8290375471115112,0.5591928958892822,217.18295288085938,325.99462890625)"><path stroke-linecap="round" stroke-linejoin="round" fill-opacity="0" stroke="rgb(250,249,248)" stroke-opacity="0.16665078760162602" stroke-width="5" d=" M81.3550033569336,147.37600708007812 C26.410999298095703,147.37600708007812 -22.172000885009766,120.14299774169922 -51.63199996948242,78.43800354003906"></path></g></g></g></g></svg>